<?xml version="1.0" encoding="utf-8"?><svg width="66" height="66" fill="none" xmlns="http://www.w3.org/2000/svg" viewBox="0 0 66 66"><path d="M65.066 9.965a3.197 3.197 0 000-4.516L60.55.933a3.197 3.197 0 00-4.516 0l-21.97 21.97v-5.87c0-9.39-7.642-17.031-17.032-17.031S0 7.642 0 17.033v5.322a5.328 5.328 0 005.323 5.323 5.328 5.328 0 005.322-5.323v-5.322a6.393 6.393 0 016.387-6.387 6.393 6.393 0 016.387 6.387v16.516L.936 56.03A3.171 3.171 0 000 58.29c0 .853.332 1.655.936 2.258l4.515 4.516A3.173 3.173 0 007.71 66a3.17 3.17 0 002.257-.936l13.452-13.45v9.063A5.328 5.328 0 0028.74 66a5.328 5.328 0 005.322-5.323V40.967L65.065 9.965zm-7.527-7.527a1.068 1.068 0 011.506 0l4.516 4.516c.415.415.415 1.09 0 1.506l-8.973 8.972a7.606 7.606 0 01-.926-1.704l-1.984.77c.353.913.82 1.734 1.387 2.458l-9.781 9.781c-2.716-3.764-1.315-9.819-.987-11.056L50.95 9.03c-.152 1.352-.212 2.963.01 4.604l2.11-.286c-.415-3.056.3-6.107.526-6.965l3.944-3.944zM39.644 20.333c-.325 2.876-.214 6.929 2.125 9.918l-7.706 7.707V25.914l5.58-5.58zm-14.098 2.463l6.357-6.357c.008.2.03.394.03.595V30.43l-6.387 6.387V22.796zm-17.031-.44a3.197 3.197 0 01-3.194 3.193 3.197 3.197 0 01-3.193-3.193v-5.323h6.387v5.323zm.28-7.452H2.298A14.907 14.907 0 019.133 4.42l3.19 5.524a8.538 8.538 0 00-3.528 4.962zM14.235 9L11.01 3.412a14.797 14.797 0 0112.04 0L19.827 9a8.438 8.438 0 00-2.796-.481 8.45 8.45 0 00-2.795.48zm7.504.945l3.19-5.524c3.313 2.081 5.752 5.42 6.634 9.35l-6.017 6.016v-2.753a8.51 8.51 0 00-3.807-7.089zM8.461 63.558a1.089 1.089 0 01-1.505 0l-4.517-4.516a1.06 1.06 0 01-.311-.753c0-.284.11-.551.312-.753l8.955-8.956c-.325 2.876-.214 6.929 2.126 9.918l-5.06 5.06zm6.574-6.573c-2.717-3.765-1.314-9.82-.987-11.057l9.37-9.37v12.044l-8.383 8.383zM28.74 63.87a3.197 3.197 0 01-3.193-3.193v-3.818l2.881-2.882-1.505-1.505-1.376 1.377V39.827l6.387-6.386v14.02l-3.288 3.287 1.505 1.505 1.782-1.782v10.205a3.197 3.197 0 01-3.193 3.193v.001z" fill="#A96D8E"/><path d="M65.997 32.467a2.665 2.665 0 00-2.661-2.66H49.498a2.665 2.665 0 00-2.661 2.66c0 .572.188 1.138.532 1.597l2.375 3.167a6.385 6.385 0 00-2.907 5.349v10.644a6.382 6.382 0 002.907 5.35l-2.376 3.167a2.665 2.665 0 002.13 4.257h13.838a2.665 2.665 0 002.661-2.661c0-.572-.188-1.138-.532-1.597l-2.375-3.167a6.386 6.386 0 002.907-5.349V42.58a6.382 6.382 0 00-2.907-5.35l2.376-3.167c.343-.458.531-1.024.531-1.596zm-2.236 30.55a.532.532 0 01-.425.852H49.498a.532.532 0 01-.426-.851l2.687-3.583c.471.111.96.177 1.465.177h6.386c.505 0 .993-.066 1.465-.176l2.686 3.58zm.107-9.792a4.262 4.262 0 01-4.258 4.258h-6.386a4.262 4.262 0 01-4.258-4.258V42.58a4.262 4.262 0 014.258-4.258h6.386a4.262 4.262 0 014.258 4.258v10.645zm-.106-20.438l-2.687 3.583a6.335 6.335 0 00-1.465-.177h-6.386a6.39 6.39 0 00-1.465.176l-2.686-3.582a.533.533 0 01.425-.852h13.838a.533.533 0 01.426.852z" fill="#A96D8E"/><path d="M51.095 43.645v6.387h2.129v-6.386c0-.587.478-1.065 1.064-1.065h1.065v-2.129h-1.065a3.197 3.197 0 00-3.193 3.194zM51.095 52.16h2.129v2.129h-2.13v-2.13z" fill="#A96D8E"/></svg>