<?xml version="1.0" encoding="utf-8"?><svg width="137" height="122" fill="none" xmlns="http://www.w3.org/2000/svg" viewBox="0 0 137 122"><g opacity=".4"><path d="M57.037 8.483c1.007 3.32 4.475 8.221-.447 11.38m.304-5.916c-.895-2.662-.358-2.967.143-5.464 3.912 4.547 3.312 8.879-.55 11.537l.407-6.073z" stroke="#3E0B3D" stroke-width=".57" stroke-miterlimit="22.93"/><path d="M73.323 24.254c-.747-.349-4.028-.94-5.34-1.445-2.094-.806-4.618-1.455-6.757-2.368m-4.538-.009c3.267-1.593 6.163-2.82 6.333-2.909 3.853-2.027 7.823-2.801 17.995-3.356-6.462 9.317-16.859 4.9-22.744 5.737l-1.584.528zm.819-.385c6.377-1.24 14.97-1.732 23.51-5.871l-23.51 5.871zm-.985-.053c2.081-1.611 2.793-2.265 3.008-5.21.242-3.28 3.388-6.265 5.576-8.785-.273 2.318.139 5.24-.73 7.581-1.208 3.245-4.613 5.554-7.92 6.95l.066-.536zm-.147.335c6.592-3.083 7.818-12.258 8.731-14.32l-8.731 14.32zm2.627-.505c5.59 1.651 8.248.402 14.675 4.363-7.273 1.553-11.762-3.58-14.675-4.363z" stroke="#3E0B3D" stroke-width=".75" stroke-miterlimit="22.93"/><path fill-rule="evenodd" clip-rule="evenodd" d="M34.754 14.66c-.225.416-.479.817-.76 1.198-.34.363-.73.833-.533 1.316l1.884.38c.255-.662-.201-.335.112-.859.976.26.112 1.02 1.128.967-.054-.22-.743-1.06-.962-1.427a17.942 17.942 0 00-.869-1.576zm2.072 2.479c.137.485.444.906.864 1.185a2.197 2.197 0 00-.864-1.186zm-3.535 1.123c.524.077 1.05.128 1.58.152-.305-.197-1.173-.425-1.58-.152zm5.187.613l-.228-.112.228.112zm-1.853.112c-.201-.354-.376-.17-.815-.273-.55-.13-.188-.206-.895-.134a3.02 3.02 0 001.732.407h-.022zm0 0c.242.3.031.152.367.188l-.367-.188zm8.95 2.063l.126-.197-.125.197zm0 0l-.12.197.12-.197zm-6.914.22l-.125-.113.125.112zm.126.107l-.126-.108.126.108zM57.7 17.46c0-.184.022-.39.035-.622a7.263 7.263 0 00-.29-1.907c-.265-.819-.896-.667-1.59-1.034-.241.296.032.076-.322.197-.156-.286-.322-.787-.483-1.119-1.405-.496-1.172-.622-1.683-.828-.675-.273-.568.023-1.047-.058-.479-.08-.398-.317-1.083-.103l-3.706 1.495c-.85.497-1.696 2.059-1.95 2.891-.198.64-.802 3.254-.422 3.912.04-.528-.165-.533.712-1.186 0 .447-.237.738-.282 1.19.855-.658.474-1.428 1.857-2.175-.049.412-.572.837-.657 1.293.554-.093.725-.393 1.315-.407 0 .757-1.342.895-1.817 1.388.157.805.215-.175.403.845a.107.107 0 000 .059l1.343-1.03.55.322-.635.363c.072.367.25.705.514.971.408-.165.376-.022.725-.228.6-.35-.13.054.247-.55l.367.375c.431-.2.88-.36 1.342-.479 1.974-.707 2.408-1.4 2.963-1.472.201-.022.447-.09.702-.13-.107.48-1.016.546-1.436 1.048a2.028 2.028 0 001.584-.645c.42.448.788.448 1.508.448.895-1.074 1.12-1.415 1.213-2.328l.04-.51-.017.014zm-15.333 3.696c-.394.094-.295.099-.586.367.152.094.385.358.604.175.528-.448-.21-.04 0-.542h-.018zm4.838.654l-.121.107.12-.107zm-8.776-9.564c-1.124 0-2.986-.08-3.133 1.656-.045.479.38 1.289.595 1.759.29.626.197 1.042.953 1.476-.16-.541-.59-1.056-.286-1.539.103.072 1.732 2.453 1.978 2.797.528.73 0 .618.967 1.24.425.277 1.038.895 1.499.953l-.618-.577c.3-.202.408-.112.712-.067.174-.954.027-.305-1.244-2.068-.524-.73-1.15-1.687-.81-2.569.264.26.832 1.705 1.445 2.685.318.506.403.314.895.645l.34 1.306-.577.197.725.399.483-.358c.412.264.135.116.399.447.29-.447.125-.282-.139-.555a1.307 1.307 0 01-.362-.573 4.123 4.123 0 01-.394-1.494c.97 1.208.34.854.837 1.615l.026-1.172.757 1.4c.183.475.528.999.304 1.49l.636.216c-.202.116-.117.232-1.07-.036l-.447-.783c-.556.702.268.77.447 1.087.027.05-.027 0 .08.18.027.04.153.192.188.232.73-.73 1.392 0 1.49-1.316-.406-.054.323-.067-.124 0-.229.045.107.031-.157.031-.595-.532-1.857-2.662-1.343-3.284.327.447.108.398.313.742.086-.84-.138-1.705.34-2.398.318.447-.375 2 .032 2.72.148-.192.228-2.21.224-2.59 0-1.052-.09-1.468-.895-2.202-1.262-1.15-.868-.793-2.144-.963-.631-.08-1.052-.805-2.39-.868-.313.524-.157 1.311-.22 1.956-.621-.448-.25-1.253-.263-1.84l-.05.023zm8.668 9.671l-.12.112.12-.112zm-6.632 1.741l-.246-.107.246.107zm0 0l.228.112-.228-.112zm-5.053.448c.604-.159 1.219-.27 1.84-.332.863-.03 1.432.162 2.237.085a3.213 3.213 0 00-2.045-.362c-.72.107-1.593.022-2.014.609h-.018zm-.371.107s.036 0 .045-.036c.008-.036-.21-.107-.045.036zm14.473.448c.13.111.376-.14.139-.054 0 0-.309-.09-.139.054zm-3.58.626l.295-.698c-.506-.05-.649-.12-.989.103a.806.806 0 00.694.595zm.958.663a.613.613 0 00.049-1.088.895.895 0 00-.05 1.088zm4.027-.417c.13.108.376-.143.135-.058 0 0-.305-.09-.135.058zm-10.678-1.956c-.56-.447-1.844-.581-1.983-1.297.497.206 1.097.47 1.612.63.666.211 1.27.636 1.857.35-.26-.533-.269-.085-1.217-.703-.291-.192-.837-.63-1.142-.868-.219 0-.156.228-.787-.063-2.014-.926-1.092-.514-3.455-.675.192-1.187 2.537.04 3.446.232l-.855-.564-.031-.304c.785.24 1.503.66 2.099 1.226.325.28.725.46 1.15.52.787.187.317.523 1.257.536-.398-.666-3.249-2.64-4.028-2.823.242.308.318.192.3.447a2.954 2.954 0 01-1.181-.448c-.788-.376-3.383-1.168-4.476-1.029-1.015.125-1.503.77-2.407 1.235a1.523 1.523 0 00-.895.828c-.331.958.228.291-.555 1.227.304.917.268.487-.094 1.405-.282.716-.309.846 0 1.575h.138c.068.006.134.02.197.045.34.107-.192.058.448.134 1.387.166 2.023-.895 2.815-1.087-.099 1.28-2.01 1.839-3.133 1.315v.506l1.132.569a3.72 3.72 0 01.506-.354c1.065-.448 1.07-1.155 1.643-.958-.076-.47-.224-.16.049-.505.671.093.085.38.523.219.542-.202-.205-.175.448-.546.64.179-.416.595 1.123 0-.035-.403-.111.197-.156-.448 2.18-.779.286-.29 2.609-.626a8.67 8.67 0 011.678-.045c.609.036.806.282 1.37.327l-.005.017zm4.404 1.433c-.35.447.098 1.28.734.966-.193-.398-.09-.09-.385-.447-.134-.17-.228-.372-.35-.515v-.004zm1.477 1.302c.098-.161.215.027.031-.327-.22.269-.246.063-.031.327zm15.216-.52c.801-.116.69.39 1.602-.035-.188-2.712-3.325-4.565-5.173-4.82-.864-.12-2.314-.447-3.133-.376l-.103.385a8.194 8.194 0 00-3.133.85c-.27.022-.535.082-.788.18-.545.236-.228.192-.358.375-.228.331-.975.38-1.342.6.192.35-.04.085.474.255-.3.448-.188.175-.08.448.081.205.135.42.16.64l.511-.242c.4-.423.872-.772 1.392-1.034l.246.291c-.447.273-.72.08-1.043.662 1.32.144 1.835-.304 2.788.04 1.988.717 2.887 1.486 4.516 2.61 1.155.796.953.702 1.817 1.7 1.557.13 3.285-1.342 3.218-1.875-.533-.371-1.343.085-1.558-.667l-.013.014zm-20.752 1.263s.035 0 .04-.04c.005-.04-.21-.108-.04.04zm-.743 0a7.828 7.828 0 001.145-.506c.456-.093.904-.216 1.343-.367-.555-.376-.635-.053-1.343.152a1.607 1.607 0 00-1.14.72h-.005zm-.739 0l-.12.107.12-.107zm-.12.107l-.121.108.12-.108zm4.085.327s.036 0 .04-.04c.005-.04-.21-.108-.04.04zm-12.49-.22c-.314.202-.318.117-.143.426l.143-.425zm13.489.672c.102-.161.219.027.035-.327-.219.269-.25.063-.035.327zm4.448-.448l.497.757c.519-.385-.161-.716-.497-.757zm-3.58.842s.036 0 .044-.036c.01-.036-.214-.107-.044.036zm4.229 1.087l-.179-.751c-.233.255 0 .528.179.751zm.255-.635c.04.183 0 .215.166.362.165.148-.085.193.447.027-.228-.282-.264-.331-.595-.39h-.018zm-.255.635l.063.367c.3 0 .116.09.416-.188l-.479-.179zm-2.573.761s.035 0 .04-.04c.004-.04-.21-.107-.04.04zm.26.542s.035 0 .044-.036c.009-.036-.215-.108-.045.036zm2.492.895a8.948 8.948 0 00-.586-1.79c-.224-.645-.354-.35-.806-1.057l-.264-.371c-.349.448.12.134.734 1.508.238.61.548 1.19.922 1.728v-.018zm-11.287 3.133l-.12.107.12-.107zm-5.182.474a1.585 1.585 0 001.893.42 11.559 11.559 0 002.26-2.063c-.994.126-1.66 1.983-3.133 1.911.076-.241.125-.223.448-.447.179-.117.402-.233.581-.354 2.238-1.477 1.732-2.032 2.529-2.927.515.045-.255-.03.228.135.385.134-.107-.121.322 0-.16.564-.362.6-.59 1.007-.273.496.335.389-.264 1.042-.448.475-1.267 1.169-1.535 1.656 1.88 0 1.79-.478 2.649-1.512.022.385 0 .286-.197.644 1.23-.29 2.721-3.016 2.81-3.106.417-.412.032.448 1.187-1.535.41-.593.756-1.228 1.033-1.893a2.238 2.238 0 01-.85-.622l-.72.644c-.112-.743.232-.93.77-1.28-.404-.25-.372-.076-.744.264-.402-.089-.156-.255-.684.04-1.902 1.066-1.088.923-1.938 1.509-.08-.716.318-.806.68-1.302-.609.049-.371.219-.962.308l.215-.528c-.6-.398 1.79-1.445 3.132-1.54 0-.075-.33-.81-.371-.867-.232.105-.48.169-.734.188a5.508 5.508 0 01-.774-.278l.497-.273c-.421-.555-.591-.237-1.079-.233a11.417 11.417 0 00-1.705 0 2.19 2.19 0 01-.779.054c-.895-.076-.694 0-2.135.42a8.114 8.114 0 00-3.392 1.76c-.394.38-.828.308-.962.765l.21-.103.04.215.278-.08c.64 1.588-2.068 2.237-1.754 3.62.29 1.284.519.957.868 1.123.031.42.179.403.112.85-.04.278-.175.448-.215.797l.501.327a4.356 4.356 0 001.943-.582c.398-.295.895-.949 1.203-1.16.08.708.076.448-.241.82l-.667.667c1.62.04 3.352-2.976 3.705-3.267.448-.38 0 .071.645-.184-.412 1.652-2.381 2.793-3.03 3.343-.649.55-.895.363-1.611.448-.05.397.053.798.286 1.123l.032.04.009-.004zM50.252 29.2c.77-.059.26-.488 1.343-.403l-.447.241.125.475c-.403-.143-.152-.152-.488-.023.42.6 1.526 1.862.99 2.52-.305-.358-.4-.895-.65-1.342a8.195 8.195 0 00-.819-1.213c-.416.479-.21.622-.895.635 0 .103.779 1.79.895 1.992.188.367.936 1.392 1.222 1.79 1.083 1.481 1.28 2.193 3.383 2.627l-.143-.295c.739-.054.099.134.967.282h.076l.358.067a2.273 2.273 0 011.437.675c.358-.447.268-.837.255-1.391-1.016-.197-.716.152-1.616-.896-.206-.241-1.262-.895-1.624-1.203-.458-.44-.876-.92-1.25-1.432-.447-.578-1.046-.95-1.082-1.697.966.555 2.278 3.097 4.56 4.238.367.13.72.296 1.052.497.268.233.447.542.738.779.85.09 1.397-.255 1.271-1.03-.6-.38-.743-.107-1.342-.787-.38-.447-.895-.447-.815-1.123.407-.027 3.428 3.643 2.994-.506-.098-.935-.501-.528-.675-2.063-.144-1.253-.837-2.753-2.082-3.46-.742-.42-4.287-2.976-5.513-2.994l-1.16.193c-.463.05-.93.075-1.396.076.21.17.193.282.363.537l.505-.139c.475.68-.152.08.967.59 1.052.484 3.343 1.272 3.531 1.496a7.318 7.318 0 01-1.23-.188l.371.371c-.564-.05-1.822-.819-2.278-1.141-.456-.322-.313-.448-.738-.246.156.12-.027 0 .228.148 1.275.733 3.285 3.172 2.985 3.674-.291-.166-2.488-2.829-3.133-3.205-.532-.313-.895-.595-1.553-.608.21.63.506.085 1.133.649.505.447.581.277 1.015.868.434.59 1.495 1.24 1.62 1.951-2.085-1.302-2.658-3.079-3.67-2.85 0 .362 0 0 .086.3.16.55.103.3.743 1.029-.112.264-.327.384-.282.698.295 0 .322-.399.644.143-.922.613-.635-.206-1.45-.712.08.408.224.224.3.64l.201.761-.027.005zm4.762 7.393l-.125-.112.125.112zm.376.215a3.464 3.464 0 001.87.653l-1.87-.653zm-20.25.76l-.319-.765c-.067.403-.062.533.318.766zm2.237.98s.036 0 .04-.04c.005-.04-.21-.107-.04.04zm-.86.215l.247-.049-.246.05zm0 0l-.662.036c-.17.757 1.137 1.76 2.386 1.862.496.045.662-.13 1.145-.282a7.434 7.434 0 003.58-2.238c.21-.255.502-.447.703-.67l1.53-2.722c.113-.357.181-.727.202-1.1 0-.22-.027-.448 0-.645.051-.218.082-.44.094-.663.023-1.154-.09-.26.166-1.136.06-.454.07-.914.031-1.37H45.397a3.378 3.378 0 01-1.137-.617c-.631.796-.895-.023-.792-.323.156-.479.143.045.3-.447-.573.031-.448.268-.967 1.056-.631.926-.622 1.342-1.54 2.502-.268.344-.5.819-.81 1.212-.345.346-.71.67-1.096.972-.582.626.255.107-1.101.966-1.624 1.03-2.963.39-3.262 1.02 0 .542.487 1.146.617 1.701-.448-.13 0 0-.488-.313l-.147.327.559.653c1.7-.689 1.343.13 2.94-1.71.488.117 0 .095.385.117.354-.371.564-.895 1.02-.998-.116.627-.693.93-.783 1.486.38-.108.157-.067.421-.399.801.922-1.66 2.144-3.343 2.028.134-.363-.12-.023.34-.309l.005.005zm17.705 1.088c-.036.166.197.103.148 0-.197-.022-.116-.161-.148 0zM49.3 31.594c.04.756.542 1.1.403 2.488-.483-.711-.201-.895-.658-2.045-.25-.618 0-.107-.447-.363-.157-.84-.596-1.217-.963-2.022-.179-.394-.156-.448-.505-.564-.322.537.582 1.45.693 3.03-.51-.135 0 .058-.367-.31-.286-.295 0-.2-.492-.192.39.403.175 0 .39.448-.27.309-.14.224-.515.322l-.327-.448c-.179.412-.39.38-.474.605-.18.447.026.246.326.555-.353.246-.51.125-.25.595.206.38.38.215.21.671-.6.143.117.045-.519-.125-.036 1.204-1.186 2.913-2.027 3.88.317.962 1.096 2.685 2.139 3.106 1.79.72.6.362 1.947.447 2.573.197 1.289.278 2.287.52 1.194.286 1.203-1.464 1.257-2.117.327.492 0 .501.654 1.27.836 0 1.41-.447 2.148-1.096a10.513 10.513 0 01-1.589-1.181c.125-1.088-.806-.895-.792-1.925.756.475 1.007 1.607 2.685 2.475a2.732 2.732 0 00.613-2.13 6.713 6.713 0 00-1.938-1.038c-.447-.193-1.132-1.101-1.436-1.486-.82-1.056-2-2.954-2.435-3.37H49.3zm-14.952 4.681c-.971-.29-.716.278-1.79-.622-.828-.69-.206-.953-1.464-.926a1.67 1.67 0 01-1.62-.994c-.317-1.007.627-.694-.335-1.79-.354-.407-.403-1.37-.399-1.87 0-.896.555-1.008.788-1.79.407-1.344-.873-2.288-1.343-3.5-.398-1.026.229-1.191.318-1.912.045-.358-.09-.568.027-.957.116-.39.273-.55.376-.967.201-.823.277-.962 1.132-1.343.855-.38.703-.716 1.37-1.266.447-.38 1.302-.68 1.436-1.105.327-1.025-.036-.757.73-1.818.447-.644.237-1.002.796-1.651.448-.51.55-1.186 1.088-1.513a10.235 10.235 0 012.032-.586c.949-.192 1.141-.353 2.103 0 .645.228 1.137.685 1.853.658a2.417 2.417 0 012.032.631c.64.506.649.86 1.096 1.316.68.698.685.223 1.195 0 1.455-.618.143-.985 3.133-1.79a8.024 8.024 0 001.853-.757c.506-.241 1.544-.067 2.237-.08.895-.023.895.487 1.79.792 1.222.412.448.935 1.536 1.177 2.04.447 2.01 1.62 1.928 3.227a7.112 7.112 0 01-.196 1.946c-.081.297-.195.584-.34.855-.206.296-.448.358-.591.703.295.282.895.152 1.284.282.446.18.882.384 1.307.608 1.754.895 3.58 2.162 3.477 4.1-.049 1.016.385 1.723-.675 2.488-1.061.765-1.294-.049-1.536 1.862-.192 1.517.408 4.13.242 4.551-.165.421-.649.546-.77.99-.138.514.13.738-.496 1.132-.627.393-.936.107-1.603.268-.483.497 0 .895-.895 1.213-.97.336-1.119-.134-1.852-.13-.215.385.188.788-.255 1.602-.444.815-.86 2.377-2.26 2.538-1.093.12-1.048-.447-1.79.447-.936 1.169-1.187.081-3.653-.111-3.267-.251-3.965-2.878-4.233-3.102-.569-.47-2.712 2.198-4.923 2.108-1.11-.045-3.039-.573-3.196-1.727-.13-.927-.56-.658-.85-1.424-.29-.765-.05-1.427-.166-1.727l.072-.036z" fill="#3E0B3D"/><path fill-rule="evenodd" clip-rule="evenodd" d="M46.972 41.046c.895-.067 2.654-.165 3.58.21a6.606 6.606 0 00-.563-3.24c-.188-.447-.399-.895-.591-1.342a6.884 6.884 0 01-.313-1.683l1.57 3.55c.248.602.413 1.236.493 1.883v.837a1.182 1.182 0 01-.555.792c-.783-.411-.34-.349-1.75-.56-.448-.066-.488-.151-.895-.205-.524-.076-.528.04-.98-.233l.004-.009z" fill="#3E0B3D"/><path fill-rule="evenodd" clip-rule="evenodd" d="M46.972 41.046a2.963 2.963 0 01-1.043-.393c-.045-.314.072-.059 0-.359-.094-.447 0 .04-.242-.447.6-1.016.426-2.09.426-3.039 0-.483.112-.595.098-1.083h.246c0 .515-.179.586-.062 1.168a7.81 7.81 0 01-.103 3.652l.895.345-.22.16.005-.004zM55.547 14.086c.671.555.273 1.195-.412 2.197-.224.327-.29.51-.635.636-.166-.282-.09 0-.036-.448-.488.318-.152.166-.358.099.537-.815.703-1.746 1.44-2.497v.013zM50.937 18.244c-.156.787-2.322 1.91-3.244 1.92.116-.533 2.55-1.916 3.244-1.92zM41.23 16.167c-.64.264-.22 0-.246-1.414 0-.501-.054-1.016 0-1.508l.69-.143c-.068.505-.355 1.194-.3 1.75.057.626.259.783.142 1.95-.349-.277-.188-.138-.264-.635h-.022zM50.328 36.176c.394.068.21.108.645.162 0 .241-.228.067.05.725.277.657.769 2.425.71 2.998-.563-.649-.447-1.11-.71-1.88-.175-.514-.677-1.508-.695-2.005zM47.948 17.353c.586-.411 1.132-.214 1.888-.837.264-.219.78-1.27 1.558-.895-.26.542-.327.068-.833.578-.922.94.269.344-1.548 1.221a1.217 1.217 0 01-1.065-.053v-.014zM47.769 18.74c.255-.25.585-.407.94-.447 1.11-.3 1.924-1.522 2.823-1.719-.2.716-3.173 2.65-3.763 2.148v.018zM51.349 18.115c.76-.273 1.204-1.007 1.875-1.75a5.06 5.06 0 01-.447 1.387c-.303.39-.664.731-1.07 1.012l-.363-.65h.005zM41.512 25.387c-.206.425.027.116-.653.309-.269.076-.537.179-.81.26-.636.183-.895.447-1.593.402.147-.68.783-.541 1.342-.738.56-.197 1.038-.564 1.732-.233h-.018zM57.413 24.635c.524-.264 1.486.04 2.059.282.572.241.407.094.447.447-.519-.085-2.161-.403-2.493-.743l-.013.014zM55.072 28.46c.725.104.721.448 1.169.802.447.354.957.582 1.06 1.007-.573-.094-2.099-1.213-2.237-1.79l.008-.018zM54.312 24.084c.385-.268.394-.255.922-.152a5.73 5.73 0 011.092.269 1.495 1.495 0 01-1.007.308c-.895 0-.945-.295-1.007-.425zM51.416 22.5l-.608.51-.17.143c-.318.21-.05.103-.394.162 0 0 .318-1.343 1.172-.815zM52.557 14.323c0 .34-.479 1.29-.832.985-.269-.233.098-.336.304-.515.159-.175.336-.333.528-.47zM37.435 26.26c.492.022.25-.076.6.143-.103.676-1.2.761-.6-.143zM43.217 29.616c.394.282.501.533.282.895-.506-.179-.608-.523-.282-.895zM43.682 32.162h.31c.254.317.254.317 0 .617-.52 0-.645-.201-.327-.6l.017-.017zM39.753 31.178a.572.572 0 01-.147.948 1.087 1.087 0 01.147-.948zM50.185 21.032c.072-.358.13-.394.564-.399.04.448-.233.694-.564.399zM37.484 33.577l.748.152c-.282.26-.202.282-.564.344l-.184-.496zM44.242 30.605c.193.295.193.268 0 .564-.206-.076-.286.022-.34-.247-.054-.268.255-.29.327-.317h.013zM50.973 23.659a1.06 1.06 0 011.092.036 1.441 1.441 0 01-1.092-.036zM50.19 22.916a.792.792 0 01-.68.613.796.796 0 01.68-.613zM50.15 34.941c.12.14.237.264.362.417l-.448.179c-.022-.448-.09-.31.094-.596h-.008zM55.686 19.846c.317-.157.179-.116.617-.071-.523.662-.514.165-.617.071zM43.436 33.33c.184.345.242.193-.112.448l-.313-.327.448-.125-.023.004zM44.86 39.318l.487.17-.138.35a.893.893 0 01-.233-.22c-.112-.166-.09-.107-.116-.3zM43.07 33.868c.385.148.447 0 .103.447-.287-.223-.296-.116-.103-.447zM40.854 29.942c.229.336.184.35-.076.663-.058-.408-.116-.354.076-.663zM39.382 24.635c.268-.345.13-.287.447-.068-.165.193-.304.233-.447.068zM40.281 30.815c.215.318.224.233-.026.541-.162-.304-.144-.277.026-.541zM39.306 32.153c-.063.38 0 .318-.318.398.072-.398.027-.318.318-.398z" fill="#3E0B3D"/><path fill-rule="evenodd" clip-rule="evenodd" d="M43.436 33.33l.103-.43.282.264-.385.166zM50.038 34.436c.376.067.25-.04.335.291-.228-.05-.326 0-.335-.29zM45.182 30.409c.062.407.103.264-.076.55-.085-.179-.063-.29.076-.55zM50.329 37.027c-.3-.291-.264-.233-.233-.645l.233.645zM46.095 34.982c.318.085.157-.193.233.304-.34-.215-.238 0-.233-.304zM53.09 28.985c.326.201.326.116.165.447l-.165-.447zM39.368 19.314c0-.13.255-.242.188 0-.067.241-.183.197-.188 0zM45.884 18.114c0-.125.26-.237.193 0s-.184.201-.193 0zM55.525 19.202c-.18-.152-.076-.21.08-.04.157.17.103.201-.08.04zM51.595 29.303c.116-.108.394.138.143.058 0 0-.309.09-.143-.058zM56.164 18.875c.117-.103.394.143.144.058 0 0-.305.09-.144-.058zM46.489 17.573c.12-.103.398.138.148.058 0 0-.31.09-.148-.058zM43.714 29.75c.116-.107.394.14.143.059 0 0-.309.09-.143-.059zM34.056 24.2c.116-.103.394.143.143.058 0 0-.309.09-.143-.058zM46.14 32.677c0-.25.152 0 .076 0 0 0-.072.282-.076 0zM44.354 20.943c0-.255.152 0 .076 0 0 0-.072.278-.076 0zM37.663 20.29l-.117-.027.072-.082.045.109zM53.09 28.985l-.117-.027.072-.081.045.108zM46.068 34.744s.036.045.036.031c0-.013 0 0 0 0s-.212.104-.05-.045l.014.014zM39.136 24.746s.036.045.036.032c0-.014 0 0 0 0s-.217.099-.054-.045l.018.013zM53.479 29.853s.04.045.04.031c0-.013 0 0 0 0s-.216.104-.054-.045l.014.014zM50.329 37.028l.134.197-.134-.197z" fill="#3E0B3D"/><path d="M7.472 66.376C19.32 54.991 23.248 50.306 26.27 43.923c.134-.3 2.663-4.65 5.326-9.845l-1.473 2.143C23.288 43.024 6 47.58 7.472 66.376zm0 0c7.045-13.685 16.43-23.267 23.5-31.085l-23.5 31.085zM34.803 60.9c.358-5.411 1.544-12.352-1.342-16.828-2.529-3.938-2.068-5.482-.99-9.398l-.818-.533c-2.891 5-4.865 10.876-3.285 16.215 1.15 3.884 4.529 7.272 6.436 10.544zm0 0c-.828-3.554-8.333-16.152-2.935-26.544L34.804 60.9zm8.06-11.077c-1.834-3.826-2.34-5.818-6.417-8.503-1.356-.886-2.9-3.379-3.298-5.335l-.797-1.378c-2.238 7.102 1.114 13.148 10.513 15.216zm0 0c-4.502-3.298-13.385-6.444-10.333-15.145l10.334 15.145zm42.042-38.824a57.51 57.51 0 0149.529 70.483 58.38 58.38 0 01-.779 2.909m-78.032 36.537a57.51 57.51 0 01-33.53-64.15m7.179-19.75C20.41 40.321 18.182 44.532 6 45.651c7.921-9.098 18.756-6.79 23.272-8.624zM6.354 45.235c1.31-.269 6.135-2.685 8.337-3.32 3.504-.994 7.563-2.583 11.233-3.478l-19.57 6.798z" stroke="#3E0B3D" stroke-width=".75" stroke-miterlimit="22.93"/></g></svg>