<?xml version="1.0" encoding="utf-8"?><svg width="70" height="70" fill="none" xmlns="http://www.w3.org/2000/svg" viewBox="0 0 70 70"><path d="M29.514 48.713a1.978 1.978 0 00-.726-1.72l-2.667-2.13a2.472 2.472 0 00-.355-.227c.13-.298.226-.61.282-.93.23-1.302.623-3.734.915-6.595-.614-.92-1.272-1.936-1.943-3.019a86.062 86.062 0 01-1.126 9.233 1.815 1.815 0 01-.985 1.32 1.835 1.835 0 01-1.661-.005C15.136 41.548 7.04 36.49 4.342 32.41a12.606 12.606 0 01-1.76-10.175 10.78 10.78 0 015.473-6.924 10.302 10.302 0 014.638-1.098c1.347.005 2.681.254 3.939.737.485.185.958.401 1.415.647.01-.786.07-1.572.176-2.35-.269-.123-.54-.239-.816-.343a12.724 12.724 0 00-10.333.453A12.966 12.966 0 00.468 21.67a14.793 14.793 0 002.049 11.945C6.303 39.338 17.962 45.43 20.26 46.591c.502.253 1.05.398 1.611.427-.001.05-.007.097-.006.146l.066 3.42a1.97 1.97 0 00.85 1.596 1.836 1.836 0 001.867.11l.687-.358c1.117 1.844 1.729 4.154 1.875 7.107v.001c.114 1.909.57 3.782 1.345 5.53a16.74 16.74 0 01.72-7.146 15.912 15.912 0 00-1.985-6.512l1.199-.626c.59-.313.977-.908 1.026-1.574v.001zm-5.404 1.39l-.058-2.98a.65.65 0 01.29-.59.358.358 0 01.18-.05.378.378 0 01.234.09l2.42 1.931-3.066 1.6z" fill="#A96D8E"/><path d="M33.933 57.478c1.751-3.924 2.423-7.309 2.055-10.45h1.463a1.917 1.917 0 001.61-.86 1.861 1.861 0 00.108-1.849l-1.72-3.446c-.008-.015-.02-.027-.027-.041a4.368 4.368 0 001.11-1.034c2.453-3.287 10.507-14.584 11.15-21.952h.001a17.204 17.204 0 00-4.219-13.149A14.078 14.078 0 0035.011 0a14.425 14.425 0 00-10.7 4.957 16.527 16.527 0 00-3.969 12.922c.888 7.617 9.446 19.577 11.153 21.897.299.402.665.75 1.082 1.03-.013.024-.032.044-.045.069l-1.72 3.446a1.861 1.861 0 00.108 1.848c.356.54.961.865 1.61.862h1.248c.386 2.815-.212 5.903-1.843 9.558a14.426 14.426 0 00.404 12.837 1.094 1.094 0 101.925-1.04 12.097 12.097 0 01-.331-10.906v-.001zM22.515 17.623a14.34 14.34 0 013.43-11.213 12.238 12.238 0 019.066-4.224 11.915 11.915 0 018.84 3.988 15.016 15.016 0 013.653 11.481c-.472 5.399-5.85 14.303-10.726 20.835a2.173 2.173 0 01-1.756.883h-.008a2.174 2.174 0 01-1.757-.895C28.7 32.283 23.154 23.106 22.515 17.623zM34.489 41.85a.597.597 0 011.002 0l1.495 2.993h-3.99l1.493-2.993z" fill="#A96D8E"/><path d="M69.514 21.672a12.966 12.966 0 00-6.606-8.315 12.72 12.72 0 00-10.333-.452c-.287.11-.569.23-.847.358.11.775.178 1.555.2 2.338.46-.247.935-.464 1.422-.65a10.567 10.567 0 018.576.361 10.78 10.78 0 015.474 6.923c.893 3.488.253 7.19-1.76 10.175-2.7 4.08-10.795 9.139-16.906 12.23a1.838 1.838 0 01-2.646-1.314c-.532-3-.904-6.025-1.116-9.063-.67 1.068-1.327 2.07-1.94 2.976.29 2.806.675 5.184.902 6.467.057.317.152.626.284.92-.126.07-.246.149-.359.238l-2.666 2.13a1.98 1.98 0 00-.726 1.72c.05.666.437 1.261 1.028 1.574l1.057.552c-.491 2.611-2.024 4.972-4.782 7.379a15.379 15.379 0 00-2.692 3.133 9.723 9.723 0 00.365 4.228 13.417 13.417 0 013.766-5.713c2.933-2.559 4.658-5.127 5.351-7.98l.776.405a1.828 1.828 0 001.865-.111 1.97 1.97 0 00.85-1.596l.066-3.419c0-.05-.004-.098-.006-.147a4.036 4.036 0 001.61-.427c2.3-1.163 13.958-7.253 17.744-12.975a14.794 14.794 0 002.05-11.945h-.001zM45.87 50.105l-3.066-1.6 2.419-1.931a.352.352 0 01.416-.039c.195.13.306.355.288.589l-.057 2.98zM15 18.962a5.604 5.604 0 00-4.58.265 1.094 1.094 0 101.012 1.94 3.365 3.365 0 012.789-.16 3.923 3.923 0 012.246 2.349 1.094 1.094 0 002.046-.777 6.083 6.083 0 00-3.514-3.617z" fill="#A96D8E"/><path d="M52.104 23.99a1.104 1.104 0 001.41-.635 3.922 3.922 0 012.246-2.35 3.365 3.365 0 012.79.161 1.094 1.094 0 001.01-1.94 5.597 5.597 0 00-4.577-.265 6.082 6.082 0 00-3.514 3.617c-.214.565.07 1.197.635 1.412zM34.99 8.202a6.497 6.497 0 014.79 2.124 6.98 6.98 0 011.74 5.43 1.094 1.094 0 002.177.203 9.14 9.14 0 00-2.3-7.107 8.692 8.692 0 00-6.407-2.838 1.094 1.094 0 000 2.188z" fill="#A96D8E"/></svg>