<?xml version="1.0" encoding="utf-8"?><svg width="39" height="70" fill="none" xmlns="http://www.w3.org/2000/svg" viewBox="0 0 39 70"><path d="M3.506 23.698A15.229 15.229 0 00.138 35.466l5.833 31.663A3.498 3.498 0 009.416 70h5.133v-2.333H9.416a1.166 1.166 0 01-1.147-.956l-.9-4.885c.034 0 .07.007.104.007a6.999 6.999 0 005.833-3.138 6.991 6.991 0 0011.667 0 6.999 6.999 0 005.833 3.139c.035 0 .07-.007.105-.007l-.9 4.886a1.166 1.166 0 01-1.148.954H16.847v2.333h12.016a3.5 3.5 0 003.442-2.865l5.845-31.72a15.206 15.206 0 00-3.383-11.715L28.55 16.24a3.52 3.52 0 01-.707-3.091L29.383 7h.256a2.334 2.334 0 002.334-2.333V2.334A2.334 2.334 0 0029.639 0h-4.666v2.334h4.666v2.333h-21V2.334h9.315V0H8.64a2.334 2.334 0 00-2.334 2.334v2.333A2.334 2.334 0 008.64 7h.256l1.538 6.15a3.512 3.512 0 01-.708 3.09l-6.22 7.458zm32.34 11.348l-.85 4.62h-5.658l5.966-10.228c.599 1.805.784 3.721.542 5.608zM24.973 50.97a6.99 6.99 0 00-11.667 0 6.928 6.928 0 00-8.423-2.623L3.716 42h30.85l-1.168 6.35a6.927 6.927 0 00-8.425 2.622zM2.443 35.105a12.822 12.822 0 01.534-5.665L8.94 39.666H3.282l-.84-4.561zm10.561 4.56l6.136-10.518 6.135 10.519h-12.27zm14.303-1.147L21.17 27.999h12.271l-6.135 10.519zm-16.333 0L4.838 27.999h12.27l-6.134 10.519zm-3.5 20.981a4.686 4.686 0 01-.54-.036l-.467-2.535c.313.154.657.236 1.007.238a2.335 2.335 0 002.152-3.254 2.333 2.333 0 00-3.842-.68l-.467-2.536a4.667 4.667 0 112.157 8.803zm11.666 0a4.668 4.668 0 01-3.3-7.967 4.668 4.668 0 017.967 3.3A4.668 4.668 0 0119.14 59.5zm11.667 0a4.667 4.667 0 112.156-8.803l-.467 2.536a2.334 2.334 0 10-.682 3.696l-.466 2.535a4.72 4.72 0 01-.541.036zm-18.11-46.914L11.301 7h15.678l-1.4 5.585a5.859 5.859 0 001.18 5.148l6.216 7.459c.127.151.234.316.35.473H4.95c.116-.157.233-.321.35-.473l6.219-7.459a5.859 5.859 0 001.179-5.148z" fill="#A96D8E"/><path d="M20.288-.001h2.352v2.333h-2.352V0zM21.473 54.832a2.333 2.333 0 11-4.667 0 2.333 2.333 0 014.667 0z" fill="#A96D8E"/></svg>