<?xml version="1.0" encoding="utf-8"?><svg width="52" height="70" fill="none" xmlns="http://www.w3.org/2000/svg" viewBox="0 0 52 70"><path d="M47.652 49.753a5.231 5.231 0 00-.163-3.16l-4.002-10.596a9.557 9.557 0 00-7.764-6.055A14.89 14.89 0 0040.4 21.35l.711-4.265a11.667 11.667 0 00-.247-4.968l1.676-1.675a6.118 6.118 0 00-8.65-8.651l-1.952 1.953a11.662 11.662 0 00-2.333-.244h-7.878c-.784.003-1.566.085-2.334.244L17.44 1.79a6.117 6.117 0 00-8.648 8.65l1.675 1.677a11.668 11.668 0 00-.247 4.968l.711 4.265a14.885 14.885 0 004.708 8.619 9.535 9.535 0 00-7.472 6.03l-4 10.59a5.194 5.194 0 00-.194 3.025A6.78 6.78 0 000 55.772v7.46A6.78 6.78 0 006.772 70h.455a6.765 6.765 0 006.102-3.85l7.8-5.804c.411-.33.774-.713 1.078-1.143.831.2 1.683.299 2.537.297h2.24c.734-.009 1.465-.09 2.182-.242.3.41.653.778 1.05 1.095l7.787 5.797A6.768 6.768 0 0044.105 70h.455a6.781 6.781 0 006.772-6.766v-7.456a6.775 6.775 0 00-3.68-6.024zm-6.353-12.93l4.003 10.596c.197.525.237 1.094.116 1.64a6.766 6.766 0 00-.852-.06h-.455a6.73 6.73 0 00-3.842 1.202 2.854 2.854 0 01-.405-.73l-1.8-4.75-1.455-6.839a10.715 10.715 0 00-3.089-5.608 7.221 7.221 0 017.78 4.549zm-3.315 14.151c.16.285.346.553.557.802l-.71-.306c.06-.164.11-.328.157-.495h-.004zM35.54 3.443a3.784 3.784 0 015.35 5.349l-.953.956a11.668 11.668 0 00-5.503-5.197l1.107-1.108zM10.442 8.79a3.784 3.784 0 015.351-5.349L16.9 4.55a11.666 11.666 0 00-5.504 5.198l-.955-.957zm2.792 12.177l-.71-4.266a9.333 9.333 0 019.205-10.867H24.5v2.333h2.334V5.834h2.771A9.333 9.333 0 0138.811 16.7l-.71 4.267a12.625 12.625 0 01-16.99 9.685 12.56 12.56 0 01-7.878-9.686zm-6.89 26.45l4.001-10.595a7.2 7.2 0 017.896-4.52 10.865 10.865 0 00-3.199 6.12l-.675 4.252-2.575 6.792c-.125.32-.305.617-.531.876a6.728 6.728 0 00-4.026-1.343h-.455c-.186 0-.369.013-.55.028a2.876 2.876 0 01.114-1.61zm7.492 3.17c.045.223.095.447.155.668l-.736.317c.228-.307.423-.638.58-.986zm-2.168 12.645a4.443 4.443 0 01-4.433 4.433h-.455a4.442 4.442 0 01-4.445-4.433v-7.455a4.443 4.443 0 014.439-4.445h.455a4.442 4.442 0 014.439 4.44v7.46zm8.983-5.897c-.22.45-.54.843-.933 1.153L14 62.738v-6.966a6.742 6.742 0 00-.267-1.867l2.815-1.218A3.349 3.349 0 0121 55.847a3.4 3.4 0 01-.35 1.482v.006zm8.506-4.915a5.6 5.6 0 00-1.015 4.667c-.383.051-.77.078-1.156.079h-2.24a8.588 8.588 0 01-1.54-.152 5.651 5.651 0 00-7.024-6.628 8.687 8.687 0 01-.244-2.017c.003-.463.043-.925.116-1.382l.607-3.85c0-.025.007-.053.01-.082l.679-4.271a8.568 8.568 0 012.777-5.063c.259-.24.534-.46.824-.66 1.15.383 2.342.625 3.55.72v2.385h2.333V33.78a14.964 14.964 0 003.85-.816c.214.14.427.29.635.455.043.037.089.074.133.117.047.047.099.089.154.127a8.433 8.433 0 012.722 4.687l1.442 6.803c0 .037.01.073.019.11l.117.531h-.001a9.429 9.429 0 01-.233 4.735l-.107-.045a5.626 5.626 0 00-6.406 1.93l-.002.006zm1.562 4.993a3.353 3.353 0 011.43-4.535 3.348 3.348 0 012.567-.21l1.038.444c.045.025.09.048.137.069l1.708.733a6.718 6.718 0 00-.267 1.867v6.967l-5.7-4.252a3.352 3.352 0 01-.91-1.089l-.003.006zM49 63.233a4.443 4.443 0 01-4.433 4.433h-.455a4.443 4.443 0 01-4.445-4.434v-7.455a4.443 4.443 0 014.439-4.444h.455A4.443 4.443 0 0149 55.77v7.461z" fill="#A96D8E"/><path d="M24.5 38.5h2.334V42H24.5v-3.5zM24.5 44.333h2.334v3.5H24.5v-3.5zM24.5 50.166h2.334v3.5H24.5v-3.5zM25.667 24.983l2.675 2.675 1.65-1.65-2.225-2.226a3.5 3.5 0 10-4.2 0l-2.226 2.226 1.65 1.65 2.676-2.675zm0-5.15a1.166 1.166 0 110 2.333 1.166 1.166 0 010-2.332zM19.834 16.334a2.333 2.333 0 11-4.667 0 2.333 2.333 0 014.667 0zM36.167 16.334a2.333 2.333 0 11-4.667 0 2.333 2.333 0 014.667 0zM24.5 10.5h2.334V14H24.5v-3.5z" fill="#A96D8E"/></svg>