<?xml version="1.0" encoding="utf-8"?><svg width="48" height="70" fill="none" xmlns="http://www.w3.org/2000/svg" viewBox="0 0 48 70"><path d="M0 64.853a5.153 5.153 0 005.147 5.146h37.09a5.153 5.153 0 005.148-5.146V11.99a5.153 5.153 0 00-5.148-5.146h-2.913v-2.65a4.178 4.178 0 00-1.54-3.248 4.175 4.175 0 00-3.49-.863L.936 6.868a1.16 1.16 0 00-.226.07c-.018.008-.033.019-.05.027-.051.025-.103.05-.148.081-.032.022-.06.048-.089.073-.028.024-.058.045-.084.071-.025.027-.046.057-.07.085-.024.029-.05.057-.072.09-.02.028-.033.062-.05.092-.019.036-.041.068-.056.106-.019.045-.03.093-.044.141-.007.026-.017.05-.022.075A1.144 1.144 0 000 8.012v56.84H0zM35.196 9.178c.544 5.187 4.671 9.334 9.854 9.901v12.792h-7.474a8.619 8.619 0 00-2.013-3.364 8.285 8.285 0 00-5.986-2.541 8.275 8.275 0 00-5.885 2.439 8.281 8.281 0 00-5.884-2.44 8.28 8.28 0 00-5.986 2.542 8.625 8.625 0 00-2.013 3.364H2.335V19.085c5.207-.545 9.357-4.697 9.902-9.907h22.959zM2.333 44.97h13.599l6.923 7.128a1.168 1.168 0 001.674 0l6.923-7.128H45.05v12.8c-5.186.563-9.314 4.7-9.857 9.893H12.235c-.546-5.207-4.695-9.356-9.902-9.901V44.97zM38 34.204h7.05v8.433H33.717l1.846-1.9c1.74-1.792 2.545-4.181 2.436-6.534zm-2.468-.998c.009.065.025.127.044.189.38 2.005-.181 4.165-1.687 5.716l-3.745 3.857c-.01.009-.018.02-.029.029l-6.423 6.615-6.423-6.615a.53.53 0 00-.03-.03l-3.744-3.856c-1.506-1.55-2.068-3.71-1.687-5.716.02-.062.035-.124.044-.19a6.358 6.358 0 011.643-3.073 5.968 5.968 0 014.312-1.833c1.633 0 3.163.651 4.312 1.833l.737.758c.44.453 1.234.453 1.673 0l.737-.758a5.967 5.967 0 014.311-1.833 5.97 5.97 0 014.312 1.833 6.357 6.357 0 011.642 3.074zm-23.71 7.531l1.845 1.9H2.334v-8.434h7.05c-.109 2.353.697 4.742 2.437 6.534zm-9.488-24.01v-7.55h7.545a8.807 8.807 0 01-7.545 7.55zm0 48.124v-4.73a8.803 8.803 0 017.545 7.543h-4.73a2.817 2.817 0 01-2.815-2.813zm39.903 2.813H37.55a8.803 8.803 0 017.5-7.537v4.724a2.817 2.817 0 01-2.814 2.813zm2.814-55.673v4.73c-3.892-.541-6.975-3.643-7.496-7.543h4.683a2.816 2.816 0 012.813 2.813zM34.76 2.369a1.854 1.854 0 011.548.383c.434.355.683.88.683 1.44v2.652H12.757L34.76 2.37z" fill="#A96D8E"/></svg>