<?xml version="1.0" encoding="utf-8"?><svg width="38" height="31" fill="none" xmlns="http://www.w3.org/2000/svg" viewBox="0 0 38 31"><path opacity=".4" fill-rule="evenodd" clip-rule="evenodd" d="M29.024 17.59c-.861 0-1.746-.128-2.63-.383-2.157-.62-3.941-2.023-5.025-3.946a8.302 8.302 0 01-.765-6.35C21.61 3.315 24.916.803 28.646.803h.036c3.023.119 5.372 1.3 6.982 3.51 2.878 3.951 2.535 10.228 1.367 14.403-1.99 7.117-6.706 12.087-11.467 12.087-.296 0-.595-.02-.888-.06a.942.942 0 01-.779-1.188l.867-3.1a.943.943 0 01.769-.679c3.967-.59 5.959-5.826 6.788-8.86a8.266 8.266 0 01-3.298.675zm-22.921-.383c-2.157-.62-3.941-2.023-5.025-3.947a8.307 8.307 0 01-.766-6.35C1.318 3.316 4.626.804 8.355.804h.037c3.023.118 5.372 1.299 6.982 3.51 2.877 3.951 2.535 10.228 1.367 14.403-1.99 7.117-6.706 12.087-11.468 12.087-.296 0-.594-.02-.887-.06a.94.94 0 01-.779-1.188l.867-3.1a.943.943 0 01.769-.679c3.967-.59 5.959-5.826 6.788-8.86-.86.371-1.97.675-3.298.675-.86 0-1.745-.13-2.63-.384z" fill="#A96D8E"/></svg>