<?xml version="1.0" encoding="utf-8"?><svg width="20" height="21" fill="none" xmlns="http://www.w3.org/2000/svg" viewBox="0 0 20 21"><path d="M19.827 9.24a.776.776 0 10-1.53.26c.79 4.68-2.34 9.12-6.99 9.915-4.65.795-9.06-2.355-9.85-7.036-.79-4.68 2.339-9.12 6.99-9.915a8.509 8.509 0 017.73 2.67l-3.438 1.152a.782.782 0 00-.49.988c.135.41.574.63.98.495l4.655-1.562a.78.78 0 00.531-.741V.78A.778.778 0 0017.639 0a.778.778 0 00-.776.78v2.853A9.938 9.938 0 002.75 3.99c-3.8 4.021-3.641 10.382.354 14.206a9.938 9.938 0 0014.114-.356 10.092 10.092 0 002.61-8.6z" fill="#3E0B3D"/></svg>