<?xml version="1.0" encoding="utf-8"?><svg width="72" height="80" fill="none" xmlns="http://www.w3.org/2000/svg" viewBox="0 0 72 80"><path d="M33.258 2.348c-4.363-1.089-10.005.278-12.777 5.784l-.025.05-.043-.038C15.727 4.137 9.996 5.06 6.393 7.747c-4.255 3.179-5.625 8.33-3.488 13.121.952 2.136 2.488 3.909 4.61 5.298l17.67 10.115 7.15 35.568a.903.903 0 101.771-.356l-7.15-35.566 12.418-16.203c1.389-2.056 2.12-4.285 2.173-6.623.119-5.246-3.135-9.466-8.29-10.753zm6.484 10.711c-.045 1.986-.673 3.889-1.833 5.61L25.754 34.527 8.459 24.628c-1.782-1.168-3.095-2.68-3.904-4.494-2.163-4.85.222-8.923 2.92-10.939a9.93 9.93 0 013.955-1.764c2.51-.504 5.336-.03 7.81 2.086l.919.786a.904.904 0 001.392-.28l.543-1.079C24.42 4.33 29.156 3.187 32.821 4.1c3.268.815 7.04 3.651 6.92 8.96z" fill="#A96D8E"/><path d="M16.888 24.174a.902.902 0 10-.897 1.567l.967.554a.9.9 0 001.232-.335.903.903 0 00-.335-1.232l-.967-.554zM12.34 11.903a.903.903 0 10-.355-1.77c-2.054.413-3.91 1.795-4.846 3.607-.854 1.655-.872 3.427-.052 5.264.572 1.282 1.507 2.368 2.836 3.265l2.308 1.321a.902.902 0 10.897-1.567l-2.25-1.285c-.989-.669-1.71-1.5-2.143-2.47-.593-1.33-.591-2.54.008-3.7.69-1.336 2.07-2.357 3.598-2.665zM66.2 36.353c-2.478-2.868-7.016-4.676-11.602-2.3-1.34-4.99-5.735-7.118-9.526-7.013-4.522.125-8 3.04-8.861 7.425-.384 1.95-.185 3.934.613 5.944l7.198 15.4-7.015 15.913a.903.903 0 101.652.729l7.015-15.914 16.274-5.093c1.972-.75 3.57-1.94 4.751-3.54 2.655-3.595 2.46-8.128-.498-11.55zm-.953 10.479c-.972 1.316-2.298 2.3-3.89 2.907L45.498 54.7l-7.016-15.005c-.646-1.633-.814-3.276-.498-4.882.841-4.283 4.372-5.892 7.14-5.969a8.166 8.166 0 013.497.687c1.926.85 3.602 2.507 4.264 5.102l.25.98a.902.902 0 001.3.574l.893-.476c3.748-2.004 7.478-.529 9.508 1.823 1.811 2.095 3.005 5.787.412 9.298z" fill="#A96D8E"/><path d="M45.901 44.75a.903.903 0 00-1.636.765l.363.775a.901.901 0 001.2.436.903.903 0 00.435-1.2l-.362-.775zM42.703 37.914c-.288-.77-.364-1.516-.227-2.216.18-.918.616-1.545 1.331-1.917.886-.462 2.028-.487 2.984-.066a.903.903 0 10.728-1.653c-1.444-.636-3.186-.592-4.546.117-1.198.625-1.983 1.721-2.267 3.17-.203 1.033-.1 2.109.334 3.263l1.847 3.95a.901.901 0 001.2.435.903.903 0 00.435-1.2l-1.819-3.883z" fill="#A96D8E"/></svg>