<svg width="22" height="20" viewBox="0 0 22 20" fill="none" xmlns="http://www.w3.org/2000/svg">
<path fill-rule="evenodd" clip-rule="evenodd" d="M21.5412 3.41829C21.1455 2.95136 20.5451 2.69146 19.9219 2.69146H6.39958C6.01297 2.69146 5.64455 2.79718 5.32616 2.9866L4.63481 0.647537C4.5211 0.264301 4.16178 0 3.75242 0H2.70174H0.695904C0.313839 0 0 0.299541 0 0.673967V0.744447C0 1.11447 0.30929 1.41841 0.695904 1.41841H3.32487L4.66665 6.01284L6.51329 12.3517C5.46262 12.6072 4.68484 13.5278 4.68484 14.6202C4.68484 15.8581 5.68094 16.8756 6.94084 16.9549C6.83623 17.2456 6.7862 17.5672 6.81349 17.8976C6.90445 19.0164 7.84597 19.9195 9.00126 19.9944C10.3794 20.0869 11.5302 19.0253 11.5302 17.7126C11.5302 17.4483 11.4847 17.1972 11.3983 16.9593H14.1637C14.05 17.2721 14.0045 17.6201 14.0454 17.9769C14.1728 19.0605 15.0961 19.9151 16.2241 19.9944C17.6023 20.0869 18.7576 19.0297 18.7576 17.7126C18.7576 16.4395 17.6659 15.422 16.356 15.422H7.11823C6.66794 15.422 6.28587 15.0828 6.26768 14.6511C6.24949 14.193 6.627 13.8185 7.09549 13.8185H8.48275H16.0012H18.1162C19.0532 13.8185 19.8719 13.1974 20.0993 12.3164L21.9369 5.15387C22.0961 4.53716 21.9505 3.90725 21.5412 3.41829ZM16.3969 16.9551C16.8245 16.9551 17.1747 17.2943 17.1747 17.7083C17.1747 18.1224 16.8245 18.4616 16.3969 18.4616C15.9694 18.4616 15.6191 18.1224 15.6191 17.7083C15.6191 17.2943 15.9648 16.9551 16.3969 16.9551ZM9.94739 17.7083C9.94739 17.2943 9.59717 16.9551 9.16962 16.9551C8.73752 16.9551 8.39185 17.2943 8.39185 17.7083C8.39185 18.1224 8.74207 18.4616 9.16962 18.4616C9.59717 18.4616 9.94739 18.1224 9.94739 17.7083ZM6.31311 6.00374L5.95834 4.79236C5.90376 4.60735 5.98108 4.47079 6.03566 4.40472C6.0857 4.33864 6.20395 4.22852 6.39953 4.22852H7.88231L8.28712 6.00814H6.31311V6.00374ZM8.63273 7.53711H6.75879L7.23637 9.18458H9.00569L8.63273 7.53711ZM8.48289 12.2771C8.27821 12.2771 8.09628 12.145 8.0417 11.9512L7.68237 10.7178H9.35163L9.70641 12.2727H8.48289V12.2771ZM11.3255 12.2766H12.4398V10.7217H10.9707L11.3255 12.2766ZM12.4445 9.18458H10.6252L10.2522 7.53711H12.4445V9.18458ZM9.90627 6.00424H12.4443V4.22461H9.50146L9.90627 6.00424ZM15.2825 12.2766H14.0317V10.7217H15.6191L15.2825 12.2766ZM14.0317 9.18458H15.9557L16.315 7.53711H14.0317V9.18458ZM14.0317 6.00424V4.22461H17.0337L16.6471 6.00424H14.0317ZM18.1208 12.2815C18.3346 12.2815 18.5165 12.1406 18.5666 11.9423L18.8804 10.7266H17.243L16.9019 12.2815H18.1208ZM19.2715 9.18458H17.575L17.9343 7.53711H19.6945L19.2715 9.18458ZM20.0857 5.99935L20.3996 4.77476C20.4496 4.59415 20.3677 4.4576 20.3131 4.39152C20.2631 4.32545 20.1494 4.21973 19.9538 4.21973H18.653L18.2664 5.99935H20.0857Z" fill="#3E0B3D"/>
</svg>
