<svg width="22" height="20" viewBox="0 0 22 20" fill="none" xmlns="http://www.w3.org/2000/svg">
<path fill-rule="evenodd" clip-rule="evenodd" d="M21.5412 3.41829C21.1455 2.95136 20.5451 2.69146 19.9219 2.69146H6.39958C6.01297 2.69146 5.64455 2.79718 5.32616 2.9866L4.63481 0.647537C4.5211 0.264301 4.16178 0 3.75242 0H2.70174H0.695904C0.313839 0 0 0.299541 0 0.673967V0.744447C0 1.11447 0.30929 1.41841 0.695904 1.41841H3.32487L4.66665 6.01284L6.51329 12.3517C5.46262 12.6072 4.68484 13.5278 4.68484 14.6202C4.68484 15.8581 5.68094 16.8756 6.94084 16.9549C6.83623 17.2456 6.7862 17.5672 6.81349 17.8976C6.90445 19.0164 7.84597 19.9195 9.00126 19.9944C10.3794 20.0869 11.5302 19.0253 11.5302 17.7126C11.5302 17.4483 11.4847 17.1972 11.3983 16.9593H14.1637C14.05 17.2721 14.0045 17.6201 14.0454 17.9769C14.1728 19.0605 15.0961 19.9151 16.2241 19.9944C17.6023 20.0869 18.7576 19.0297 18.7576 17.7126C18.7576 16.4395 17.6659 15.422 16.356 15.422H7.11823C6.66794 15.422 6.28587 15.0828 6.26768 14.6511C6.24949 14.193 6.627 13.8185 7.09549 13.8185H8.48275H16.0012H18.1162C19.0532 13.8185 19.8719 13.1974 20.0993 12.3164L21.9369 5.15387C22.0961 4.53716 21.9505 3.90725 21.5412 3.41829ZM16.3969 16.9551C16.8245 16.9551 17.1747 17.2943 17.1747 17.7083C17.1747 18.1224 16.8245 18.4616 16.3969 18.4616C15.9694 18.4616 15.6191 18.1224 15.6191 17.7083C15.6191 17.2943 15.9648 16.9551 16.3969 16.9551ZM9.94813 17.7083C9.94813 17.2943 9.5979 16.9551 9.17035 16.9551C8.73826 16.9551 8.39258 17.2943 8.39258 17.7083C8.39258 18.1224 8.7428 18.4616 9.17035 18.4616C9.5979 18.4616 9.94813 18.1224 9.94813 17.7083ZM6.31287 6.00374L5.9581 4.79236C5.90352 4.60735 5.98084 4.47079 6.03542 4.40472C6.08545 4.33864 6.20371 4.22852 6.39929 4.22852H7.88206L8.28687 6.00814H6.31287V6.00374ZM8.63175 7.53711H6.75781L7.23539 9.18458H9.00472L8.63175 7.53711ZM8.48216 12.2771C8.27748 12.2771 8.09554 12.145 8.04096 11.9512L7.68164 10.7178H9.3509L9.70567 12.2727H8.48216V12.2771ZM11.3255 12.2766H12.4398V10.7217H10.9707L11.3255 12.2766ZM12.4443 9.18458H10.6249L10.252 7.53711H12.4443V9.18458ZM9.90676 6.00424H12.4448V4.22461H9.50195L9.90676 6.00424ZM15.2821 12.2766H14.0312V10.7217H15.6186L15.2821 12.2766ZM14.0312 9.18458H15.9552L16.3145 7.53711H14.0312V9.18458ZM14.0312 6.00424V4.22461H17.0332L16.6466 6.00424H14.0312ZM18.1213 12.2815C18.3351 12.2815 18.517 12.1406 18.5671 11.9423L18.8809 10.7266H17.2435L16.9023 12.2815H18.1213ZM19.2708 9.18458H17.5742L17.9335 7.53711H19.6938L19.2708 9.18458ZM20.085 5.99935L20.3988 4.77476C20.4489 4.59415 20.367 4.4576 20.3124 4.39152C20.2624 4.32545 20.1487 4.21973 19.9531 4.21973H18.6522L18.2656 5.99935H20.085Z" fill="white"/>
</svg>
