<svg width="18" height="18" viewBox="0 0 18 18" xmlns="http://www.w3.org/2000/svg">
<path fill-rule="evenodd" clip-rule="evenodd" d="M1.23261 13.3193L0 17.6784L4.5147 16.5212C5.82273 17.252 7.30133 17.6369 8.81135 17.6369C13.6575 17.6369 17.6 13.7111 17.6 8.88568C17.6 4.06024 13.6575 0.13446 8.81135 0.13446C3.96524 0.13446 0.0226389 4.06024 0.0226389 8.88568C0.0226389 10.4529 0.439968 11.9784 1.23261 13.3193ZM5.01445 15.0925L4.74543 14.9289L2.13709 15.5975L2.84691 13.0872L2.66574 12.8063C1.91192 11.6374 1.51342 10.2816 1.51342 8.88549C1.51342 4.87863 4.78723 1.61879 8.81127 1.61879C12.8353 1.61879 16.1091 4.87863 16.1091 8.88549C16.1091 12.8924 12.8353 16.1522 8.81127 16.1522C7.46784 16.1522 6.1549 15.7857 5.01445 15.0925Z" class="pink-icon"/>
<path d="M6.23005 5.17986L5.641 5.14868C5.45597 5.13888 5.27449 5.1989 5.13464 5.31685C4.84907 5.55761 4.39245 6.02308 4.2522 6.62963C4.04305 7.53404 4.36627 8.64151 5.2028 9.74897C6.03933 10.8564 7.59826 12.6284 10.3549 13.3852C11.2432 13.629 11.942 13.4646 12.4812 13.1298C12.9082 12.8646 13.2025 12.4389 13.3086 11.9577L13.4027 11.5313C13.4326 11.3957 13.3617 11.2582 13.232 11.2001L11.2412 10.3092C11.1119 10.2514 10.9587 10.288 10.8718 10.3973L10.0902 11.381C10.0312 11.4553 9.93012 11.4847 9.83887 11.4536C9.30365 11.271 7.51082 10.542 6.52709 8.7023C6.48443 8.62251 6.49503 8.52566 6.55555 8.45761L7.30247 7.61871C7.37879 7.53305 7.39806 7.41261 7.35221 7.30851L6.49406 5.35932C6.44838 5.25555 6.346 5.186 6.23005 5.17986Z"/>
</svg>
