<svg width="18" height="19" viewBox="0 0 18 19" xmlns="http://www.w3.org/2000/svg">
<path fill-rule="evenodd" clip-rule="evenodd" d="M17.2011 4.5769L17.2063 4.59833C17.7312 7.04498 17.7312 9.52616 17.2063 11.9729L17.2011 11.9943C16.7765 13.7463 14.8622 15.6262 13.1043 16.0173L13.0845 16.0215C11.6631 16.2983 10.2313 16.4364 8.8 16.4364C8.37872 16.4364 7.95744 16.423 7.5364 16.3989L5.59507 18.4586C5.11448 18.9694 4.26935 18.6217 4.26935 17.9139V15.9582C2.57707 15.465 0.805403 13.6714 0.398356 11.9942L0.39369 11.9728C-0.13123 9.52616 -0.13123 7.04498 0.39369 4.59833L0.398356 4.5769C0.823542 2.82495 2.73775 0.945013 4.49507 0.553905L4.51548 0.549738C7.35822 -0.00388415 10.2412 -0.00388415 13.0845 0.549738L13.1043 0.553905C14.8622 0.945013 16.7765 2.82495 17.2011 4.5769ZM12.7785 14.4442C13.9333 14.1817 15.3867 12.7607 15.6702 11.6178C16.1431 9.40624 16.1431 7.16437 15.6702 4.9528C15.3867 3.80984 13.9339 2.38888 12.7785 2.12635C10.1387 1.61381 7.4616 1.61381 4.82125 2.12635C3.66642 2.38888 2.21356 3.80984 1.92952 4.9528C1.45709 7.16431 1.45709 9.40618 1.92952 11.6177C2.21356 12.7607 3.66642 14.1816 4.82125 14.4441L4.82212 14.4443C4.87362 14.4546 4.91107 14.5001 4.91107 14.5536V17.7933C4.91107 17.9552 5.1047 18.035 5.21494 17.9177L6.72262 16.3384L8.14009 14.8533C8.1612 14.8311 8.1903 14.8192 8.22057 14.82C9.74284 14.863 11.2666 14.7376 12.7785 14.4442Z"/>
<path d="M11.3125 13.1131C11.135 13.0581 10.9658 13.0212 10.8086 12.9546C9.18044 12.2651 7.68196 11.3756 6.495 10.0121C5.82001 9.23672 5.2917 8.36133 4.84511 7.43492C4.63333 6.99559 4.45486 6.53906 4.27295 6.0855C4.10707 5.67188 4.35139 5.24458 4.60866 4.93294C4.85007 4.64047 5.16071 4.41663 5.49712 4.25168C5.7597 4.12291 6.01872 4.19715 6.21049 4.42431C6.62506 4.91544 7.00586 5.43168 7.31422 6.00097C7.50384 6.35112 7.45181 6.77914 7.10816 7.01744C7.02464 7.07536 6.94853 7.14335 6.87072 7.20877C6.80248 7.2661 6.73827 7.32402 6.69149 7.40165C6.60599 7.54369 6.60191 7.7112 6.65696 7.86562C7.08075 9.05432 7.79505 9.97864 8.96726 10.4765C9.15483 10.5561 9.34322 10.6489 9.55931 10.6232C9.92122 10.58 10.0384 10.1749 10.292 9.96316C10.5399 9.7563 10.8566 9.75356 11.1236 9.92602C11.3907 10.0985 11.6496 10.2837 11.9069 10.4709C12.1595 10.6546 12.411 10.8343 12.644 11.0438C12.8681 11.2451 12.9452 11.5093 12.8191 11.7826C12.5881 12.2832 12.252 12.6996 11.7673 12.9654C11.6304 13.0403 11.4669 13.0646 11.3125 13.1131C11.4669 13.0646 11.135 13.0581 11.3125 13.1131Z"/>
<path d="M8.80388 3.67986C10.9336 3.74075 12.6828 5.18321 13.0576 7.33205C13.1215 7.69819 13.1443 8.07254 13.1727 8.44415C13.1846 8.60047 13.0979 8.74898 12.9326 8.751C12.7619 8.75309 12.6851 8.60731 12.674 8.45106C12.6521 8.14177 12.6368 7.83111 12.5951 7.52438C12.3746 5.90525 11.1096 4.56571 9.53043 4.27826C9.29282 4.23499 9.0496 4.22362 8.8089 4.19784C8.65673 4.18153 8.45744 4.17213 8.42373 3.97909C8.39544 3.81724 8.52929 3.68837 8.68029 3.6801C8.72135 3.67778 8.76265 3.67968 8.80388 3.67986C8.76265 3.67968 10.9336 3.74075 8.80388 3.67986Z" fill="#9E839E"/>
<path d="M12.0409 7.96184C12.0374 7.98898 12.0355 8.05279 12.0199 8.11291C11.9634 8.33113 11.6392 8.35845 11.5646 8.13821C11.5425 8.07285 11.5392 7.9985 11.539 7.92814C11.5383 7.46777 11.4402 7.00788 11.2128 6.60733C10.979 6.19565 10.6217 5.84957 10.2027 5.64016C9.94934 5.51355 9.67533 5.43486 9.39765 5.38795C9.27628 5.36747 9.15362 5.35503 9.03166 5.33771C8.88387 5.31676 8.80495 5.22062 8.81195 5.07199C8.81848 4.9327 8.91822 4.83252 9.06695 4.84109C9.55571 4.86942 10.0278 4.97722 10.4623 5.21205C11.3459 5.68962 11.8507 6.44346 11.998 7.45003C12.0046 7.49563 12.0154 7.54081 12.0188 7.58659C12.0271 7.69963 12.0324 7.81278 12.0409 7.96184C12.0324 7.81278 12.0374 7.98898 12.0409 7.96184Z"/>
<path d="M10.7159 7.90936C10.5377 7.91263 10.4424 7.81195 10.424 7.64518C10.4112 7.52889 10.4011 7.41106 10.374 7.29794C10.3204 7.07514 10.2044 6.86865 10.0208 6.73212C9.93413 6.66764 9.83591 6.62066 9.73302 6.59036C9.60232 6.55183 9.46659 6.56243 9.33618 6.5298C9.19457 6.49438 9.11624 6.37732 9.13852 6.24169C9.15876 6.11826 9.2764 6.02192 9.4085 6.03169C10.2342 6.09254 10.8243 6.52832 10.9086 7.52062C10.9145 7.59064 10.9215 7.66465 10.9063 7.73163C10.8802 7.84631 10.797 7.90376 10.7159 7.90936C10.797 7.90376 10.5377 7.91263 10.7159 7.90936Z" fill="#9E839E"/>
</svg>
