<svg width="22" height="19" viewBox="0 0 22 19" fill="none" xmlns="http://www.w3.org/2000/svg">
<path d="M20.1666 2.75053H15.5833V1.83383C15.5833 0.822737 14.7611 0.000488281 13.75 0.000488281H8.24998C7.23889 0.000488281 6.41664 0.822694 6.41664 1.83383V2.75048H1.83334C0.822205 2.75053 0 3.57273 0 4.58383V7.33382C0 8.34496 0.822205 9.16717 1.83334 9.16717H9.16668V8.70882C9.16668 8.45548 9.37168 8.25047 9.62502 8.25047H12.375C12.6284 8.25047 12.8334 8.45548 12.8334 8.70882V9.16717H20.1667C21.1778 9.16717 22 8.34496 22 7.33382V4.58383C22 3.57273 21.1778 2.75053 20.1666 2.75053ZM13.75 2.75053H8.24998V1.83383H13.75V2.75053Z" fill="#A96D8E"/>
<path d="M21.7457 9.66217C21.5895 9.58474 21.4029 9.60266 21.265 9.70738C20.9391 9.95402 20.5596 10.0843 20.1666 10.0843H12.8333V11.4593C12.8333 11.7126 12.6283 11.9176 12.375 11.9176H9.62498C9.37164 11.9176 9.16663 11.7126 9.16663 11.4593V10.0843H1.83334C1.44035 10.0843 1.06081 9.95402 0.734936 9.70738C0.59662 9.60176 0.410437 9.58384 0.254203 9.66217C0.0984842 9.73965 0 9.8985 0 10.0727V16.5009C0 17.512 0.822205 18.3343 1.83334 18.3343H20.1667C21.1778 18.3343 22 17.5121 22 16.5009V10.0727C22 9.8985 21.9015 9.73965 21.7457 9.66217Z" fill="#A96D8E"/>
</svg>
