<svg width="50" height="51" viewBox="0 0 50 51" fill="none" xmlns="http://www.w3.org/2000/svg">
<path d="M25 0.00695801C11.2146 0.00695801 0 11.2216 0 25.007C0 38.7923 11.2146 50.007 25 50.007C38.7854 50.007 50 38.7923 50 25.007C50 11.2216 38.7854 0.00695801 25 0.00695801ZM36.4987 43.1964L35.1731 40.9063L33.6782 41.7665L35.0073 44.0703C32.2557 45.5196 29.1545 46.3777 25.8619 46.5084V43.8641H24.1345V46.5084C20.8469 46.3778 17.7442 45.5196 14.9925 44.0703L16.3182 41.7665L14.8198 40.9063L13.4977 43.1928C10.8058 41.4847 8.51922 39.1982 6.81108 36.5063L9.10116 35.1841L8.23745 33.6857L5.9371 35.0149C4.48785 32.2633 3.6297 29.1586 3.49905 25.8694H6.1433V24.1421H3.49905C3.62969 20.8544 4.48435 17.7517 5.9371 15.0001L8.23745 16.3258L9.10116 14.8309L6.81108 13.5088C8.51922 10.8133 10.8058 8.52718 13.5012 6.81865L14.8233 9.10872L16.3182 8.24501L14.9925 5.94466C17.7442 4.49541 20.8454 3.63727 24.1345 3.50662V6.14734H25.8619V3.50934C29.153 3.63998 32.2557 4.49817 35.0073 5.94738L33.6782 8.24773L35.1731 9.11144L36.4987 6.82137C39.1906 8.5295 41.4771 10.816 43.1853 13.5115L40.8952 14.8336L41.7589 16.3285L44.0628 14.9993C45.512 17.7546 46.3702 20.8556 46.5008 24.1448H43.8566V25.8722H46.5008C46.3702 29.1598 45.512 32.266 44.0593 35.0176L41.7589 33.6885L40.8952 35.1869L43.1853 36.509C41.4788 39.1997 39.1921 41.4862 36.4987 43.1964Z" fill="#3E0B3D"/>
<path d="M29.2187 25.0074C29.2187 23.1336 27.9898 21.5648 26.2994 21.0127V9.31458H23.7064V21.0178C22.016 21.5659 20.7871 23.1348 20.7871 25.0089C20.7871 27.3396 22.6735 29.2275 25.0022 29.2275C25.6951 29.2275 26.3385 29.0442 26.913 28.7514L34.6872 36.5256L36.5189 34.6939L28.7447 26.9162C29.0355 26.3397 29.2189 25.6999 29.2189 25.007L29.2187 25.0074Z" fill="#3E0B3D"/>
</svg>
