<svg width="15" height="15" viewBox="0 0 15 15" fill="none" xmlns="http://www.w3.org/2000/svg">
<path fill-rule="evenodd" clip-rule="evenodd" d="M0 7.43571C0 3.33566 3.33566 0 7.43571 0C11.5358 0 14.8714 3.33566 14.8714 7.43571C14.8714 11.5358 11.5358 14.8714 7.43571 14.8714C3.33566 14.8714 0 11.5358 0 7.43571ZM1.58204 7.43571C1.58204 10.6635 4.20811 13.2892 7.43571 13.2892C10.6633 13.2892 13.2894 10.6635 13.2894 7.43571C13.2894 4.20796 10.6633 1.58219 7.43571 1.58219C4.20811 1.58219 1.58204 4.20796 1.58204 7.43571Z" fill="#9E839E"/>
<path d="M11.3103 7.20627H7.96863V3.18842C7.96863 2.8503 7.6945 2.57617 7.35639 2.57617C7.01827 2.57617 6.74414 2.8503 6.74414 3.18842V7.81852C6.74414 8.15663 7.01827 8.43076 7.35639 8.43076H11.3103C11.6484 8.43076 11.9225 8.15663 11.9225 7.81852C11.9225 7.48041 11.6484 7.20627 11.3103 7.20627Z" fill="#9E839E"/>
</svg>
