<svg width="18" height="16" viewBox="0 0 18 16" fill="none" xmlns="http://www.w3.org/2000/svg">
<path fill-rule="evenodd" clip-rule="evenodd" d="M10.6172 3.96535V9.24045H9.49219V0.800293H0V13.4605H2.10938C2.10938 14.6241 3.05557 15.5706 4.21875 15.5706C5.38193 15.5706 6.32812 14.6241 6.32812 13.4605H11.6719C11.6719 14.6241 12.6181 15.5706 13.7812 15.5706C14.9444 15.5706 15.8906 14.6241 15.8906 13.4605H18V6.47844L16.7439 3.96535H10.6172ZM12.7266 5.02051V7.13055H11.6719V5.02051H12.7266ZM8.44049 2.3418L5.95703 5.02138H8.44049V2.3418ZM7.44928 6.07568L5.27344 8.42338V6.07568H7.44928ZM1.73828 5.02138H4.22174V2.3418L1.73828 5.02138ZM1.05469 6.07568H3.23053L1.05469 8.42338V6.07568ZM4.22174 9.24111V6.56152L1.73828 9.24111H4.22174ZM8.44049 6.56152V9.24111H5.95703L8.44049 6.56152ZM5.27344 4.20316L7.44928 1.85547H5.27344V4.20316ZM3.23053 1.85547L1.05469 4.20316V1.85547H3.23053ZM3.16406 13.4613C3.16406 14.043 3.63716 14.5163 4.21875 14.5163C4.80034 14.5163 5.27344 14.043 5.27344 13.4613C5.27344 12.8795 4.80034 12.4062 4.21875 12.4062C3.63716 12.4062 3.16406 12.8795 3.16406 13.4613ZM6.0444 12.4059C5.67897 11.7759 4.99782 11.3509 4.21875 11.3509C3.43968 11.3509 2.75853 11.7759 2.3931 12.4059H1.05469V10.2959H10.6172V12.4059H6.0444ZM12.7266 13.4613C12.7266 14.043 13.1997 14.5163 13.7812 14.5163C14.3628 14.5163 14.8359 14.043 14.8359 13.4613C14.8359 12.8795 14.3628 12.4062 13.7812 12.4062C13.1997 12.4062 12.7266 12.8795 12.7266 13.4613ZM15.6069 12.4061C15.2415 11.7761 14.5603 11.3511 13.7812 11.3511C13.0022 11.3511 12.321 11.7761 11.9556 12.4061H11.6719V8.18604H13.0354L14.0901 9.24105H16.9453V10.2961H15.8906V11.3511H16.9453V12.4061H15.6069ZM14.5271 8.18556H16.9453V6.7275L16.0921 5.02051H13.7812V7.4395L14.5271 8.18556Z" fill="#3E0B3D"/>
</svg>
