<svg width="20" height="18" viewBox="0 0 20 18" fill="none" xmlns="http://www.w3.org/2000/svg">
<path d="M18.5057 1.80161C17.4903 0.639815 16.0827 0 14.5423 0C12.8228 0 11.3324 0.827688 10.232 2.39351C10.1495 2.51091 10.0723 2.62831 10 2.74452C9.92772 2.62824 9.85056 2.51091 9.76802 2.39351C8.6676 0.827688 7.17716 0 5.45773 0C3.91728 0 2.50968 0.639815 1.49429 1.80155C0.530737 2.90406 0 4.37796 0 5.95174C0 7.66199 0.651914 9.24012 2.0514 10.9184C3.27251 12.3826 5.02405 13.8876 7.05226 15.6304C7.80172 16.2744 8.57677 16.9403 9.40034 17.667C9.57237 17.8188 9.78615 17.8947 9.99994 17.8947C10.2137 17.8947 10.4274 17.8188 10.5995 17.667C11.423 16.9405 12.1979 16.2746 12.9474 15.6307C14.2499 14.5114 15.3748 13.5448 16.351 12.6072C18.2463 10.7868 20 8.72056 20 5.9518C20 4.37796 19.4693 2.90412 18.5057 1.80161Z" fill="#A96D8E"/>
</svg>
