<svg width="21" height="18" viewBox="0 0 21 18" fill="none" xmlns="http://www.w3.org/2000/svg">
<path d="M19.1136 1.80161C18.0982 0.639815 16.6906 0 15.1502 0C13.4308 0 11.9403 0.827688 10.8399 2.39351C10.7574 2.51091 10.6803 2.62831 10.6079 2.74452C10.5356 2.62824 10.4585 2.51091 10.3759 2.39351C9.27551 0.827688 7.78507 0 6.06564 0C4.52519 0 3.11759 0.639815 2.1022 1.80155C1.13865 2.90406 0.60791 4.37796 0.60791 5.95174C0.60791 7.66199 1.25982 9.24012 2.65931 10.9184C3.88042 12.3826 5.63196 13.8876 7.66017 15.6304C8.40963 16.2744 9.18468 16.9403 10.0083 17.667C10.1803 17.8188 10.3941 17.8947 10.6078 17.8947C10.8216 17.8947 11.0354 17.8188 11.2074 17.667C12.0309 16.9405 12.8058 16.2746 13.5553 15.6307C14.8578 14.5114 15.9827 13.5448 16.9589 12.6072C18.8542 10.7868 20.6079 8.72056 20.6079 5.9518C20.6079 4.37796 20.0772 2.90412 19.1136 1.80161ZM15.7024 11.2514C14.7632 12.1536 13.6561 13.1047 12.3743 14.2061C11.8041 14.696 11.2193 15.1986 10.6079 15.7323C9.99641 15.1986 9.4114 14.696 8.84117 14.2059C4.8488 10.7754 2.43893 8.70477 2.43893 5.9518C2.43881 3.62143 3.99794 1.86413 6.06557 1.86413C7.17021 1.86413 8.10965 2.39351 8.85777 3.43754C9.47178 4.29431 9.72384 5.18253 9.72555 5.1885C9.83543 5.59227 10.1963 5.87181 10.6078 5.87181C11.0194 5.87181 11.3803 5.59227 11.4902 5.1885C11.4992 5.15525 12.426 1.86413 15.1502 1.86413C17.2178 1.86413 18.7769 3.62149 18.7769 5.9518C18.7769 7.6403 17.9149 9.12614 15.7024 11.2514Z" fill="#3E0B3D"/>
</svg>
