<svg width="14" height="16" viewBox="0 0 14 16" fill="none" xmlns="http://www.w3.org/2000/svg">
<path d="M9.86223 5.67222L8.68653 5.62915L8.43164 12.5815L9.60734 12.6244L9.86223 5.67222Z" fill="#A96D8E"/>
<path d="M7.58662 5.64868H6.41016V12.601H7.58662V5.64868Z" fill="#A96D8E"/>
<path d="M5.56926 12.5815L5.31437 5.62915L4.13867 5.67225L4.39359 12.6246L5.56926 12.5815Z" fill="#A96D8E"/>
<path d="M0 2.75061V3.92564H1.22589L2.19841 14.9638C2.22508 15.2672 2.47941 15.4998 2.78429 15.4998H11.1959C11.5008 15.4998 11.7553 15.267 11.7818 14.9636L12.7543 3.92564H14V2.75061H0ZM10.6571 14.3248H3.32295L2.40687 3.92564H11.5734L10.6571 14.3248Z" fill="#A96D8E"/>
<path d="M8.92313 0.500244H5.07999C4.5394 0.500244 4.09961 0.939503 4.09961 1.47944V3.33993H5.27607V1.67527H8.72706V3.33993H9.90351V1.47944C9.90351 0.939503 9.46372 0.500244 8.92313 0.500244Z" fill="#A96D8E"/>
</svg>
