<svg width="24" height="21" viewBox="0 0 24 21" fill="none" xmlns="http://www.w3.org/2000/svg">
<path fill-rule="evenodd" clip-rule="evenodd" d="M8.91088 10.5961C8.74828 11.061 8.50914 11.3083 8.32101 11.7007C7.90185 12.8268 9.24146 12.9261 9.9456 12.8415C9.82606 12.9651 9.72789 12.9181 9.36919 13.289C8.60465 14.1289 9.70925 14.7187 10.2253 15.0265C10.6687 15.3596 10.8475 15.8676 11.3124 16.0302C12.6561 16.3728 12.8724 13.2796 12.3308 12.8992C12.2879 13.2406 12.4411 13.6759 12.308 14.4566C12.2528 14.0683 12.2837 12.9973 12.0365 12.7581C11.9895 12.8562 11.8525 13.3938 11.6388 13.7135C11.8014 13.2486 11.7248 13.0309 11.6993 12.9584C11.3109 13.0135 10.8836 13.6531 10.7251 14.3613C10.7641 13.7767 11.0462 13.1882 11.5971 12.6681C11.0636 12.7743 10.6538 13 10.5087 13.0511C10.7949 12.7057 11.2048 12.4799 11.6657 12.3993C11.2988 12.2837 11.0811 12.3603 10.7183 12.488C10.983 12.3133 11.2222 12.066 11.5339 11.7933C11.3889 11.8443 10.7868 12.2192 10.3004 12.2273C10.7357 12.0742 11.2437 11.8954 11.4103 11.6737C10.6041 11.4682 10.3864 11.5448 9.50353 11.1216C10.3097 11.3271 10.506 11.4212 11.3082 11.3836L10.6686 10.9562C10.9119 10.9522 11.3768 11.1148 11.573 11.2089C11.6414 10.9401 10.678 10.056 10.5288 9.86384C11.0192 10.099 11.714 10.9146 11.7866 10.889C11.8981 10.2789 10.5086 8.64765 9.51824 9.07783C8.77107 9.50379 9.02245 9.98619 8.91097 10.5963L8.91088 10.5961Z" fill="#3E0B3D"/>
<path fill-rule="evenodd" clip-rule="evenodd" d="M16.3046 9.13563C15.3787 9.05373 13.9611 10.1233 13.7812 11.0022C13.8537 10.9767 14.4262 10.286 14.789 10.1584C14.6223 10.38 14.2381 10.6784 14.05 11.0708C14.2932 11.0667 15.5052 10.8034 16.3585 10.9108C15.4837 10.974 14.4383 11.0157 14.054 11.314L15.2741 11.5371C14.9839 11.6392 14.4975 11.6473 13.9854 11.5828C14.1856 11.9201 15.2137 12.2922 15.3373 12.4119C14.7017 12.2279 14.2838 11.9672 14.0151 11.8986C14.0661 12.0437 14.2153 12.2359 14.3133 12.2829C14.2408 12.3084 13.8995 12.2655 13.8525 12.3635C14.1212 12.432 15.0767 12.8298 15.1747 12.8768C14.6628 12.8123 14.1212 12.4321 13.6133 12.6109C13.6643 12.7559 14.0353 13.1147 14.355 13.3284C14.257 13.2814 13.6683 12.9992 13.4722 12.9052C13.651 13.4132 14.2436 13.9386 14.5419 14.3228C14.0515 14.0877 13.5784 13.4387 13.2546 12.9818C13.1646 13.4212 13.3218 14.0998 13.428 14.6333C13.2023 14.2235 13.0624 13.1309 12.9858 12.9133C12.7507 13.4038 12.7628 14.1334 12.8435 14.5944C13.2386 16.4125 13.9858 15.9864 14.968 15.0699C15.3267 14.699 16.4959 14.7769 16.5308 13.9491C16.4971 13.3901 15.9341 13.1805 15.7594 12.9158C15.9045 12.8647 16.1988 13.0058 16.4165 12.9292C16.8049 12.8741 17.1126 12.3581 17.13 11.9442C17.169 11.3596 16.657 11.2953 16.833 10.1732C16.8976 9.66129 16.7698 9.29839 16.305 9.13589L16.3046 9.13563Z" fill="#3E0B3D"/>
<path fill-rule="evenodd" clip-rule="evenodd" d="M12.3862 10.514C12.3351 10.3689 11.9858 9.83948 11.9562 9.52371C12.0798 9.64326 12.284 10.2238 12.4548 10.2453C12.5408 9.56267 12.4601 9.10183 12.7893 8.41509C12.8149 8.48763 12.5193 9.73327 12.745 10.1432L13.0743 9.45644C13.0783 9.69968 12.9413 10.2371 12.9454 10.4804C13.1415 10.5744 13.855 9.58942 14.0687 9.26968C13.8591 9.83266 13.2612 10.4509 13.2141 10.549C13.9437 10.5369 14.8239 9.33013 14.9354 8.72013C14.9448 7.81977 14.5779 7.70431 13.7502 7.66937C12.948 7.70699 12.3514 6.93846 11.7238 7.24083C11.0963 7.54316 11.2105 8.56307 11.3893 9.07105C11.5936 9.65155 11.8918 10.0358 12.3864 10.5142L12.3862 10.514Z" fill="#3E0B3D"/>
<path fill-rule="evenodd" clip-rule="evenodd" d="M13.9384 5.64562C14.5686 6.97318 14.6628 6.77704 15.2043 7.15733C14.4491 7.09687 13.9505 6.37538 13.9384 5.64562ZM15.1383 4.65251C15.876 5.12678 16.4337 6.4799 15.567 7.02956C15.7981 6.29587 15.6489 6.10367 15.4957 5.66833C15.6919 5.76235 15.7215 6.07812 15.8451 6.19778C15.8625 5.78394 15.7859 5.56623 15.7093 5.34851C15.5601 5.15633 15.3854 4.89159 15.1381 4.65244L15.1383 4.65251ZM15.1342 4.40927C14.2217 3.67025 13.4451 3.7805 13.5889 5.11609C13.7287 6.20852 14.2904 7.80487 15.6181 7.17462C16.9457 6.54442 15.9955 5.00309 15.1342 4.40926L15.1342 4.40927Z" fill="#3E0B3D"/>
<path fill-rule="evenodd" clip-rule="evenodd" d="M16.8593 8.85893C18.0081 7.72077 19.4459 7.86717 20.0009 7.59036C20.9187 7.18588 19.8436 6.91181 19.4042 6.82174C18.2096 6.67123 16.9626 7.76244 16.8593 8.85891L16.8593 8.85893Z" fill="#3E0B3D"/>
<path fill-rule="evenodd" clip-rule="evenodd" d="M12.5106 12.0197C12.0672 11.6865 12.52 11.1193 13.0105 11.3546C13.1341 11.4741 13.2362 11.7644 13.0697 11.9861C12.9501 12.1097 12.7324 12.1863 12.5107 12.0198L12.5106 12.0197ZM11.7729 11.5454C11.7299 11.8867 11.8321 12.177 12.0068 12.4417C12.5268 12.9926 13.3505 12.7843 13.6797 12.0977C13.9873 11.5817 13.587 10.9072 12.9513 10.723C12.4138 10.586 11.8374 11.0335 11.7729 11.5454L11.7729 11.5454Z" fill="#3E0B3D"/>
<path fill-rule="evenodd" clip-rule="evenodd" d="M17.3609 3.78908C16.9027 5.49964 17.0855 6.25085 15.0901 9.15479C15.6195 8.80544 15.9353 8.77584 16.1529 8.69926C17.0249 7.00609 17.338 5.34658 17.3607 3.78909L17.3609 3.78908Z" fill="#3E0B3D"/>
<path fill-rule="evenodd" clip-rule="evenodd" d="M17.2589 10.9193C18.3822 9.70859 19.8456 9.92755 20.4005 9.65074C21.3183 9.24626 20.2177 8.89964 19.8039 8.88212C18.5838 8.65908 17.3368 9.75029 17.2589 10.9193L17.2589 10.9193Z" fill="#3E0B3D"/>
<path fill-rule="evenodd" clip-rule="evenodd" d="M18.8782 4.15174C17.6956 4.7309 17.8919 4.825 17.6567 5.31547C17.5975 4.68392 18.221 4.13828 18.8782 4.15174ZM19.7947 5.13399C19.4399 5.74807 18.2575 6.32733 17.7845 5.67833C18.4672 5.76432 18.5867 5.64071 18.9239 5.44041C18.8299 5.63653 18.6122 5.71315 18.4926 5.83688C18.8084 5.80727 19.0261 5.73066 19.2182 5.58155C19.4359 5.50493 19.6024 5.28329 19.7946 5.13403L19.7947 5.13399ZM20.0124 5.05738C20.5337 4.22154 20.4491 3.51739 19.237 3.78091C18.3152 3.94226 16.9876 4.57246 17.6139 5.65686C18.2657 6.81381 19.5637 5.8678 20.0124 5.0575L20.0124 5.05738Z" fill="#3E0B3D"/>
<path fill-rule="evenodd" clip-rule="evenodd" d="M16.8648 1.67984C16.5947 2.99802 16.7869 2.84885 16.9912 3.42936C16.4966 2.951 16.4846 2.22132 16.8648 1.67984ZM18.226 1.60855C18.4558 2.26158 18.1602 3.50723 17.3325 3.47229C17.9089 3.02478 17.8579 2.8797 17.9479 2.44029C18.0246 2.658 17.8579 2.87969 17.909 3.02488C18.1482 2.77766 18.2422 2.58143 18.2382 2.33814C18.2341 2.0949 18.2301 1.85177 18.2261 1.6085L18.226 1.60855ZM18.32 1.41242C17.9625 0.3966 17.374 0.114336 16.8311 1.12093C16.4079 2.00376 16.0182 3.44569 17.311 3.64316C18.6036 3.84067 18.6264 2.2832 18.32 1.41254L18.32 1.41242Z" fill="#3E0B3D"/>
<path fill-rule="evenodd" clip-rule="evenodd" d="M10.8029 8.78761C9.54505 7.76241 8.11531 8.10237 7.55233 7.89276C6.62247 7.56759 7.6128 7.13759 8.07364 7.05693C9.18754 6.74647 10.5904 7.7206 10.8029 8.78761Z" fill="#3E0B3D"/>
<path fill-rule="evenodd" clip-rule="evenodd" d="M7.39173 13.006C7.05041 12.9631 6.90127 12.7709 6.60694 12.6298C5.74963 12.2791 5.69327 13.2775 5.70127 13.7639C5.67574 13.6914 5.65021 13.6189 5.403 13.3797C4.78488 12.7818 4.33613 13.5921 4.12244 13.9118C3.90879 14.2317 3.47347 14.3849 3.43043 14.7262C3.13082 15.7287 5.39632 15.91 5.68264 15.5647C5.41388 15.4962 5.12361 15.5983 4.51363 15.4868C4.82943 15.4572 5.5846 15.5177 5.77679 15.3685C5.6532 15.249 5.31185 15.2059 5.06453 14.9668C5.45694 15.1549 5.60199 15.1039 5.67465 15.0783C5.57251 14.788 5.12906 14.4548 4.5916 14.3178C5.03101 14.4078 5.42339 14.596 5.81984 15.0272C5.83725 14.6133 5.56451 14.3016 5.61148 14.2034C5.83317 14.3701 5.96084 14.7329 5.99044 15.0487C6.13155 14.7544 6.08049 14.6093 6.00388 14.3916C6.08049 14.6093 6.30214 14.7758 6.4514 14.968C6.49841 14.8699 6.17458 14.413 6.21751 14.0717C6.24712 14.3875 6.44731 14.7247 6.57094 14.8444C6.78054 14.2814 6.65693 14.1617 7.01169 13.5477C6.87461 14.0851 6.75513 14.2088 6.81418 14.8403L7.04931 14.3499C7.10036 14.4949 6.98478 14.8618 6.8908 15.058C7.13404 15.054 7.77895 14.3378 7.89862 14.2142C7.71049 14.6066 7.1596 15.1266 7.08707 15.1521C7.599 15.2167 8.79899 14.2235 8.47112 13.5235C8.1943 12.9685 7.83152 13.0962 7.39201 13.0062L7.39173 13.006Z" fill="#3E0B3D"/>
<path fill-rule="evenodd" clip-rule="evenodd" d="M8.33553 18.4634C8.44703 17.8533 7.65015 16.7474 7.04008 16.636C7.06561 16.7086 7.53462 17.1144 7.63677 17.4046C7.48762 17.2125 7.31294 16.9477 7.01865 16.8067C6.99716 16.9773 7.23104 17.8736 7.11955 18.4837C7.06035 17.8522 7.04825 17.1225 6.77552 16.8108L6.59554 17.6895C6.54448 17.5445 6.56185 17.1305 6.67744 16.7637C6.38717 16.8658 6.0835 17.6251 6.03647 17.7231C6.12652 17.2837 6.34017 16.9639 6.43416 16.7677C6.26357 16.7462 6.16942 16.9424 6.0969 16.9679C6.07137 16.8954 6.16536 16.6992 6.06729 16.6521C5.97327 16.8483 5.71659 17.5095 5.66959 17.6075C5.71252 17.2662 5.97329 16.8483 5.84563 16.4855C5.77309 16.511 5.46136 16.7837 5.29474 17.0055C5.34175 16.9075 5.60239 16.4896 5.64953 16.3915C5.26121 16.4466 4.85538 16.9156 4.61619 17.1628C4.80431 16.7704 5.26122 16.4466 5.57292 16.1738C5.30415 16.1053 4.77072 16.2114 4.40793 16.339C4.7452 16.1388 5.44928 16.0541 5.61999 16.0756C5.30013 15.8619 4.71565 15.8229 4.42541 15.925C3.11524 16.1414 3.39207 16.6964 4.06128 17.4395C4.33402 17.7512 4.22656 18.6045 4.85816 18.5454C5.27201 18.5628 5.38762 18.196 5.65232 18.0212C5.63083 18.1918 5.58386 18.29 5.58779 18.5332C5.68993 18.8234 6.00978 19.0371 6.25291 19.033C6.76484 19.0975 6.78236 18.6837 7.66114 18.8637C8.00246 18.9066 8.22017 18.83 8.33567 18.4633L8.33553 18.4634Z" fill="#3E0B3D"/>
<path fill-rule="evenodd" clip-rule="evenodd" d="M7.41127 15.6075C7.55634 15.5565 7.94072 15.2582 8.11132 15.2797C8.06431 15.3777 7.62887 15.531 7.58187 15.629C8.0938 15.6935 8.48223 15.6384 8.97268 15.8735C8.8276 15.9245 7.92315 15.6719 7.65848 15.8467L8.14894 16.0819C8.00387 16.1329 7.61148 15.9448 7.46629 15.9959C7.34674 16.1195 8.03745 16.6919 8.25908 16.8585C7.86667 16.6704 7.39768 16.2646 7.37215 16.192C7.40583 16.751 8.2926 17.4174 8.65948 17.533C9.31659 17.5464 9.45769 17.2521 9.47102 16.595C9.43734 16.036 10.0139 15.5886 9.78805 15.1787C9.60929 14.6707 8.90522 14.7555 8.46987 14.9087C8.03455 15.0619 7.76981 15.2365 7.41101 15.6075L7.41127 15.6075Z" fill="#3E0B3D"/>
<path fill-rule="evenodd" clip-rule="evenodd" d="M6.29399 15.6751C6.50764 15.3552 6.95111 15.6885 6.73744 16.0083C6.69043 16.1063 6.4727 16.1829 6.34912 16.0634C6.25106 16.0164 6.17444 15.7987 6.29399 15.6751L6.29399 15.6751ZM6.6743 15.1335C6.40553 15.0651 6.18793 15.1417 5.99574 15.2908C5.63704 15.6617 5.76866 16.2678 6.25923 16.5029C6.67716 16.7635 7.15959 16.5122 7.224 16.0003C7.33957 15.6335 7.01564 15.1766 6.67434 15.1336L6.6743 15.1335Z" fill="#3E0B3D"/>
</svg>
