<svg width="11" height="15" viewBox="0 0 11 15" fill="none" xmlns="http://www.w3.org/2000/svg">
<path fill-rule="evenodd" clip-rule="evenodd" d="M5.16007 0.134521C3.79335 0.135312 2.4827 0.677972 1.51545 1.64354C0.548189 2.60911 0.00324136 3.91881 6.50267e-05 5.28552C-0.0036266 6.00983 0.149906 6.72632 0.450065 7.38552C1.66568 9.7792 3.17389 12.0126 4.94007 14.0345C4.96745 14.0651 5.00098 14.0896 5.03846 14.1063C5.07593 14.123 5.11652 14.1317 5.15757 14.1317C5.19861 14.1317 5.2392 14.123 5.27668 14.1063C5.31415 14.0896 5.34768 14.0651 5.37507 14.0345C7.14055 12.0141 8.64841 9.7824 9.86407 7.39052C10.164 6.73123 10.3175 6.0148 10.3141 5.29052C10.3122 3.92398 9.76867 2.61391 8.80257 1.64743C7.83647 0.68095 6.52661 0.136902 5.16007 0.134521ZM5.16007 7.96152C4.63049 7.96113 4.11292 7.80373 3.67279 7.50923C3.23266 7.21472 2.88973 6.79634 2.68734 6.30696C2.48496 5.81759 2.43221 5.27919 2.53577 4.75984C2.63932 4.2405 2.89454 3.76351 3.26914 3.38918C3.64374 3.01486 4.12092 2.76 4.64035 2.65683C5.15977 2.55366 5.69813 2.60681 6.18735 2.80956C6.67658 3.01231 7.09471 3.35556 7.38888 3.79591C7.68305 4.23626 7.84007 4.75395 7.84007 5.28352C7.83901 5.99379 7.55625 6.67464 7.05382 7.17669C6.5514 7.67874 5.87034 7.96099 5.16007 7.96152Z" fill="#A96D8E"/>
</svg>
