<svg width="87" height="80" fill="none" xmlns="http://www.w3.org/2000/svg">
<path d="M49.5925 72.8765C48.9729 70.84 46.8385 67.8346 49.8679 65.8968M49.6807 69.5253C50.2315 71.1584 49.901 71.345 49.5925 72.8765C47.1855 70.088 47.5545 67.4311 49.9313 65.8008L49.6807 69.5253Z" stroke="#3E0B3D" stroke-width="0.57" stroke-miterlimit="22.93"/>
<path d="M39.5707 63.2046C40.0306 63.4187 42.0493 63.781 42.8563 64.0912C44.1452 64.5852 45.6985 64.9832 47.0149 65.5431M49.8076 65.5486C47.7971 66.5257 46.0152 67.2777 45.9106 67.3326C43.5393 68.5759 41.0964 69.0508 34.8364 69.3911C38.8133 63.6767 45.211 66.3857 48.8326 65.8724L49.8076 65.5486ZM49.3036 65.7846C45.379 66.5449 40.0912 66.8468 34.8364 69.3856L49.3036 65.7846ZM49.9095 65.8176C48.6288 66.8056 48.1909 67.2064 48.0587 69.0123C47.91 71.0242 45.9739 72.8549 44.6272 74.4001C44.7952 72.9784 44.5418 71.1861 45.0761 69.7507C45.8197 67.7608 47.9155 66.3445 49.9508 65.4882L49.9095 65.8176ZM50.0004 65.6117C45.9436 67.5028 45.189 73.1294 44.6272 74.3946L50.0004 65.6117ZM48.3837 65.9218C44.9439 64.9091 43.308 65.6748 39.3531 63.2458C43.8285 62.2934 46.5908 65.4415 48.3837 65.9218Z" stroke="#3E0B3D" stroke-width="0.75" stroke-miterlimit="22.93"/>
<path fill-rule="evenodd" clip-rule="evenodd" d="M63.3051 69.0887C63.4434 68.8328 63.5999 68.587 63.7732 68.3531C63.9826 68.1308 64.2222 67.8426 64.101 67.5462L62.9415 67.3129C62.7845 67.7191 63.0654 67.5188 62.8727 67.8399C62.2723 67.6807 62.8038 67.2141 62.1786 67.247C62.2117 67.3815 62.6358 67.8975 62.7708 68.1226C62.9325 68.4533 63.1109 68.7758 63.3051 69.0887ZM62.0299 67.5682C61.9456 67.2702 61.7571 67.0122 61.4984 66.8408C61.5867 67.1368 61.7744 67.3936 62.0299 67.5682ZM64.2056 66.8793C63.8834 66.8318 63.5589 66.8007 63.2334 66.7859C63.4207 66.9067 63.955 67.0467 64.2056 66.8793ZM61.0137 66.5032L61.1541 66.5719L61.0137 66.5032ZM62.1538 66.4346C62.2778 66.6515 62.3852 66.5389 62.6551 66.602C62.9938 66.6816 62.7708 66.7283 63.2059 66.6844C62.8838 66.4964 62.5125 66.4094 62.1401 66.4346H62.1538ZM62.1538 66.4346C62.0051 66.2507 62.1346 66.3413 61.928 66.3193L62.1538 66.4346ZM56.6457 65.1693L56.5686 65.2901L56.6457 65.1693ZM56.6457 65.1693L56.7201 65.0486L56.6457 65.1693ZM60.9007 65.0348L60.9779 65.1035L60.9007 65.0348ZM60.8236 64.969L60.9007 65.0348L60.8236 64.969ZM49.1849 67.3706C49.1849 67.4831 49.1711 67.6093 49.1629 67.7521C49.1701 68.148 49.2303 68.5412 49.3419 68.9213C49.5044 69.4236 49.8927 69.3302 50.3196 69.5553C50.4683 69.3742 50.3003 69.5087 50.5179 69.4345C50.6143 69.6102 50.7162 69.9176 50.8153 70.1207C51.6801 70.4254 51.5369 70.5022 51.8509 70.6285C52.2667 70.7959 52.2006 70.6148 52.4953 70.6642C52.79 70.7136 52.7404 70.859 53.1618 70.7273L55.4422 69.8106C55.9654 69.5059 56.486 68.548 56.6429 68.0375C56.7641 67.645 57.1359 66.0421 56.9018 65.6387C56.877 65.9625 57.0037 65.9653 56.4639 66.366C56.4639 66.0915 56.6099 65.9131 56.6374 65.6359C56.1114 66.0394 56.3455 66.5115 55.4945 66.9698C55.5248 66.7173 55.847 66.4566 55.8993 66.1766C55.5578 66.2343 55.4532 66.4182 55.0897 66.4264C55.0897 65.9625 55.9159 65.8775 56.2078 65.5755C56.1114 65.0815 56.0756 65.6826 55.9599 65.0568C55.9632 65.0451 55.9632 65.0328 55.9599 65.0211L55.1337 65.6524L54.795 65.4548L55.186 65.2325C55.1417 65.0071 55.0315 64.7999 54.8693 64.6369C54.6187 64.7384 54.638 64.6506 54.4232 64.7768C54.0541 64.9909 54.503 64.7439 54.2717 65.1144L54.0459 64.8839C53.7802 65.007 53.5036 65.1054 53.2196 65.1776C52.0051 65.6112 51.7379 66.0366 51.3964 66.0806C51.2725 66.0943 51.121 66.1355 50.964 66.1602C51.0301 65.8665 51.5892 65.8253 51.8481 65.5179C51.6665 65.509 51.4852 65.5398 51.3168 65.608C51.1484 65.6763 50.997 65.7804 50.8732 65.9131C50.6143 65.6387 50.3884 65.6387 49.945 65.6387C49.3942 66.2974 49.2565 66.506 49.1987 67.0659L49.1739 67.3788L49.1849 67.3706ZM58.6204 65.1035C58.8627 65.0458 58.8021 65.0431 58.9812 64.8784C58.8875 64.8208 58.7443 64.6588 58.6094 64.7714C58.2844 65.0458 58.7388 64.7961 58.6094 65.1035H58.6204ZM55.6432 64.7027L55.7176 64.6369L55.6432 64.7027ZM61.044 70.5681C61.7352 70.5681 62.8809 70.6175 62.9718 69.5526C62.9993 69.2589 62.7377 68.7621 62.6055 68.4739C62.4265 68.0897 62.4843 67.8344 62.0189 67.5682C62.118 67.9003 62.3824 68.2159 62.1952 68.5123C62.1318 68.4684 61.1293 67.0083 60.9779 66.7969C60.6529 66.3495 60.9779 66.4182 60.383 66.0366C60.1213 65.8665 59.744 65.4877 59.4604 65.452L59.8404 65.8061C59.6559 65.9296 59.5898 65.8747 59.4025 65.8473C59.2951 66.4319 59.386 66.0339 60.1682 67.1153C60.4904 67.5627 60.876 68.15 60.6667 68.6907C60.5042 68.5316 60.1544 67.645 59.7771 67.0439C59.5815 66.7338 59.5292 66.8518 59.2263 66.6487L59.017 65.8473L59.3722 65.7265L58.9261 65.4822L58.6286 65.7018C58.3753 65.5399 58.546 65.6304 58.3835 65.4273C58.2045 65.7018 58.3064 65.6002 58.4689 65.7677C58.573 65.8632 58.6499 65.9844 58.692 66.119C58.8301 66.4066 58.9123 66.7176 58.9343 67.0357C58.3367 66.2946 58.725 66.5115 58.4193 66.0449L58.4028 66.764L57.9374 65.9049C57.8244 65.614 57.6124 65.2928 57.7501 64.9909L57.359 64.8592C57.4829 64.7878 57.4306 64.7165 58.0172 64.8811L58.2926 65.3615C58.6341 64.9305 58.1274 64.8894 58.0172 64.6945C58.0007 64.6643 58.0338 64.6945 57.9677 64.5847C57.9511 64.56 57.874 64.4667 57.852 64.442C57.4031 64.8894 56.9955 64.442 56.9349 65.2489C57.1855 65.2819 56.7366 65.2901 57.012 65.2489C57.1525 65.2215 56.9459 65.2297 57.1084 65.2297C57.4747 65.5563 58.2513 66.8628 57.9346 67.2443C57.7336 66.9698 57.8685 67 57.7418 66.7887C57.6895 67.3047 57.8272 67.8344 57.5325 68.2598C57.337 67.9854 57.7639 67.033 57.5132 66.5911C57.4224 66.7091 57.3728 67.9469 57.3755 68.1802C57.3755 68.8252 57.4306 69.0805 57.9263 69.5306C58.703 70.236 58.4606 70.0164 59.2455 70.1207C59.6339 70.1701 59.8928 70.6148 60.7162 70.6532C60.909 70.3321 60.8126 69.849 60.8512 69.4538C61.234 69.7282 61.0054 70.2223 61.0137 70.5818L61.044 70.5681ZM55.7093 64.6369L55.7837 64.5682L55.7093 64.6369ZM59.7909 63.5692L59.9423 63.6351L59.7909 63.5692ZM59.7909 63.5692L59.6504 63.5006L59.7909 63.5692ZM62.9002 63.2947C62.5288 63.3919 62.1504 63.4598 61.7683 63.4978C61.2367 63.517 60.887 63.399 60.3912 63.4457C60.7745 63.6566 61.2172 63.7348 61.6499 63.668C62.0933 63.6021 62.6303 63.6543 62.8892 63.2947H62.9002ZM63.1288 63.2288C63.1288 63.2288 63.1068 63.2288 63.1013 63.2508C63.0957 63.2728 63.2307 63.3167 63.1288 63.2288ZM54.2221 62.9544C54.1422 62.8858 53.9908 63.0395 54.1367 62.9873C54.1367 62.9873 54.3268 63.0422 54.2221 62.9544ZM56.4254 62.5701L56.2436 62.9983C56.5548 63.0285 56.6429 63.0724 56.8523 62.9352C56.8266 62.8384 56.772 62.7517 56.6958 62.6865C56.6196 62.6213 56.5253 62.5807 56.4254 62.5701ZM55.836 62.1639C55.7733 62.1928 55.7197 62.2384 55.6811 62.2956C55.6426 62.3527 55.6206 62.4194 55.6174 62.4882C55.6143 62.557 55.6302 62.6254 55.6634 62.6858C55.6966 62.7463 55.7458 62.7964 55.8057 62.8309C55.8836 62.7385 55.9288 62.6231 55.9343 62.5025C55.9398 62.3819 55.9052 62.2629 55.836 62.1639ZM53.3573 62.4192C53.2775 62.3533 53.126 62.507 53.2747 62.4548C53.2747 62.4548 53.462 62.5097 53.3573 62.4192ZM59.9286 63.6186C60.2728 63.8931 61.0632 63.9754 61.1486 64.4145C60.8429 64.2883 60.4739 64.1264 60.1571 64.0275C59.7468 63.8985 59.375 63.6378 59.0142 63.8135C59.1739 64.1401 59.1795 63.8656 59.7633 64.2444C59.9423 64.3624 60.2783 64.6314 60.4656 64.7768C60.6006 64.7768 60.562 64.6369 60.9503 64.8153C62.1897 65.3834 61.6223 65.1309 63.0765 65.2297C62.958 65.957 61.5149 65.205 60.9558 65.087L61.4819 65.4328L61.5011 65.6195C61.018 65.4718 60.5758 65.2144 60.2095 64.8674C60.0091 64.6958 59.7634 64.5853 59.5017 64.549C59.017 64.4338 59.3061 64.2279 58.7278 64.2197C58.9729 64.6286 60.7272 65.839 61.2064 65.9516C61.0577 65.7622 61.0109 65.8335 61.0219 65.6771C61.2813 65.7152 61.5293 65.8089 61.749 65.9516C62.2337 66.1821 63.8311 66.6679 64.5031 66.5828C65.1282 66.506 65.4284 66.1108 65.9848 65.8253C66.1067 65.7831 66.2186 65.7162 66.3134 65.6288C66.4082 65.5414 66.4839 65.4354 66.5356 65.3175C66.7394 64.7302 66.3951 65.1391 66.8771 64.5655C66.6898 64.0028 66.7118 64.2663 66.9349 63.7037C67.1084 63.2645 67.125 63.1849 66.9349 62.7375H66.8495C66.808 62.7342 66.7672 62.7249 66.7284 62.7101C66.5191 62.6442 66.8468 62.6744 66.453 62.6278C65.5992 62.5262 65.2081 63.1767 64.7206 63.2947C64.7812 62.5097 65.9572 62.1667 66.6485 62.4878V62.1776L65.9517 61.8291C65.8542 61.9098 65.7501 61.9823 65.6405 62.0459C64.985 62.3204 64.9823 62.754 64.6298 62.6333C64.6766 62.9214 64.7675 62.7321 64.5995 62.9434C64.1864 62.8858 64.5471 62.7101 64.2772 62.8089C63.944 62.9324 64.4039 62.916 64.0018 63.1438C63.608 63.034 64.258 62.7787 63.3106 63.1438C63.3326 63.3908 63.3794 63.023 63.407 63.4182C62.0657 63.8958 63.2307 63.5966 61.8013 63.8025C61.4588 63.8449 61.1129 63.8541 60.7685 63.8299C60.394 63.808 60.2728 63.657 59.9258 63.6296L59.9286 63.6186ZM57.2185 62.7403C57.4334 62.4658 57.158 61.9553 56.7669 62.1474C56.8853 62.3917 56.822 62.2023 57.0037 62.4219C57.0864 62.5262 57.1442 62.6497 57.2185 62.7375V62.7403ZM56.3097 61.9416C56.2491 62.0404 56.1775 61.9251 56.2904 62.142C56.4254 61.9773 56.4419 62.1035 56.3097 61.9416ZM46.9459 62.26C46.4529 62.3313 46.5217 62.0212 45.9599 62.2819C46.0756 63.9452 48.0062 65.0815 49.1436 65.2379C49.6751 65.3121 50.5675 65.5124 51.0715 65.4685L51.1348 65.2325C51.8059 65.1885 52.4614 65.0112 53.0627 64.711C53.2287 64.6976 53.3919 64.6606 53.5474 64.6012C53.8834 64.4557 53.6878 64.4832 53.7677 64.3706C53.9082 64.1675 54.3681 64.1373 54.5939 64.0028C54.4755 63.7888 54.6187 63.9507 54.302 63.8464C54.4865 63.5719 54.4177 63.7394 54.3516 63.5719C54.3014 63.446 54.2681 63.314 54.2524 63.1794L53.9384 63.3277C53.6919 63.5868 53.4021 63.8013 53.0819 63.9617L52.9305 63.7833C53.2059 63.6158 53.3739 63.7339 53.5722 63.3771C52.7597 63.2892 52.443 63.5637 51.8564 63.3524C50.6336 62.9132 50.08 62.4411 49.0775 61.7522C48.367 61.2637 48.4909 61.3213 47.9594 60.7092C47.0009 60.6296 45.9379 61.5326 45.9792 61.8593C46.3069 62.0871 46.8054 61.8071 46.9376 62.2682L46.9459 62.26ZM59.7165 61.486C59.7165 61.486 59.6945 61.486 59.6917 61.5107C59.689 61.5354 59.8212 61.5766 59.7165 61.486ZM60.1737 61.486C59.9307 61.5704 59.695 61.6742 59.4686 61.7961C59.1886 61.8533 58.9126 61.9284 58.6424 62.0212C58.9839 62.2517 59.0335 62.0541 59.4686 61.9279C59.6108 61.9094 59.7473 61.8603 59.8686 61.784C59.9899 61.7077 60.093 61.606 60.1709 61.486H60.1737ZM60.6281 61.486L60.7025 61.4201L60.6281 61.486ZM60.7025 61.4201L60.7768 61.3542L60.7025 61.4201ZM58.188 61.2197C58.188 61.2197 58.166 61.2197 58.1632 61.2444C58.1604 61.2692 58.2926 61.3103 58.188 61.2197ZM65.8746 61.3542C66.0674 61.2307 66.0701 61.2829 65.9627 61.0935L65.8746 61.3542ZM57.5738 60.9425C57.5105 61.0413 57.4389 60.9261 57.5518 61.1429C57.6867 60.9782 57.706 61.1045 57.5738 60.9425ZM54.8363 61.217L54.5306 60.7532C54.2111 60.9892 54.6297 61.1923 54.8363 61.217ZM57.0395 60.701C57.0395 60.701 57.0175 60.701 57.012 60.723C57.0065 60.7449 57.1442 60.7888 57.0395 60.701ZM54.4369 60.034L54.5471 60.4952C54.6903 60.3387 54.5471 60.1713 54.4369 60.034ZM54.28 60.4238C54.2552 60.3113 54.28 60.292 54.1781 60.2015C54.0762 60.1109 54.2304 60.0835 53.9026 60.185C54.0431 60.3579 54.0651 60.3881 54.2689 60.4238H54.28ZM54.4369 60.034L54.3984 59.809C54.2139 59.809 54.3268 59.7541 54.1422 59.9243L54.4369 60.034ZM56.0205 59.5675C56.0205 59.5675 55.9985 59.5675 55.9957 59.5922C55.993 59.6169 56.1252 59.658 56.0205 59.5675ZM55.8608 59.2354C55.8608 59.2354 55.8388 59.2353 55.8333 59.2573C55.8277 59.2793 55.9654 59.3232 55.8608 59.2354ZM54.3268 58.6864C54.408 59.064 54.5289 59.432 54.6876 59.7843C54.8253 60.1795 54.9051 59.9984 55.1833 60.432L55.3458 60.6598C55.5606 60.3854 55.2714 60.5775 54.8941 59.7349C54.7475 59.3607 54.5571 59.0051 54.3268 58.6754V58.6864ZM61.2725 56.7651L61.3469 56.6993L61.2725 56.7651ZM64.4618 56.4742C64.3237 56.3087 64.1344 56.1935 63.9235 56.1468C63.7127 56.1001 63.4922 56.1245 63.2968 56.2162C62.779 56.5747 62.3113 57.0002 61.906 57.4815C62.5174 57.4047 62.9277 56.2656 63.8338 56.3095C63.787 56.4577 63.7567 56.4468 63.5584 56.584C63.4483 56.6554 63.3106 56.7267 63.2004 56.8008C61.8234 57.7066 62.1346 58.0469 61.6443 58.5958C61.3276 58.5684 61.8013 58.6151 61.5039 58.5135C61.267 58.4312 61.57 58.5876 61.3056 58.5135C61.4047 58.1677 61.5287 58.1457 61.6691 57.896C61.8371 57.5913 61.4626 57.6572 61.8316 57.2564C62.107 56.9655 62.611 56.5401 62.7763 56.2409C61.6196 56.2409 61.6746 56.5346 61.1459 57.1686C61.1321 56.9326 61.1459 56.993 61.267 56.7734C60.5097 56.9518 59.5926 58.6233 59.5375 58.6782C59.2814 58.9307 59.5182 58.4037 58.8077 59.6196C58.5555 59.9834 58.3423 60.3726 58.1715 60.7806C58.3739 60.8644 58.5533 60.9952 58.6947 61.1621L59.1381 60.7669C59.207 61.2225 58.9949 61.3378 58.6644 61.5519C58.9123 61.7056 58.893 61.5985 59.1216 61.3899C59.3695 61.4448 59.218 61.5464 59.543 61.3652C60.7135 60.712 60.2122 60.7998 60.7355 60.4403C60.7851 60.8794 60.54 60.9343 60.3169 61.239C60.6914 61.2088 60.5455 61.1045 60.909 61.0496L60.7768 61.3734C61.1459 61.6177 59.6752 62.26 58.849 62.3176C58.849 62.3643 59.0528 62.8144 59.0775 62.8501C59.22 62.7852 59.373 62.7462 59.5292 62.7348C59.6921 62.7796 59.8513 62.8365 60.0057 62.905L59.7 63.0724C59.9589 63.4127 60.0635 63.2179 60.3637 63.2151C60.713 63.2412 61.0637 63.2412 61.413 63.2151C61.5695 63.1756 61.7318 63.1645 61.8922 63.1822C62.443 63.2288 62.3191 63.1822 63.2059 62.9242C63.978 62.7354 64.6937 62.3656 65.2935 61.8455C65.5359 61.6122 65.803 61.6561 65.8856 61.3762L65.7562 61.4393L65.7314 61.3076L65.5606 61.357C65.1668 60.3826 66.833 59.9846 66.6402 59.1365C66.4612 58.3488 66.3208 58.5492 66.1059 58.4476C66.0867 58.1896 65.9958 58.2006 66.0371 57.9261C66.0619 57.756 66.1445 57.6517 66.1693 57.4376L65.8608 57.2372C65.4398 57.2608 65.0303 57.383 64.6656 57.594C64.4205 57.7752 64.1148 58.1759 63.9247 58.3049C63.8751 57.8712 63.8779 58.0304 64.0734 57.8026L64.4838 57.3937C63.4868 57.369 62.421 59.2189 62.2034 59.3973C61.928 59.6306 62.2034 59.3534 61.8068 59.5098C62.0602 58.497 63.272 57.7971 63.6713 57.4595C64.0707 57.122 64.2222 57.2372 64.6628 57.1851C64.6932 56.9415 64.6303 56.6955 64.4865 56.4962L64.4673 56.4715L64.4618 56.4742ZM53.7677 60.1713C53.294 60.207 53.608 60.4705 52.9415 60.4183L53.2169 60.2701L53.1398 59.9792C53.3876 60.067 53.2334 60.0725 53.44 59.9929C53.1811 59.6251 52.5008 58.8511 52.8313 58.4476C53.0186 58.6672 53.0764 58.9966 53.2307 59.271C53.3761 59.5334 53.5447 59.7824 53.7346 60.0148C53.9908 59.7212 53.8641 59.6333 54.2855 59.6251C54.2855 59.562 53.8063 58.5272 53.7346 58.4037C53.619 58.1786 53.159 57.5501 52.9828 57.3058C52.3163 56.3974 52.1951 55.961 50.9007 55.6947L50.9888 55.8759C50.5344 55.9088 50.9282 55.7935 50.394 55.703H50.3471L50.1268 55.6618C49.7917 55.634 49.4779 55.4869 49.2428 55.2473C49.0224 55.5218 49.0775 55.7606 49.0858 56.1009C49.7109 56.2217 49.5264 56.0076 50.08 56.6499C50.2067 56.7981 50.8566 57.1988 51.0797 57.3882C51.3613 57.6578 51.6185 57.9517 51.8481 58.2665C52.1235 58.6205 52.4926 58.8484 52.5146 59.3067C51.9197 58.9664 51.1128 57.4074 49.7082 56.7075C49.4825 56.6284 49.2656 56.5263 49.061 56.4028C48.8957 56.2601 48.7856 56.0707 48.6066 55.9253C48.0833 55.8704 47.7473 56.0817 47.8244 56.5565C48.1934 56.7898 48.2816 56.6224 48.6506 57.0396C48.8847 57.3141 49.2014 57.3141 49.1519 57.7285C48.9012 57.745 47.0422 55.4944 47.3094 58.0387C47.37 58.6123 47.6178 58.3625 47.7253 59.304C47.8134 60.0725 48.2403 60.9919 49.0059 61.4256C49.4631 61.6836 51.6443 63.2508 52.3989 63.2618L53.1122 63.1438C53.3976 63.113 53.6844 63.0974 53.9715 63.0971C53.8421 62.9928 53.8531 62.9242 53.7484 62.7677L53.4372 62.8528C53.1453 62.4356 53.5308 62.8034 52.8423 62.4905C52.1951 62.1941 50.785 61.711 50.6694 61.5738C50.9246 61.5907 51.178 61.6293 51.4267 61.6891L51.1981 61.4613C51.5452 61.4915 52.3191 61.9636 52.6 62.1612C52.8809 62.3588 52.7928 62.4356 53.0544 62.3121C52.958 62.238 53.0709 62.3121 52.9139 62.2215C52.129 61.7714 50.8924 60.2756 51.077 59.9682C51.256 60.0697 52.6082 61.7028 53.0048 61.9334C53.3326 62.1255 53.5556 62.2984 53.9605 62.3066C53.831 61.9196 53.6493 62.2545 53.2637 61.9087C52.9525 61.6342 52.9057 61.7385 52.6385 61.3762C52.3714 61.0139 51.7187 60.6159 51.6415 60.1795C52.9249 60.9782 53.2775 62.0679 53.8999 61.9279C53.8999 61.7056 53.8999 61.9279 53.8476 61.744C53.7484 61.4064 53.7842 61.5601 53.3904 61.1127C53.4592 60.9508 53.5914 60.8767 53.5639 60.6845C53.3821 60.6845 53.3656 60.9288 53.1673 60.5967C53.7346 60.2207 53.5584 60.723 54.0596 61.0331C54.0101 60.7833 53.9219 60.8959 53.8751 60.6406L53.7512 60.174L53.7677 60.1713ZM50.8374 55.6371L50.9145 55.7057L50.8374 55.6371ZM50.606 55.5053C50.2696 55.2629 49.8695 55.1236 49.4548 55.1046L50.606 55.5053ZM63.0682 55.0387L63.2637 55.5081C63.3051 55.2611 63.3023 55.1815 63.0682 55.0387ZM61.6912 54.4377C61.6912 54.4377 61.6691 54.4377 61.6664 54.4624C61.6636 54.4871 61.7958 54.5282 61.6912 54.4377ZM62.2199 54.3059L62.0685 54.3361L62.2199 54.3059ZM62.2199 54.3059L62.6276 54.284C62.7322 53.8201 61.928 53.2053 61.1596 53.1422C60.8539 53.1147 60.752 53.2218 60.4546 53.3151C59.6025 53.5507 58.8372 54.0274 58.2513 54.6874C58.1219 54.8439 57.9429 54.9619 57.8189 55.0991L56.877 56.7679C56.8078 56.987 56.7661 57.2138 56.7531 57.4431C56.7531 57.5776 56.7696 57.7175 56.7531 57.8383C56.7218 57.9717 56.7025 58.1077 56.6953 58.2445C56.6815 58.9526 56.7504 58.4037 56.5934 58.9417C56.5563 59.2201 56.5499 59.5017 56.5741 59.7815C56.5741 59.7815 56.6099 59.7815 56.6154 59.7815H56.7559C57.0113 59.8617 57.2489 59.9903 57.4554 60.1603C57.8437 59.6718 58.0062 60.174 57.9429 60.3579C57.8465 60.6516 57.8547 60.3305 57.7583 60.6324C58.1109 60.6132 58.0338 60.4677 58.3532 59.9846C58.7416 59.4165 58.736 59.1612 59.3006 58.4504C59.4659 58.239 59.6091 57.9481 59.7991 57.7066C60.0115 57.4943 60.2368 57.2954 60.4739 57.111C60.8319 56.7267 60.3169 57.0451 61.1514 56.5181C62.1511 55.8868 62.9746 56.2793 63.1591 55.8923C63.1591 55.5602 62.8589 55.1897 62.779 54.8494C63.0544 54.929 62.779 54.8494 63.0792 55.0415L63.1701 54.8411L62.8258 54.4404C61.7793 54.8631 61.9996 54.3608 61.0164 55.4889C60.7162 55.4175 61.0164 55.4312 60.7796 55.4175C60.562 55.6453 60.4326 55.9664 60.1516 56.0296C60.2232 55.6453 60.5785 55.4587 60.6336 55.1183C60.3995 55.1842 60.5372 55.1595 60.3747 55.3626C59.8817 54.7972 61.3965 54.0479 62.432 54.1193C62.3494 54.3416 62.5064 54.133 62.2227 54.3087L62.2199 54.3059ZM51.3248 53.639C51.3469 53.5374 51.2037 53.5758 51.2339 53.639C51.3551 53.6527 51.3056 53.7378 51.3248 53.639ZM54.3543 58.7029C54.3295 58.239 54.0211 58.0277 54.1064 57.1768C54.4039 57.6133 54.2304 57.7258 54.5113 58.4312C54.6655 58.8099 54.5113 58.497 54.7867 58.6535C54.8831 59.1695 55.153 59.4 55.3788 59.8941C55.489 60.1356 55.4752 60.1685 55.69 60.2399C55.8883 59.9105 55.332 59.3506 55.2632 58.3818C55.5771 58.4641 55.2632 58.3461 55.489 58.5711C55.6653 58.7523 55.489 58.6946 55.7919 58.6892C55.5523 58.4421 55.6845 58.6892 55.5523 58.4147C55.7176 58.2253 55.6377 58.2775 55.8691 58.2171L56.0701 58.4915C56.1803 58.239 56.3097 58.2582 56.362 58.121C56.4722 57.8465 56.3455 57.9701 56.161 57.7807C56.3786 57.6297 56.4749 57.7038 56.3152 57.4156C56.1885 57.1823 56.0811 57.2839 56.1858 57.0039C56.5548 56.9161 56.1142 56.9765 56.5052 57.0808C56.5273 56.3425 57.2351 55.294 57.7528 54.7012C57.5573 54.111 57.0781 53.0544 56.4364 52.7964C55.3348 52.3545 56.0673 52.574 55.2384 52.5219C53.6548 52.4011 54.4452 52.3517 53.831 52.2035C53.0957 52.0278 53.0902 53.101 53.0571 53.5017C52.8561 53.1998 53.0571 53.1943 52.6551 52.7222C52.14 52.7222 51.7875 52.9967 51.3331 53.3947C51.6812 53.605 52.0085 53.8476 52.3108 54.1193C52.2337 54.7862 52.8065 54.6682 52.7983 55.2995C52.3328 55.0086 52.1786 54.3142 51.1458 53.7817C50.9947 53.961 50.8831 54.17 50.8181 54.395C50.7531 54.6201 50.7362 54.8562 50.7685 55.0882C51.1282 55.3643 51.5311 55.5794 51.961 55.7249C52.2364 55.8429 52.6578 56.4001 52.8451 56.6361C53.3491 57.2839 54.0761 58.4476 54.3433 58.7029H54.3543ZM63.5557 55.832C64.1533 56.0104 63.9963 55.6618 64.6573 56.2135C65.1668 56.6361 64.784 56.7981 65.5579 56.7816C65.7665 56.7701 65.9737 56.8222 66.1519 56.9311C66.33 57.0399 66.4706 57.2004 66.5549 57.3909C66.7504 58.0085 66.1693 57.8164 66.7614 58.4888C66.979 58.7386 67.0093 59.3287 67.0065 59.6361C67.0065 60.185 66.665 60.2536 66.5218 60.7339C66.2712 61.5573 67.0589 62.1365 67.348 62.8803C67.5931 63.5088 67.2076 63.6104 67.1525 64.0522C67.125 64.2718 67.2076 64.4008 67.136 64.6396C67.0644 64.8784 66.968 64.9772 66.9046 65.2325C66.7807 65.7375 66.7339 65.8226 66.2078 66.0559C65.6818 66.2892 65.7755 66.495 65.3651 66.8326C65.0897 67.0659 64.5637 67.2498 64.481 67.5105C64.28 68.1391 64.5031 67.9744 64.0321 68.6249C63.7567 69.0201 63.8862 69.2397 63.5419 69.6377C63.2665 69.9505 63.2032 70.365 62.8727 70.5654C62.4694 70.7279 62.0504 70.8484 61.6223 70.9249C61.0385 71.0429 60.92 71.1417 60.3279 70.9249C59.9313 70.7849 59.6284 70.505 59.1877 70.5214C58.9635 70.5563 58.7342 70.5395 58.5175 70.4724C58.3008 70.4054 58.1023 70.2897 57.9374 70.1344C57.5435 69.8243 57.538 69.6075 57.2626 69.3275C56.844 68.8993 56.8412 69.1903 56.5273 69.3275C55.6322 69.7063 56.4391 69.9313 54.5994 70.4254C54.2014 70.532 53.8184 70.6878 53.4592 70.8892C53.148 71.0374 52.5091 70.9304 52.0822 70.9386C51.5314 70.9523 51.5314 70.6395 50.9806 70.4528C50.2287 70.2003 50.7052 69.8792 50.0359 69.731C48.7801 69.4565 48.7993 68.7374 48.8489 67.7521C48.8339 67.3504 48.8747 66.9486 48.9701 66.5581C49.0197 66.376 49.0899 66.2002 49.1794 66.0339C49.3061 65.8527 49.4548 65.8143 49.5429 65.603C49.3612 65.4301 48.9921 65.5097 48.7525 65.4301C48.4783 65.3193 48.2099 65.1947 47.9483 65.0568C46.8687 64.5079 45.7451 63.7311 45.8084 62.5427C45.8387 61.9196 45.5716 61.486 46.2243 61.0166C46.877 60.5473 47.0202 61.0468 47.1689 59.8749C47.2874 58.9444 46.9183 57.3415 47.0202 57.0835C47.1221 56.8255 47.4196 56.7487 47.4939 56.477C47.5793 56.1613 47.414 56.0241 47.7996 55.7826C48.1852 55.541 48.3752 55.7167 48.7856 55.6179C49.083 55.3132 48.7856 55.0689 49.3364 54.8741C49.934 54.6682 50.0249 54.9564 50.4766 54.9537C50.6088 54.7176 50.3609 54.4706 50.6336 53.9711C50.9062 53.4715 51.1623 52.5137 52.0244 52.4148C52.6964 52.3407 52.6688 52.6893 53.126 52.1404C53.7016 51.424 53.8558 52.091 55.3733 52.209C57.3838 52.3627 57.8134 53.9738 57.9787 54.111C58.3284 54.3992 59.6476 52.7634 61.0082 52.8183C61.6912 52.8458 62.8782 53.1696 62.9746 53.8778C63.0544 54.4459 63.3188 54.2812 63.4978 54.7506C63.6769 55.2199 63.5281 55.6261 63.5997 55.81L63.5557 55.832Z" fill="#3E0B3D"/>
<path fill-rule="evenodd" clip-rule="evenodd" d="M55.7863 52.9066C55.2355 52.9478 54.1532 53.0082 53.5831 52.7776C53.5288 53.4586 53.6482 54.1421 53.9301 54.7648C54.0458 55.0392 54.1752 55.3137 54.2936 55.5882C54.4007 55.9228 54.4655 56.2695 54.4864 56.6202L53.5197 54.4436C53.3676 54.0736 53.2658 53.685 53.2168 53.2881V52.7749C53.2361 52.6745 53.2765 52.5793 53.3354 52.4955C53.3942 52.4118 53.4702 52.3414 53.5583 52.2891C54.0403 52.5416 53.7676 52.5031 54.6351 52.6321C54.9106 52.6733 54.9353 52.7255 55.186 52.7584C55.5082 52.8051 55.5109 52.7337 55.7891 52.9011L55.7863 52.9066Z" fill="#3E0B3D"/>
<path fill-rule="evenodd" clip-rule="evenodd" d="M55.7862 52.9061C56.0136 52.9454 56.2313 53.0273 56.4279 53.1476C56.4555 53.3397 56.3839 53.1833 56.4279 53.3672C56.4858 53.6416 56.4279 53.3425 56.5767 53.6416C56.2076 54.2647 56.315 54.9234 56.315 55.5053C56.315 55.8017 56.2462 55.8703 56.2544 56.1695H56.103C56.103 55.8538 56.2131 55.8099 56.1415 55.4531C55.9847 54.7121 56.0064 53.9445 56.2049 53.2135L55.6541 53.0021L55.789 52.9033L55.7862 52.9061Z" fill="#3E0B3D"/>
<path fill-rule="evenodd" clip-rule="evenodd" d="M50.5096 69.4405C50.0965 69.1002 50.3416 68.7077 50.763 68.0929C50.9007 67.8925 50.942 67.78 51.1541 67.7031C51.256 67.876 51.2091 67.7031 51.1761 67.9776C51.4763 67.7827 51.2697 67.876 51.3964 67.9172C51.0659 68.4167 50.964 68.9876 50.5096 69.4487V69.4405Z" fill="#3E0B3D"/>
<path fill-rule="evenodd" clip-rule="evenodd" d="M53.3462 66.8904C53.4426 66.4073 54.7756 65.7184 55.3429 65.7129C55.2713 66.0395 53.7731 66.8876 53.3462 66.8904Z" fill="#3E0B3D"/>
<path fill-rule="evenodd" clip-rule="evenodd" d="M59.32 68.1651C59.7139 68.0032 59.455 68.1651 59.4715 69.0325C59.4715 69.3399 59.5045 69.6555 59.4715 69.9574L59.0474 70.0452C59.0887 69.7351 59.2649 69.3124 59.2319 68.9721C59.1961 68.5878 59.0722 68.4917 59.1438 67.7754C59.3586 67.9456 59.2594 67.8605 59.3062 68.1651H59.32Z" fill="#3E0B3D"/>
<path fill-rule="evenodd" clip-rule="evenodd" d="M53.721 55.8921C53.4786 55.851 53.5915 55.8263 53.3244 55.7933C53.3244 55.6451 53.4648 55.7522 53.2941 55.3487C53.1233 54.9452 52.8204 53.8611 52.8562 53.5098C53.2032 53.9077 53.1316 54.1904 53.2941 54.6625C53.4015 54.9782 53.7099 55.5875 53.721 55.8921Z" fill="#3E0B3D"/>
<path fill-rule="evenodd" clip-rule="evenodd" d="M55.1861 67.4369C54.8253 67.6894 54.4893 67.5687 54.0238 67.9502C53.8614 68.0847 53.5446 68.7297 53.0654 68.4991C53.2252 68.167 53.2665 68.458 53.5777 68.1451C54.145 67.5687 53.4124 67.9337 54.5306 67.3958C54.6352 67.3513 54.7486 67.3312 54.8621 67.3369C54.9757 67.3426 55.0865 67.374 55.1861 67.4287V67.4369Z" fill="#3E0B3D"/>
<path fill-rule="evenodd" clip-rule="evenodd" d="M55.2962 66.5852C55.1393 66.7381 54.9358 66.8346 54.7178 66.8596C54.0348 67.0435 53.5335 67.7928 52.98 67.9136C53.1039 67.4744 54.9326 66.2887 55.2962 66.5961V66.5852Z" fill="#3E0B3D"/>
<path fill-rule="evenodd" clip-rule="evenodd" d="M53.0929 66.9702C52.6247 67.1377 52.3521 67.5878 51.939 68.0434C51.9891 67.748 52.0819 67.4614 52.2144 67.1926C52.4006 66.9534 52.6226 66.7442 52.8726 66.5723L53.0957 66.9702H53.0929Z" fill="#3E0B3D"/>
<path fill-rule="evenodd" clip-rule="evenodd" d="M59.1463 62.5098C59.273 62.2491 59.1297 62.4384 59.5484 62.3204C59.7136 62.2738 59.8789 62.2106 60.0469 62.1612C60.4379 62.0487 60.5977 61.8868 61.0273 61.9142C60.9364 62.3314 60.5453 62.2463 60.2011 62.3671C59.8568 62.4878 59.5621 62.7129 59.1353 62.5098H59.1463Z" fill="#3E0B3D"/>
<path fill-rule="evenodd" clip-rule="evenodd" d="M49.3613 62.9708C49.039 63.1328 48.4469 62.9461 48.0944 62.7979C47.7419 62.6497 47.8438 62.7403 47.819 62.5234C48.1384 62.5756 49.1492 62.7705 49.353 62.9791L49.3613 62.9708Z" fill="#3E0B3D"/>
<path fill-rule="evenodd" clip-rule="evenodd" d="M50.8016 60.6245C50.3554 60.5613 50.3582 60.35 50.0828 60.1332C49.8074 59.9163 49.4934 59.7764 49.4301 59.5156C49.7826 59.5733 50.7217 60.2594 50.8071 60.6135L50.8016 60.6245Z" fill="#3E0B3D"/>
<path fill-rule="evenodd" clip-rule="evenodd" d="M51.2698 63.3094C51.0329 63.4741 51.0274 63.4659 50.7025 63.4027C50.4736 63.3699 50.2485 63.3148 50.0305 63.238C50.2071 63.1021 50.4274 63.0348 50.6501 63.0487C51.2009 63.0487 51.2312 63.2298 51.2698 63.3094Z" fill="#3E0B3D"/>
<path fill-rule="evenodd" clip-rule="evenodd" d="M53.0515 64.2798L53.4261 63.9669L53.5307 63.8791C53.7263 63.7501 53.561 63.816 53.7731 63.7803C53.7731 63.7803 53.5775 64.6037 53.0515 64.2798Z" fill="#3E0B3D"/>
<path fill-rule="evenodd" clip-rule="evenodd" d="M52.3494 69.2945C52.3494 69.0859 52.6441 68.504 52.8616 68.6907C53.0269 68.8334 52.801 68.8965 52.6743 69.0063C52.5768 69.1138 52.4678 69.2104 52.3494 69.2945Z" fill="#3E0B3D"/>
<path fill-rule="evenodd" clip-rule="evenodd" d="M61.6554 61.9747C61.3525 61.961 61.5012 62.0214 61.2864 61.8869C61.3497 61.4725 62.0245 61.4203 61.6554 61.9747Z" fill="#3E0B3D"/>
<path fill-rule="evenodd" clip-rule="evenodd" d="M58.0971 59.9161C57.8547 59.7432 57.7886 59.5895 57.9236 59.3672C58.2348 59.477 58.2981 59.6883 58.0971 59.9161Z" fill="#3E0B3D"/>
<path fill-rule="evenodd" clip-rule="evenodd" d="M57.8107 58.3553H57.6207C57.4637 58.1605 57.4637 58.1605 57.6207 57.9766C57.9401 57.9766 58.0173 58.1001 57.8217 58.3444L57.8107 58.3553Z" fill="#3E0B3D"/>
<path fill-rule="evenodd" clip-rule="evenodd" d="M60.2289 58.9588C60.1852 58.9198 60.152 58.8704 60.1323 58.8153C60.1126 58.7603 60.107 58.7011 60.116 58.6433C60.125 58.5855 60.1484 58.5309 60.184 58.4844C60.2196 58.4379 60.2662 58.4009 60.3198 58.377C60.3503 58.4744 60.358 58.5775 60.3422 58.6784C60.3265 58.7793 60.2877 58.8752 60.2289 58.9588Z" fill="#3E0B3D"/>
<path fill-rule="evenodd" clip-rule="evenodd" d="M53.8089 65.1815C53.7649 65.4011 53.7291 65.4231 53.4619 65.4258C53.4371 65.1513 53.6051 65.0004 53.8089 65.1815Z" fill="#3E0B3D"/>
<path fill-rule="evenodd" clip-rule="evenodd" d="M61.6252 57.4873L61.1653 57.394C61.3388 57.2348 61.2892 57.221 61.5123 57.1826L61.6252 57.4873Z" fill="#3E0B3D"/>
<path fill-rule="evenodd" clip-rule="evenodd" d="M57.4663 59.3097C57.3478 59.1285 57.3478 59.145 57.4663 58.9639C57.5929 59.0105 57.6425 58.9501 57.6756 59.1148C57.7086 59.2795 57.5186 59.2932 57.4745 59.3097H57.4663Z" fill="#3E0B3D"/>
<path fill-rule="evenodd" clip-rule="evenodd" d="M53.3243 63.5698C53.2209 63.6275 53.1037 63.6559 52.9853 63.652C52.8669 63.6481 52.7518 63.6121 52.6523 63.5478C52.8706 63.4667 53.1119 63.4746 53.3243 63.5698Z" fill="#3E0B3D"/>
<path fill-rule="evenodd" clip-rule="evenodd" d="M53.8062 64.0254C53.8283 63.9273 53.8804 63.8384 53.9554 63.771C54.0304 63.7037 54.1245 63.6612 54.2248 63.6494C54.2023 63.7474 54.15 63.8361 54.0751 63.9034C54.0002 63.9707 53.9063 64.0133 53.8062 64.0254Z" fill="#3E0B3D"/>
<path fill-rule="evenodd" clip-rule="evenodd" d="M53.8311 56.6502C53.7568 56.5651 53.6851 56.4883 53.608 56.3949L53.8834 56.2852C53.8972 56.5596 53.9385 56.4745 53.8256 56.6502H53.8311Z" fill="#3E0B3D"/>
<path fill-rule="evenodd" clip-rule="evenodd" d="M50.4243 65.9085C50.2287 66.0049 50.3141 65.9801 50.0442 65.9526C50.3664 65.545 50.3609 65.8507 50.4243 65.9085Z" fill="#3E0B3D"/>
<path fill-rule="evenodd" clip-rule="evenodd" d="M57.9621 57.6377C57.8492 57.4264 57.8134 57.5197 58.0309 57.3633L58.2237 57.5636L57.9483 57.6405L57.9621 57.6377Z" fill="#3E0B3D"/>
<path fill-rule="evenodd" clip-rule="evenodd" d="M57.0866 53.9658L56.7864 53.8615L56.8718 53.6475C56.9272 53.6834 56.9757 53.7289 57.015 53.7819C57.0838 53.8835 57.07 53.8478 57.0866 53.9658Z" fill="#3E0B3D"/>
<path fill-rule="evenodd" clip-rule="evenodd" d="M58.188 57.3077C57.9512 57.2171 57.9126 57.3077 58.1247 57.0332C58.3009 57.1704 58.3064 57.1046 58.188 57.3077Z" fill="#3E0B3D"/>
<path fill-rule="evenodd" clip-rule="evenodd" d="M59.5513 59.7168C59.4109 59.5109 59.4384 59.5027 59.5981 59.3105C59.634 59.5603 59.6698 59.5274 59.5513 59.7168Z" fill="#3E0B3D"/>
<path fill-rule="evenodd" clip-rule="evenodd" d="M60.4575 62.972C60.2923 63.1841 60.3777 63.1483 60.1821 63.0133C60.284 62.8949 60.3694 62.8701 60.4575 62.972Z" fill="#3E0B3D"/>
<path fill-rule="evenodd" clip-rule="evenodd" d="M59.9039 59.1807C59.7717 58.9859 59.7662 59.038 59.9204 58.8486C60.0195 59.0353 60.0085 59.0188 59.9039 59.1807Z" fill="#3E0B3D"/>
<path fill-rule="evenodd" clip-rule="evenodd" d="M60.5042 58.3595C60.5427 58.1262 60.5041 58.1646 60.6997 58.1152C60.6556 58.3595 60.6832 58.3101 60.5042 58.3595Z" fill="#3E0B3D"/>
<path fill-rule="evenodd" clip-rule="evenodd" d="M57.9622 57.6387L57.8988 57.9022L57.7253 57.7402L57.9622 57.6387Z" fill="#3E0B3D"/>
<path fill-rule="evenodd" clip-rule="evenodd" d="M53.8999 56.9603C53.6686 56.919 53.7457 56.9851 53.6934 56.7812C53.8338 56.8115 53.8944 56.7812 53.8999 56.9603Z" fill="#3E0B3D"/>
<path fill-rule="evenodd" clip-rule="evenodd" d="M56.8881 59.4304C56.8496 59.1806 56.8248 59.2684 56.935 59.0928C56.9873 59.2026 56.9735 59.2712 56.8881 59.4304Z" fill="#3E0B3D"/>
<path fill-rule="evenodd" clip-rule="evenodd" d="M53.7207 55.3711C53.9052 55.5495 53.8832 55.5138 53.8639 55.7663L53.7207 55.3711Z" fill="#3E0B3D"/>
<path fill-rule="evenodd" clip-rule="evenodd" d="M56.3263 56.6267C56.1308 56.5744 56.2299 56.7452 56.1831 56.4395C56.3924 56.5716 56.3291 56.4395 56.3263 56.6267Z" fill="#3E0B3D"/>
<path fill-rule="evenodd" clip-rule="evenodd" d="M52.0218 60.3038C51.8208 60.1803 51.8208 60.2324 51.9199 60.0293L52.0218 60.3038Z" fill="#3E0B3D"/>
<path fill-rule="evenodd" clip-rule="evenodd" d="M60.4656 66.2343C60.4656 66.3142 60.3086 66.383 60.3499 66.2343C60.3912 66.0856 60.4628 66.1131 60.4656 66.2343Z" fill="#3E0B3D"/>
<path fill-rule="evenodd" clip-rule="evenodd" d="M56.4558 66.9705C56.4558 67.0476 56.2961 67.1165 56.3374 66.9705C56.3787 66.8246 56.4503 66.8466 56.4558 66.9705Z" fill="#3E0B3D"/>
<path fill-rule="evenodd" clip-rule="evenodd" d="M50.5235 66.3032C50.6336 66.3968 50.5703 66.4326 50.4739 66.328C50.3775 66.2233 50.4105 66.2041 50.5235 66.3032Z" fill="#3E0B3D"/>
<path fill-rule="evenodd" clip-rule="evenodd" d="M52.9414 60.109C52.8698 60.1751 52.6991 60.0236 52.8533 60.0732C52.8533 60.0732 53.0433 60.0181 52.9414 60.109Z" fill="#3E0B3D"/>
<path fill-rule="evenodd" clip-rule="evenodd" d="M50.1297 66.5035C50.0581 66.5669 49.8873 66.4154 50.0415 66.4677C50.0415 66.4677 50.2288 66.4126 50.1297 66.5035Z" fill="#3E0B3D"/>
<path fill-rule="evenodd" clip-rule="evenodd" d="M56.0838 67.3023C56.0095 67.3657 55.8387 67.217 55.9929 67.2665C55.9929 67.2665 56.183 67.2115 56.0838 67.3023Z" fill="#3E0B3D"/>
<path fill-rule="evenodd" clip-rule="evenodd" d="M57.7915 59.8346C57.7199 59.9007 57.5492 59.7492 57.7034 59.7988C57.7034 59.7988 57.8934 59.7437 57.7915 59.8346Z" fill="#3E0B3D"/>
<path fill-rule="evenodd" clip-rule="evenodd" d="M63.7347 63.2379C63.663 63.3012 63.4923 63.1498 63.6465 63.2021C63.6465 63.2021 63.8366 63.147 63.7347 63.2379Z" fill="#3E0B3D"/>
<path fill-rule="evenodd" clip-rule="evenodd" d="M56.2987 58.04C56.2987 58.1942 56.2051 58.04 56.2519 58.04C56.2519 58.04 56.2959 57.8665 56.2987 58.04Z" fill="#3E0B3D"/>
<path fill-rule="evenodd" clip-rule="evenodd" d="M57.3976 65.2351C57.3976 65.3921 57.3039 65.2351 57.3508 65.2351C57.3508 65.2351 57.3948 65.0643 57.3976 65.2351Z" fill="#3E0B3D"/>
<path fill-rule="evenodd" clip-rule="evenodd" d="M61.5149 65.6357L61.5871 65.6524L61.5427 65.7024L61.5149 65.6357Z" fill="#3E0B3D"/>
<path fill-rule="evenodd" clip-rule="evenodd" d="M52.0217 60.3037L52.0939 60.3204L52.0495 60.3703L52.0217 60.3037Z" fill="#3E0B3D"/>
<path fill-rule="evenodd" clip-rule="evenodd" d="M56.3429 56.7716C56.3429 56.7716 56.3207 56.7438 56.3207 56.7521C56.3207 56.7605 56.3207 56.7521 56.3207 56.7521C56.3207 56.7521 56.4512 56.6883 56.3512 56.7799L56.3429 56.7716Z" fill="#3E0B3D"/>
<path fill-rule="evenodd" clip-rule="evenodd" d="M60.6089 62.9022C60.6089 62.9022 60.5867 62.8744 60.5867 62.8828C60.5867 62.8911 60.5867 62.8828 60.5867 62.8828C60.5867 62.8828 60.72 62.8217 60.62 62.9105L60.6089 62.9022Z" fill="#3E0B3D"/>
<path fill-rule="evenodd" clip-rule="evenodd" d="M51.7823 59.7706C51.7823 59.7706 51.7573 59.7428 51.7573 59.7511C51.7573 59.7595 51.7573 59.7511 51.7573 59.7511C51.7573 59.7511 51.8906 59.6873 51.7906 59.7789L51.7823 59.7706Z" fill="#3E0B3D"/>
<path fill-rule="evenodd" clip-rule="evenodd" d="M53.7208 55.3722L53.6382 55.251L53.7208 55.3722Z" fill="#3E0B3D"/>
<path d="M80.0939 37.3718C72.8039 44.3542 70.3858 47.2279 68.5268 51.1418C68.4442 51.3257 66.8881 53.9935 65.2495 57.1801L66.1555 55.8654C70.361 51.6935 81 48.8994 80.0939 37.3718ZM80.0939 37.3718C75.759 45.765 69.9837 51.6413 65.6323 56.4363L80.0939 37.3718ZM63.2748 40.7313C63.0545 44.0496 62.3246 48.3065 64.101 51.0512C65.6571 53.4665 65.3734 54.4134 64.7097 56.815L65.2136 57.1416C66.9928 54.0758 68.2073 50.4721 67.2351 47.1977C66.5273 44.8153 64.448 42.7376 63.2748 40.7313ZM63.2748 40.7313C63.7843 42.9105 68.4029 50.6368 65.0815 57.0099L63.2748 40.7313ZM58.3147 47.5243C59.4439 49.871 59.7551 51.0924 62.264 52.7392C63.0985 53.2826 64.0487 54.8114 64.2938 56.0108L64.784 56.8562C66.161 52.5004 64.0982 48.7924 58.3147 47.5243ZM58.3147 47.5243C61.0853 49.5471 66.5521 51.4766 64.6739 56.8123L58.3147 47.5243ZM32.4429 71.3343C31.0109 71.1727 29.59 70.9252 28.1879 70.5933C19.0574 68.4248 11.1652 62.7306 6.24724 54.7632C1.3293 46.7959 -0.211569 37.208 1.96358 28.1085C2.10955 27.5102 2.26653 26.9146 2.44279 26.3245M50.4628 3.91699C57.904 7.12674 64.0136 12.7857 67.7695 19.9471C71.5254 27.1085 72.6999 35.3381 71.0963 43.2591M66.6788 55.3713C72.1319 53.3513 73.5034 50.7685 81 50.0823C76.1253 55.6623 69.4577 54.246 66.6788 55.3713ZM80.7824 50.3376C79.9755 50.5023 77.0066 51.9844 75.6516 52.3742C73.4951 52.9835 70.9972 53.9578 68.7389 54.5068L80.7824 50.3376Z" stroke="#3E0B3D" stroke-width="0.75" stroke-miterlimit="22.93"/>
<path d="M7.06136 20.0773L7.84352 20.4807L7.71683 20.7223L7.16601 20.4478L6.06438 22.6024L6.6152 22.8933L6.48851 23.1348L5.70911 22.7314L5.77245 22.6079C5.84681 22.4404 5.77245 22.262 5.56039 22.0589C5.24567 21.8082 4.90608 21.5903 4.54689 21.4084L3.75647 20.9665L4.61849 19.3033L6.86857 20.4588L7.06136 20.0882V20.0773ZM4.6901 21.1751C4.99742 21.3428 5.29198 21.5327 5.5714 21.7433C5.75332 21.8542 5.88769 22.0282 5.94871 22.2318L6.73638 20.7113L4.71213 19.6711L4.10073 20.8595L4.6901 21.1889V21.1751ZM8.39433 17.0581L7.55158 18.3591L7.99499 19.0425L7.82975 19.2978L6.1773 16.726L6.33428 16.4817L9.36376 16.9209L9.19577 17.1954L8.38882 17.0719L8.39433 17.0581ZM8.13545 17.017L6.51605 16.7672L7.40837 18.1395L8.13545 17.017ZM8.68626 13.2732C8.86036 13.029 9.11625 12.8548 9.40783 12.7819C9.5384 12.7623 9.67163 12.7697 9.79921 12.8037C9.92678 12.8376 10.046 12.8974 10.1493 12.9793C10.2527 13.0612 10.338 13.1634 10.4 13.2796C10.4619 13.3958 10.4992 13.5235 10.5095 13.6547C10.5014 13.9538 10.3861 14.24 10.1845 14.4617L9.70252 15.0463L10.3883 15.5952L10.2038 15.8258L8.02253 14.0856L8.67525 13.2622L8.68626 13.2732ZM9.96691 14.308C10.1191 14.141 10.2086 13.9267 10.2203 13.7014C10.2161 13.6041 10.1889 13.5092 10.1411 13.4244C10.0932 13.3395 10.026 13.267 9.94487 13.2128C9.87148 13.1462 9.78343 13.0975 9.68778 13.0708C9.59213 13.0441 9.49154 13.0401 9.39406 13.0591C9.18198 13.1265 8.99933 13.264 8.87629 13.4489L8.41361 14.0253L9.49871 14.8926L9.96415 14.3189L9.96691 14.308ZM10.6527 11.0528L10.8647 10.8552L12.4428 12.5349L12.1674 9.63928L12.363 9.45813L14.266 11.4864L14.054 11.6841L12.4566 10.0098L12.732 12.9L12.5392 13.0838L10.6334 11.0555L10.6527 11.0528ZM16.2214 6.38685L17.9207 8.58258L17.6893 8.7555L16.3316 6.99342L16.607 9.13975L16.4968 9.22484L14.4946 8.41516L15.8441 10.169L15.621 10.3392L13.9245 8.14344L14.1173 7.99522L16.3206 8.89548L16.0149 6.53506L16.2049 6.38685H16.2214ZM22.2666 3.09324C22.4921 2.98982 22.7414 2.94904 22.9882 2.97522C23.2285 2.99953 23.4573 3.08979 23.6491 3.23597C23.8515 3.38819 24.0101 3.59074 24.1091 3.82333C24.2158 4.05307 24.2605 4.30665 24.2385 4.5589C24.2188 4.79797 24.133 5.02693 23.9907 5.22036C23.8445 5.41989 23.6477 5.57712 23.4206 5.67598C23.235 5.76094 23.0351 5.81029 22.8312 5.82145C22.6472 5.83441 22.4629 5.80237 22.2941 5.72813L22.3713 5.48934C22.519 5.54512 22.6766 5.57 22.8344 5.56245C22.9922 5.55489 23.1467 5.51506 23.2884 5.44543C23.4592 5.37179 23.608 5.25515 23.72 5.10695C23.832 4.95875 23.9035 4.78408 23.9273 4.60007C23.955 4.40998 23.9323 4.21597 23.8612 4.03741L22.5503 4.61105L22.4539 4.39147L23.7621 3.81235C23.6699 3.65086 23.5406 3.51351 23.3848 3.41163C23.2357 3.31432 23.0641 3.25668 22.8863 3.2442C22.7031 3.22899 22.5191 3.26113 22.352 3.33752C22.2056 3.39628 22.073 3.48433 21.9621 3.59621C21.8513 3.70809 21.7646 3.84144 21.7075 3.98801L21.4624 3.89194C21.5217 3.71737 21.6218 3.55933 21.7543 3.43084C21.8985 3.28767 22.0685 3.17311 22.2556 3.09324H22.2666ZM28.1548 1.07042L28.9067 3.74648L28.6313 3.82058L28.0336 1.68248L27.4828 3.77667L27.3479 3.81235L25.7946 2.31925L26.3922 4.44637L26.1168 4.52322L25.3677 1.84991L25.6018 1.78404L27.3231 3.43084L27.9207 1.12531L28.1548 1.07042ZM31.8535 3.20852C31.5964 3.25741 31.3311 3.24041 31.0824 3.15912C30.8469 3.08152 30.6374 2.94101 30.4765 2.7529C30.311 2.56019 30.2023 2.32552 30.1625 2.07497C30.1146 1.82635 30.1346 1.56947 30.2204 1.33117C30.3068 1.09978 30.4543 0.895911 30.6472 0.741061C30.8521 0.579311 31.0946 0.471692 31.3523 0.428169C31.6082 0.378137 31.8727 0.394199 32.1207 0.474828C32.355 0.55312 32.5635 0.693551 32.7238 0.881039C32.8903 1.07344 33 1.30813 33.0405 1.55897C33.0899 1.80842 33.0699 2.06658 32.9827 2.30552C32.8992 2.53699 32.7534 2.74113 32.5613 2.89563C32.3581 3.05831 32.1162 3.16607 31.859 3.20852H31.8535ZM31.8095 2.95052C32.0118 2.91481 32.2014 2.82786 32.3603 2.69801C32.5155 2.5721 32.6327 2.40587 32.699 2.21769C32.7678 2.02305 32.783 1.81361 32.7431 1.61112C32.7087 1.40906 32.6213 1.21967 32.4897 1.06219C32.3646 0.908086 32.1985 0.792072 32.0105 0.727338C31.8128 0.661039 31.6012 0.646856 31.3964 0.686168C31.194 0.72176 31.0043 0.808728 30.8455 0.938677C30.6889 1.06446 30.5699 1.23057 30.5013 1.41899C30.4325 1.61364 30.4173 1.82308 30.4572 2.02557C30.4916 2.22762 30.579 2.41702 30.7106 2.5745C30.8347 2.72725 30.9986 2.84308 31.1843 2.90935C31.383 2.97564 31.5954 2.98981 31.8012 2.95052H31.8095ZM37.549 2.50863L37.5737 3.41437H37.2983L37.2818 2.76388L34.85 2.82976L34.7646 0.0631274H35.04L35.1116 2.58548L36.7943 2.53882L36.7448 0H37.0367L37.1083 2.52235H37.549V2.50863ZM39.1518 0.0741061L39.4272 0.0960635L39.2592 2.39061L41.2201 0.227808L41.4955 0.24702L41.2807 3.01914L41.0053 2.99718L41.1761 0.70538L39.2262 2.86544L38.9508 2.84622L39.1518 0.0741061ZM43.6547 0.603828L43.9301 0.666955L43.4151 2.9121L45.668 1.06493L45.9296 1.12257L45.3154 3.84254L45.04 3.77667L45.555 1.53702L43.3022 3.37046L43.0433 3.31007L43.663 0.603828H43.6547Z" fill="#3E0B3D"/>
<path d="M30.7547 45.4329V46.5308H30.3719V45.7788H27.6178V42.7953H28.0226V45.4329H29.8541V42.7953H30.259V45.4329H30.7547ZM34.0403 44.239C34.2168 44.2604 34.3784 44.3481 34.4921 44.4844C34.6057 44.6206 34.6628 44.795 34.6517 44.9718C34.6571 45.0887 34.6333 45.2051 34.5823 45.3105C34.5313 45.4159 34.4549 45.507 34.3598 45.5757C34.0991 45.7327 33.7961 45.8056 33.4922 45.7842H32.129V42.7953H33.4537C33.7355 42.78 34.0155 42.8488 34.2579 42.9929C34.3482 43.0567 34.4208 43.1423 34.469 43.2417C34.5171 43.341 34.5393 43.4509 34.5333 43.5611C34.5373 43.7118 34.4908 43.8596 34.4011 43.981C34.3029 44.1003 34.1732 44.1897 34.0265 44.239H34.0403ZM32.5228 44.1237H33.4234C33.6105 44.1362 33.797 44.0912 33.9577 43.9947C34.0184 43.952 34.0672 43.8945 34.0995 43.8278C34.1318 43.761 34.1465 43.6872 34.1422 43.6132C34.1466 43.54 34.1319 43.4669 34.0996 43.401C34.0672 43.3351 34.0183 43.2787 33.9577 43.2372C33.7953 43.1453 33.6097 43.1024 33.4234 43.1137H32.5228V44.1237ZM33.4757 45.4659C33.6771 45.4785 33.8781 45.4358 34.0568 45.3424C34.1212 45.2999 34.1733 45.2413 34.2076 45.1723C34.2419 45.1034 34.2574 45.0267 34.2524 44.9499C34.2578 44.8744 34.2443 44.7987 34.2131 44.7297C34.1818 44.6607 34.1338 44.6005 34.0733 44.5546C33.907 44.4572 33.715 44.4122 33.5225 44.4256H32.5311V45.4659H33.4757ZM38.8186 44.4147H36.3097C36.316 44.5579 36.3509 44.6984 36.4124 44.828C36.4739 44.9576 36.5607 45.0737 36.6677 45.1694C36.8993 45.36 37.1938 45.4579 37.4939 45.4439C37.6696 45.4457 37.8438 45.4121 38.0062 45.3451C38.1619 45.2795 38.3005 45.179 38.411 45.0514L38.6396 45.3122C38.5059 45.4727 38.3348 45.598 38.1411 45.6772C37.9322 45.7621 37.7085 45.8051 37.4829 45.8035C37.195 45.8097 36.9104 45.7417 36.6567 45.6058C36.4257 45.4771 36.235 45.2871 36.1059 45.0569C35.9712 44.8174 35.9028 44.5465 35.9076 44.2719C35.9031 43.9993 35.9685 43.7301 36.0976 43.4897C36.2177 43.2611 36.4 43.0708 36.6236 42.9408C36.8525 42.8131 37.1104 42.7461 37.3727 42.7461C37.635 42.7461 37.8929 42.8131 38.1218 42.9408C38.3424 43.072 38.5218 43.2622 38.6396 43.4897C38.7684 43.7311 38.8329 44.0014 38.8269 44.2747V44.4009L38.8186 44.4147ZM37.37 43.1192C37.1007 43.111 36.8392 43.2097 36.6429 43.3936C36.4459 43.5837 36.3271 43.8401 36.3097 44.1127H38.4386C38.4204 43.8397 38.3006 43.5832 38.1026 43.3936C38.0045 43.3022 37.8894 43.2308 37.7637 43.1837C37.638 43.1366 37.5042 43.1147 37.37 43.1192ZM42.297 43.1521H41.1623V45.7842H40.7575V43.1521H39.6228V42.7953H42.297V43.1521ZM44.7454 43.852C45.0521 43.8343 45.3556 43.9225 45.6047 44.1018C45.7054 44.1886 45.7846 44.2974 45.8362 44.4198C45.8878 44.5421 45.9104 44.6747 45.9021 44.8071C45.9101 44.9457 45.8854 45.0842 45.8299 45.2115C45.7744 45.3387 45.6897 45.4513 45.5826 45.54C45.3172 45.7265 44.9948 45.8149 44.671 45.7897H43.484V42.7953H43.8889V43.841H44.7454V43.852ZM46.3978 42.7953H46.8027V45.7842H46.3978V42.7953ZM44.6407 45.4823C44.8642 45.5023 45.0875 45.443 45.2714 45.3149C45.3444 45.2528 45.4018 45.1745 45.4391 45.0864C45.4764 44.9982 45.4925 44.9026 45.4862 44.8071C45.4931 44.7147 45.4774 44.622 45.4405 44.5369C45.4036 44.4518 45.3465 44.3769 45.2742 44.3186C45.086 44.1978 44.8641 44.1401 44.6407 44.1539H43.8834V45.4823H44.6407Z" fill="#3F0B3D"/>
<path d="M28.981 37.5781C29.0223 37.5781 29.0443 37.6028 29.0443 37.6522C29.0443 37.7016 29.0223 37.7263 28.981 37.7263C28.8249 37.7263 28.5743 37.7181 28.2291 37.7016C27.8821 37.6851 27.6315 37.6769 27.4745 37.6769C27.2679 37.6769 27.0256 37.6769 26.7447 37.7016C26.4638 37.7263 26.2489 37.7263 26.092 37.7263C26.0589 37.7263 26.0424 37.7016 26.0424 37.6522C26.0424 37.6028 26.0589 37.5781 26.092 37.5781C26.2701 37.5891 26.4485 37.5619 26.6152 37.4985C26.6686 37.4762 26.7136 37.4376 26.7438 37.3883C26.7739 37.3391 26.7877 37.2816 26.7832 37.224C26.7522 37.0036 26.6813 36.7907 26.5739 36.5955L25.2382 33.9002H23.0074L22.0572 36.0301C21.9588 36.2382 21.9045 36.4643 21.8975 36.6943C21.8901 36.8202 21.9144 36.9459 21.9683 37.0601C22.0222 37.1742 22.1039 37.273 22.206 37.3475C22.4646 37.5079 22.7666 37.5846 23.0707 37.5671C23.112 37.5671 23.1313 37.5918 23.1313 37.6412C23.1313 37.6906 23.112 37.7153 23.0707 37.7153C22.922 37.7153 22.7072 37.7153 22.429 37.6906C22.1509 37.6659 21.8424 37.6659 21.6028 37.6659C21.3632 37.6659 21.1236 37.6659 20.8262 37.6906C20.5287 37.7153 20.3442 37.7153 20.1707 37.7153C20.1294 37.7153 20.1101 37.6906 20.1101 37.6412C20.1101 37.5918 20.1294 37.5671 20.1707 37.5671C20.3729 37.5745 20.5735 37.5281 20.7518 37.4326C20.9404 37.3088 21.0971 37.1424 21.209 36.9468C21.4092 36.6122 21.5867 36.2647 21.7405 35.9066L24.3954 29.9479C24.4099 29.9331 24.4277 29.9219 24.4473 29.9153C24.4669 29.9086 24.4878 29.9066 24.5084 29.9095C24.5662 29.9095 24.5965 29.9095 24.6048 29.9479L27.6342 36.0301C27.8261 36.4611 28.0693 36.8674 28.3586 37.2405C28.4318 37.3372 28.5256 37.4167 28.6331 37.4731C28.7407 37.5296 28.8595 37.5617 28.981 37.5671V37.5781ZM23.1451 33.6011H25.095L24.0705 31.5343L23.1451 33.6011ZM38.7827 37.5781C38.824 37.5781 38.8433 37.6028 38.8433 37.6522C38.8433 37.7016 38.824 37.7263 38.7827 37.7263C38.6257 37.7263 38.3751 37.7263 38.0281 37.7016C37.6811 37.6769 37.4305 37.6769 37.2762 37.6769C37.0697 37.6769 36.8273 37.6769 36.5464 37.7016C36.2655 37.7263 36.0479 37.7263 35.8909 37.7263C35.8579 37.7263 35.8414 37.7016 35.8414 37.6522C35.8414 37.6028 35.8579 37.5781 35.8909 37.5781C36.07 37.5893 36.2494 37.5622 36.417 37.4985C36.4699 37.4757 36.5143 37.437 36.5439 37.3877C36.5735 37.3385 36.587 37.2812 36.5822 37.224C36.5526 37.0033 36.4816 36.7901 36.3729 36.5955L33.8667 31.5233L31.8535 36.0301C31.7543 36.2381 31.699 36.4641 31.691 36.6943C31.6843 36.8201 31.709 36.9456 31.7628 37.0596C31.8166 37.1736 31.8979 37.2725 31.9994 37.3475C32.2582 37.5076 32.5602 37.5842 32.8642 37.5671C32.9055 37.5671 32.9276 37.5918 32.9276 37.6412C32.9276 37.6906 32.9055 37.7153 32.8642 37.7153C32.7155 37.7153 32.5034 37.7153 32.2225 37.6906C31.9416 37.6659 31.6387 37.6659 31.3963 37.6659C31.1539 37.6659 30.9143 37.6659 30.6169 37.6906C30.3195 37.7153 30.1377 37.7153 29.9642 37.7153C29.9229 37.7153 29.9008 37.6906 29.9008 37.6412C29.9008 37.5918 29.9229 37.5671 29.9642 37.5671C30.1664 37.5741 30.3669 37.5277 30.5453 37.4326C30.7331 37.3086 30.8888 37.1422 30.9997 36.9468C31.201 36.6128 31.3786 36.2652 31.5313 35.9066L34.2137 29.9589C34.2302 29.9342 34.266 29.9205 34.3239 29.9205C34.3817 29.9205 34.4148 29.9205 34.423 29.9589L37.4525 36.0411C37.6437 36.4718 37.8859 36.8782 38.1741 37.2515C38.2476 37.3485 38.3418 37.4282 38.4499 37.4847C38.558 37.5411 38.6773 37.573 38.7992 37.5781H38.7827ZM43.7401 33.3815C44.581 33.3815 45.2236 33.5471 45.6679 33.8783C45.8981 34.0564 46.0806 34.2883 46.1993 34.5536C46.3179 34.8188 46.3691 35.1092 46.3482 35.3988C46.3581 35.8398 46.2405 36.2743 46.0094 36.6504C45.7765 37.0093 45.446 37.2948 45.0565 37.4738C44.6182 37.6783 44.1386 37.7797 43.6547 37.7702C43.4481 37.7702 43.1975 37.7702 42.9028 37.7345L41.8012 37.6961H41.0108C40.8455 37.6961 40.6142 37.6961 40.3195 37.6961C40.2947 37.6961 40.2809 37.6714 40.2809 37.622C40.2809 37.5726 40.2947 37.5479 40.3195 37.5479C40.527 37.549 40.7339 37.5269 40.9364 37.482C40.9935 37.4665 41.0463 37.4385 41.0911 37.4001C41.1359 37.3616 41.1715 37.3137 41.1953 37.2597C41.254 37.0829 41.2792 36.8968 41.2697 36.7108V31.0293C41.2792 30.8437 41.2559 30.6579 41.2008 30.4804C41.1794 30.4264 41.1452 30.3785 41.101 30.3407C41.0569 30.3029 41.0042 30.2764 40.9474 30.2635C40.7444 30.2214 40.5379 30.1975 40.3305 30.1922C40.314 30.1922 40.3057 30.1675 40.3057 30.1181C40.3057 30.0687 40.314 30.044 40.3305 30.044H40.9364C41.2972 30.0604 41.6029 30.0687 41.8508 30.0687C42.0986 30.0687 42.4319 30.0687 42.8257 30.044H43.4922C43.517 30.044 43.5308 30.0687 43.5308 30.1181C43.5308 30.1675 43.517 30.1922 43.4922 30.1922C43.2661 30.1967 43.041 30.2234 42.8202 30.2718C42.76 30.2865 42.704 30.3147 42.6563 30.3542C42.6086 30.3936 42.5705 30.4433 42.5448 30.4996C42.4799 30.6807 42.4528 30.8731 42.4649 31.065V33.4858C42.8888 33.4125 43.3181 33.3757 43.7483 33.376L43.7401 33.3815ZM43.4426 37.4985C44.0458 37.4985 44.4726 37.3475 44.7288 37.0484C44.9849 36.7492 45.1116 36.2799 45.1116 35.6404C45.1116 34.956 44.9711 34.4611 44.6902 34.1555C44.4148 33.8481 43.9659 33.6944 43.3572 33.6944C43.0554 33.701 42.7544 33.7294 42.4567 33.7795V36.7355C42.4478 36.8398 42.4601 36.9448 42.4928 37.0442C42.5254 37.1437 42.5778 37.2356 42.6467 37.3146C42.8826 37.4659 43.1639 37.5309 43.4426 37.4985ZM52.151 33.4117C52.7502 33.4547 53.3189 33.6918 53.7704 34.0869C53.9658 34.2647 54.1209 34.4821 54.2254 34.7244C54.3299 34.9667 54.3813 35.2284 54.3763 35.4921C54.3794 35.9066 54.2565 36.3123 54.0238 36.6559C53.7784 37.0133 53.4406 37.2978 53.0461 37.4793C52.6159 37.6824 52.1451 37.7856 51.669 37.7812C51.4294 37.7812 51.154 37.7812 50.8428 37.7455L50.4352 37.7208C50.27 37.7208 50.0854 37.7208 49.8844 37.7208H48.9948C48.8406 37.7208 48.6258 37.7208 48.3531 37.7208C48.3283 37.7208 48.3173 37.6961 48.3173 37.6467C48.3173 37.5973 48.3173 37.5726 48.3531 37.5726C48.5536 37.5804 48.7541 37.5582 48.948 37.5067C49.0082 37.4876 49.0637 37.4563 49.1111 37.4147C49.1585 37.3731 49.1967 37.3222 49.2234 37.2652C49.2896 37.0901 49.3178 36.903 49.306 36.7163V31.0293C49.3176 30.8426 49.2894 30.6555 49.2234 30.4804C49.1975 30.4222 49.1596 30.3702 49.1121 30.3276C49.0647 30.2851 49.0088 30.2529 48.948 30.2333C48.757 30.1818 48.5592 30.1596 48.3614 30.1675C48.3449 30.1675 48.3366 30.1428 48.3366 30.0934C48.3366 30.044 48.3449 30.0193 48.3614 30.0193H49.0031C49.3703 30.0357 49.6622 30.044 49.8789 30.044C50.1102 30.044 50.3526 30.044 50.6087 30.0083L50.9365 29.9836C51.0631 29.9836 51.2119 29.9836 51.3744 29.9836C51.967 29.9464 52.5564 30.0952 53.0598 30.409C53.2488 30.5401 53.4017 30.7163 53.5047 30.9215C53.6077 31.1268 53.6573 31.3544 53.6492 31.5837C53.6482 31.9718 53.5097 32.347 53.2581 32.6432C52.9652 32.9877 52.5847 33.2474 52.1565 33.3952L52.151 33.4117ZM51.1513 30.2471C51.0556 30.2353 50.9585 30.2433 50.8661 30.2707C50.7736 30.2981 50.6879 30.3443 50.6142 30.4063C50.4951 30.6021 50.4447 30.8319 50.471 31.0595V33.398H50.9915C51.1998 33.4119 51.4085 33.3762 51.6001 33.2936C51.7917 33.211 51.9607 33.084 52.0932 32.9231C52.3528 32.569 52.483 32.1371 52.4622 31.699C52.4913 31.3046 52.3726 30.9134 52.129 30.6011C52.0052 30.4692 51.8534 30.3665 51.6848 30.3005C51.5161 30.2345 51.3348 30.2069 51.154 30.2196L51.1513 30.2471ZM51.4597 37.4985C52.5724 37.4985 53.1287 36.9276 53.1287 35.7858C53.1559 35.2424 52.9814 34.7079 52.6385 34.2845C52.4581 34.0901 52.2364 33.9384 51.9895 33.8405C51.7426 33.7427 51.4769 33.7012 51.2119 33.7191C50.9172 33.7191 50.661 33.7191 50.471 33.7438V36.7355C50.4642 36.8863 50.4896 37.0369 50.5454 37.1774C50.6019 37.2907 50.7008 37.3775 50.8208 37.4189C51.025 37.4805 51.2382 37.5074 51.4515 37.4985H51.4597ZM64.8115 37.5836C64.8528 37.5836 64.8748 37.6083 64.8748 37.6577C64.8748 37.7071 64.8528 37.7318 64.8115 37.7318C64.6572 37.7318 64.4039 37.7318 64.0596 37.7071C63.7154 37.6824 63.462 37.6824 63.305 37.6824C63.0994 37.6824 62.857 37.6906 62.5779 37.7071C62.3025 37.7236 62.0794 37.7318 61.9225 37.7318C61.8894 37.7318 61.8729 37.7071 61.8729 37.6577C61.8729 37.6083 61.8894 37.5836 61.9225 37.5836C62.1006 37.5948 62.2791 37.5677 62.4457 37.504C62.4991 37.4816 62.5441 37.4431 62.5743 37.3938C62.6044 37.3446 62.6182 37.2871 62.6137 37.2295C62.5841 37.0088 62.5131 36.7956 62.4044 36.601L61.0687 33.9057H58.8324L57.8822 36.0356C57.7838 36.2437 57.7295 36.4698 57.7225 36.6998C57.7151 36.8257 57.7394 36.9514 57.7933 37.0655C57.8472 37.1797 57.9289 37.2785 58.0309 37.353C58.2896 37.5134 58.5916 37.5901 58.8957 37.5726C58.937 37.5726 58.9563 37.5973 58.9563 37.6467C58.9563 37.6961 58.937 37.7208 58.8957 37.7208C58.747 37.7208 58.5322 37.7208 58.254 37.6961C57.9759 37.6714 57.6674 37.6714 57.4278 37.6714C57.1882 37.6714 56.9458 37.6714 56.6484 37.6961C56.351 37.7208 56.1664 37.7208 55.9929 37.7208C55.9516 37.7208 55.9323 37.6961 55.9323 37.6467C55.9323 37.5973 55.9516 37.5726 55.9929 37.5726C56.1952 37.58 56.3957 37.5335 56.574 37.4381C56.7627 37.3143 56.9193 37.1478 57.0312 36.9523C57.2314 36.6177 57.409 36.2702 57.5628 35.9121L60.2177 29.9534C60.2322 29.9386 60.2499 29.9274 60.2695 29.9208C60.2892 29.9141 60.3101 29.9121 60.3306 29.915C60.3884 29.915 60.4215 29.915 60.4297 29.9534L63.4592 36.0356C63.6492 36.4669 63.8915 36.8734 64.1808 37.246C64.254 37.3427 64.3478 37.4221 64.4554 37.4786C64.563 37.5351 64.6817 37.5672 64.8032 37.5726L64.8115 37.5836ZM58.9701 33.6065H60.9282L59.901 31.5398L58.9756 33.6065H58.9701Z" fill="#3F0B3D"/>
<path d="M18.5569 29.8836V30.1059C18.3647 30.1047 18.1734 30.1325 17.9895 30.1883C17.9294 30.2112 17.8756 30.2481 17.8325 30.2958C17.7894 30.3435 17.7583 30.4007 17.7417 30.4627C17.6932 30.6592 17.6728 30.8616 17.6811 31.0638V36.5532C17.6734 36.7535 17.6938 36.954 17.7417 37.1487C17.7565 37.2116 17.787 37.2696 17.8304 37.3176C17.8737 37.3656 17.9284 37.4019 17.9895 37.4232C18.1738 37.4785 18.3646 37.5089 18.5569 37.5138V37.7334C18.3724 37.7196 18.141 37.7087 17.8684 37.7059C17.301 37.7059 16.7318 37.7059 16.1608 37.7059C15.8854 37.7059 15.6706 37.7059 15.5081 37.7334V37.5138C15.7013 37.5084 15.8929 37.4779 16.0782 37.4232C16.1438 37.4047 16.2036 37.3698 16.2518 37.3217C16.3 37.2737 16.335 37.2141 16.3536 37.1487C16.4052 36.9546 16.4275 36.7539 16.4197 36.5532V30.5149L16.4748 30.5368L13.7483 37.769H13.5582L10.6995 30.5917C10.6813 30.5503 10.6562 30.5122 10.6251 30.4792C10.5205 30.3612 10.515 30.3584 10.4957 30.3529C10.4621 30.3197 10.4241 30.291 10.3828 30.2679H10.3332C10.257 30.2294 10.1766 30.2 10.0936 30.18C9.92252 30.1316 9.74542 30.1076 9.56758 30.1087V29.8863L10.022 29.9111C10.6114 29.933 11.198 29.911 11.7846 29.8863L14.233 36.1607L14.0237 36.3034L16.428 29.9165H17.0366C17.5434 29.9165 18.0501 29.9028 18.5569 29.8809V29.8836ZM10.6995 32.3867V36.2485C10.6929 36.4918 10.715 36.735 10.7656 36.9731C10.7809 37.051 10.8136 37.1246 10.8613 37.1882C10.9089 37.2519 10.9704 37.3041 11.041 37.3409C11.2548 37.431 11.4837 37.4803 11.7158 37.4863V37.7059C11.5753 37.6922 11.3963 37.6812 11.1649 37.6785C10.7739 37.6785 10.3855 37.6785 9.99446 37.6785C9.80994 37.6785 9.65846 37.6785 9.54004 37.7059V37.4863C9.73126 37.4774 9.91866 37.4297 10.0909 37.3464C10.1554 37.3074 10.2111 37.2556 10.2547 37.1942C10.2983 37.1328 10.3288 37.0632 10.3442 36.9896C10.3943 36.7607 10.4165 36.5266 10.4103 36.2924C10.4103 34.9201 10.4103 33.1498 10.4103 31.7664C10.4461 31.7829 10.6307 32.3346 10.6609 32.3867H10.6995Z" fill="#3F0B3D"/>
</svg>
