<svg width="137" height="122" viewBox="0 0 137 122" fill="none" xmlns="http://www.w3.org/2000/svg">
<g opacity="0.4">
<path d="M57.0371 8.48292C58.044 11.8036 61.5124 16.7042 56.5895 19.8638M56.8939 13.9473C55.9988 11.2845 56.5358 10.9802 57.0371 8.48292C60.9485 13.0299 60.3488 17.362 56.4866 20.0204L56.8939 13.9473Z" stroke="#3E0B3D" stroke-width="0.57" stroke-miterlimit="22.93"/>
<path d="M73.323 24.2542C72.5756 23.9051 69.2951 23.3144 67.9838 22.8086C65.8894 22.0031 63.3653 21.3541 61.226 20.4412M56.688 20.4322C59.955 18.839 62.8506 17.6127 63.0207 17.5232C66.8739 15.4959 70.8436 14.7216 81.0161 14.1667C74.5537 23.4844 64.1574 19.0672 58.2723 19.9041L56.688 20.4322ZM57.507 20.0473C63.8844 18.8077 72.4771 18.3154 81.0161 14.1757L57.507 20.0473ZM56.5224 19.9936C58.6035 18.3825 59.315 17.7291 59.5299 14.7843C59.7715 11.5039 62.9177 8.51878 65.1062 5.99915C64.8332 8.31739 65.2449 11.2398 64.3767 13.5804C63.1683 16.8251 59.7626 19.1344 56.4553 20.5307L56.5224 19.9936ZM56.3747 20.3293C62.9669 17.2458 64.1932 8.07125 65.1062 6.00811L56.3747 20.3293ZM59.0018 19.8236C64.5915 21.475 67.2499 20.2264 73.6765 24.1871C66.404 25.74 61.9152 20.6068 59.0018 19.8236Z" stroke="#3E0B3D" stroke-width="0.75" stroke-miterlimit="22.93"/>
<path fill-rule="evenodd" clip-rule="evenodd" d="M34.7543 14.6591C34.5294 15.0764 34.2752 15.4772 33.9935 15.8585C33.6533 16.221 33.264 16.6909 33.4609 17.1743L35.345 17.5547C35.6001 16.8923 35.1436 17.219 35.4569 16.6954C36.4326 16.955 35.5688 17.7158 36.5847 17.6621C36.531 17.4428 35.8418 16.6014 35.6225 16.2345C35.3596 15.6952 35.0699 15.1694 34.7543 14.6591ZM36.8264 17.1385C36.9634 17.6243 37.2698 18.045 37.6901 18.3244C37.5466 17.8418 37.2417 17.4232 36.8264 17.1385ZM33.2908 18.2618C33.8145 18.3392 34.3418 18.39 34.8707 18.414C34.5663 18.217 33.6981 17.9888 33.2908 18.2618ZM38.4778 18.8749L38.2496 18.763L38.4778 18.8749ZM36.625 18.9868C36.4236 18.6332 36.2491 18.8167 35.8105 18.7138C35.26 18.584 35.6225 18.5079 34.9154 18.5795C35.4387 18.8861 36.0423 19.028 36.6474 18.9868H36.625ZM36.625 18.9868C36.8667 19.2867 36.6563 19.139 36.992 19.1748L36.625 18.9868ZM45.5757 21.0499L45.701 20.853L45.5757 21.0499ZM45.5757 21.0499L45.4549 21.2469L45.5757 21.0499ZM38.6613 21.2692L38.536 21.1574L38.6613 21.2692ZM38.7866 21.3766L38.6613 21.2692L38.7866 21.3766ZM57.6995 17.4607C57.6995 17.2772 57.7219 17.0713 57.7353 16.8386C57.7235 16.193 57.6257 15.5519 57.4444 14.9321C57.1804 14.1131 56.5493 14.2653 55.8557 13.8983C55.614 14.1937 55.887 13.9744 55.5334 14.0952C55.3768 13.8088 55.2112 13.3076 55.0501 12.9764C53.6448 12.4796 53.8775 12.3543 53.3674 12.1484C52.6916 11.8754 52.799 12.1708 52.3201 12.0903C51.8412 12.0097 51.9218 11.7725 51.2371 11.9873L47.5315 13.4821C46.6812 13.9789 45.8353 15.5408 45.5802 16.3732C45.3833 17.0132 44.7791 19.6268 45.1595 20.2847C45.1998 19.7566 44.9939 19.7521 45.8711 19.0987C45.8711 19.5462 45.6339 19.8371 45.5892 20.2891C46.444 19.6313 46.0635 18.8615 47.4464 18.1141C47.3972 18.5258 46.8736 18.951 46.7886 19.4075C47.3435 19.3135 47.5136 19.0137 48.1043 19.0002C48.1043 19.7566 46.7617 19.8953 46.2873 20.3876C46.444 21.1932 46.5021 20.2131 46.6901 21.2334C46.6847 21.2525 46.6847 21.2726 46.6901 21.2916L48.0327 20.2623L48.5832 20.5845L47.9477 20.947C48.0197 21.3144 48.1987 21.6523 48.4623 21.9182C48.8696 21.7526 48.8383 21.8958 49.1874 21.6899C49.7871 21.3409 49.0576 21.7436 49.4335 21.1395L49.8005 21.5154C50.2322 21.3146 50.6817 21.1542 51.1431 21.0365C53.1167 20.3294 53.5508 19.6357 54.1058 19.5641C54.3072 19.5418 54.5533 19.4746 54.8084 19.4343C54.701 19.9132 53.7925 19.9803 53.3718 20.4816C53.6669 20.4961 53.9616 20.4459 54.2353 20.3346C54.5089 20.2233 54.7549 20.0535 54.9561 19.8371C55.3768 20.2847 55.7438 20.2847 56.4643 20.2847C57.3594 19.2106 57.5831 18.8704 57.6771 17.9575L57.7174 17.4473L57.6995 17.4607ZM42.3669 21.1574C41.9731 21.2513 42.0715 21.2558 41.7806 21.5243C41.9328 21.6183 42.1655 21.8824 42.3848 21.6989C42.9129 21.2513 42.1745 21.6586 42.3848 21.1574H42.3669ZM47.2048 21.8108L47.0839 21.9182L47.2048 21.8108ZM38.4286 12.2469C37.3053 12.2469 35.4435 12.1663 35.2958 13.9028C35.2511 14.3816 35.6762 15.1917 35.891 15.6616C36.1819 16.2882 36.0879 16.7044 36.8443 17.1385C36.6832 16.597 36.2535 16.0823 36.5579 15.599C36.6608 15.6706 38.2898 18.0515 38.536 18.3961C39.0641 19.1255 38.536 19.0137 39.5027 19.6357C39.9278 19.9132 40.5409 20.5308 41.0019 20.589L40.3843 20.0117C40.6842 19.8103 40.7916 19.8998 41.0959 19.9445C41.2704 18.9913 41.1227 19.6402 39.8517 17.8769C39.3281 17.1474 38.7016 16.1897 39.0417 15.308C39.3057 15.5676 39.8741 17.0132 40.4872 17.9933C40.805 18.499 40.89 18.3065 41.3823 18.6377L41.7224 19.9445L41.1451 20.1414L41.8701 20.5398L42.3535 20.1817C42.7652 20.4458 42.4877 20.2981 42.7518 20.6293C43.0427 20.1817 42.8771 20.3473 42.613 20.0743C42.4439 19.9186 42.3189 19.721 42.2505 19.5015C42.0262 19.0325 41.8925 18.5253 41.8567 18.0067C42.8279 19.215 42.1968 18.8615 42.6936 19.6223L42.7204 18.4498L43.4768 19.8506C43.6603 20.3249 44.0049 20.8486 43.7811 21.3409L44.4166 21.5557C44.2152 21.672 44.3003 21.7884 43.347 21.5199L42.8995 20.7367C42.3445 21.4393 43.168 21.5064 43.347 21.8242C43.3739 21.8734 43.3201 21.8242 43.4276 22.0032C43.4544 22.0435 43.5797 22.1956 43.6155 22.2359C44.345 21.5064 45.0074 22.2359 45.1058 20.9202C44.6986 20.8665 45.428 20.853 44.9805 20.9202C44.7523 20.9649 45.0879 20.9515 44.8239 20.9515C44.2286 20.4189 42.9666 18.2886 43.4813 17.6666C43.808 18.1141 43.5887 18.0649 43.7945 18.4095C43.8796 17.5681 43.6558 16.7044 44.1347 16.0107C44.4524 16.4582 43.7587 18.0112 44.166 18.7317C44.3137 18.5393 44.3942 16.5209 44.3898 16.1405C44.3898 15.0888 44.3003 14.6725 43.4947 13.9386C42.2326 12.7884 42.6265 13.1464 41.351 12.9764C40.72 12.8958 40.2993 12.1708 38.9611 12.1082C38.6479 12.6318 38.8045 13.4194 38.7418 14.0639C38.1198 13.6164 38.4912 12.8108 38.4778 12.2245L38.4286 12.2469ZM47.0974 21.9182L46.9765 22.0301L47.0974 21.9182ZM40.4649 23.6591L40.2187 23.5517L40.4649 23.6591ZM40.4649 23.6591L40.6931 23.771L40.4649 23.6591ZM35.4122 24.1066C36.0157 23.9481 36.6307 23.8374 37.2515 23.7754C38.1153 23.7441 38.6837 23.9366 39.4892 23.8605C38.8664 23.5166 38.1471 23.3891 37.444 23.498C36.7235 23.6054 35.8508 23.5204 35.4301 24.1066H35.4122ZM35.0407 24.214C35.0407 24.214 35.0765 24.214 35.0855 24.1782C35.0944 24.1424 34.8751 24.0708 35.0407 24.214ZM49.5141 24.6616C49.6438 24.7735 49.89 24.5228 49.6528 24.6079C49.6528 24.6079 49.344 24.5184 49.5141 24.6616ZM45.9338 25.2881L46.2291 24.59C45.7234 24.5407 45.5802 24.4691 45.2401 24.6929C45.2818 24.8507 45.3705 24.9921 45.4943 25.0984C45.6182 25.2047 45.7715 25.2709 45.9338 25.2881ZM46.8915 25.9505C46.9935 25.9033 47.0805 25.8291 47.1431 25.7358C47.2058 25.6426 47.2416 25.5339 47.2467 25.4217C47.2518 25.3095 47.2259 25.198 47.172 25.0995C47.118 25.0009 47.038 24.9191 46.9407 24.863C46.8141 25.0136 46.7407 25.2018 46.7318 25.3984C46.7229 25.595 46.779 25.789 46.8915 25.9505ZM50.9193 25.5343C51.0491 25.6417 51.2953 25.3911 51.0536 25.4761C51.0536 25.4761 50.7493 25.3866 50.9193 25.5343ZM40.2411 23.5785C39.6817 23.131 38.3972 22.9967 38.2585 22.2807C38.7553 22.4865 39.355 22.7506 39.8696 22.9117C40.5365 23.122 41.1406 23.5472 41.7269 23.2608C41.4673 22.7282 41.4584 23.1757 40.5096 22.5581C40.2187 22.3657 39.6727 21.9271 39.3684 21.6899C39.1491 21.6899 39.2118 21.9182 38.5807 21.6273C36.5668 20.7009 37.4887 21.1126 35.1257 20.9515C35.3182 19.7655 37.6633 20.9918 38.5718 21.1842L37.717 20.6203L37.6857 20.316C38.4708 20.5567 39.1893 20.9765 39.7846 21.5422C40.1103 21.822 40.5095 22.0023 40.9348 22.0614C41.7224 22.2494 41.2525 22.585 42.1924 22.5984C41.7941 21.9316 38.9432 19.958 38.1645 19.7745C38.4062 20.0833 38.4823 19.9669 38.4644 20.222C38.0429 20.1598 37.6398 20.0071 37.2829 19.7745C36.4952 19.3985 33.8995 18.6064 32.8075 18.7451C31.7916 18.8704 31.3038 19.5149 30.3998 19.9803C30.2015 20.0492 30.0197 20.1583 29.8657 20.3007C29.7116 20.4432 29.5887 20.616 29.5047 20.8083C29.1735 21.766 29.7329 21.0992 28.9497 22.0345C29.2541 22.952 29.2183 22.5223 28.8558 23.4398C28.5738 24.1559 28.547 24.2856 28.8558 25.0151H28.9945C29.0619 25.0206 29.1282 25.0357 29.1914 25.0599C29.5315 25.1673 28.999 25.1181 29.6389 25.1941C31.0263 25.3597 31.6618 24.2991 32.4539 24.1066C32.3555 25.3866 30.4445 25.946 29.3212 25.4224V25.9281L30.4535 26.4965C30.612 26.3648 30.7811 26.2466 30.9592 26.1429C32.0243 25.6954 32.0288 24.9883 32.6016 25.1852C32.5256 24.7153 32.3779 25.0241 32.6509 24.6795C33.3222 24.7735 32.7359 25.0599 33.1745 24.8988C33.716 24.6974 32.9686 24.7242 33.622 24.3528C34.262 24.5318 33.2058 24.948 34.7453 24.3528C34.7095 23.95 34.6335 24.5497 34.5887 23.9052C36.7682 23.1265 34.8751 23.6143 37.1978 23.2787C37.7545 23.2095 38.3166 23.1945 38.8761 23.2339C39.4848 23.2697 39.6817 23.5159 40.2456 23.5606L40.2411 23.5785ZM44.6449 25.0107C44.2958 25.4582 44.7433 26.2906 45.3788 25.9773C45.1864 25.579 45.2893 25.8878 44.9939 25.5298C44.8597 25.3597 44.7657 25.1583 44.6449 25.0151V25.0107ZM46.1217 26.313C46.2202 26.1519 46.3365 26.3398 46.1531 25.9863C45.9338 26.2548 45.9069 26.0489 46.1217 26.313ZM61.338 25.7938C62.1391 25.6775 62.0272 26.1832 62.9402 25.758C62.7522 23.046 59.615 21.1932 57.7666 20.9381C56.9029 20.8172 55.4529 20.4905 54.6339 20.5621L54.5309 20.947C53.4404 21.0187 52.3753 21.3078 51.3982 21.7973C51.1284 21.8191 50.8632 21.8794 50.6105 21.9764C50.0645 22.2135 50.3823 22.1688 50.2525 22.3523C50.0243 22.6835 49.2769 22.7327 48.9099 22.952C49.1023 23.3011 48.8696 23.037 49.3843 23.2071C49.0844 23.6546 49.1963 23.3816 49.3037 23.6546C49.3852 23.86 49.4393 24.0751 49.4648 24.2946L49.975 24.0529C50.3756 23.6304 50.8466 23.2806 51.3669 23.0191L51.613 23.31C51.1655 23.583 50.8925 23.3906 50.5703 23.9724C51.8905 24.1156 52.4051 23.668 53.3584 24.0126C55.3455 24.7287 56.245 25.4985 57.874 26.6218C59.0287 27.4184 58.8273 27.3244 59.691 28.3224C61.2485 28.4522 62.976 26.9798 62.9088 26.4472C62.3763 26.0758 61.5662 26.5323 61.3514 25.7804L61.338 25.7938ZM40.5857 27.0559C40.5857 27.0559 40.6215 27.0559 40.626 27.0156C40.6305 26.9753 40.4156 26.9082 40.5857 27.0559ZM39.8428 27.0559C40.2376 26.9182 40.6207 26.7491 40.9885 26.5502C41.4435 26.457 41.892 26.3344 42.3311 26.1832C41.7761 25.8073 41.6956 26.1295 40.9885 26.3354C40.7574 26.3655 40.5356 26.4456 40.3385 26.57C40.1415 26.6944 39.9738 26.8602 39.8473 27.0559H39.8428ZM39.1043 27.0559L38.9835 27.1633L39.1043 27.0559ZM38.9835 27.1633L38.8627 27.2707L38.9835 27.1633ZM43.0695 27.49C43.0695 27.49 43.1053 27.49 43.1098 27.4497C43.1143 27.4095 42.8995 27.3423 43.0695 27.49ZM30.5788 27.2707C30.2655 27.4721 30.261 27.3871 30.4356 27.6959L30.5788 27.2707ZM44.0675 27.942C44.1705 27.7809 44.2868 27.9689 44.1033 27.6153C43.884 27.8838 43.8527 27.678 44.0675 27.942ZM48.5161 27.4945L49.0128 28.2508C49.532 27.8659 48.8517 27.5348 48.5161 27.4945ZM44.9358 28.3358C44.9358 28.3358 44.9716 28.3358 44.9805 28.3C44.9895 28.2642 44.7657 28.1926 44.9358 28.3358ZM49.165 29.4234L48.986 28.6715C48.7532 28.9266 48.986 29.1996 49.165 29.4234ZM49.4201 28.7879C49.4604 28.9714 49.4201 29.0027 49.5857 29.1504C49.7513 29.2981 49.5006 29.3428 50.0332 29.1772C49.805 28.8953 49.7692 28.846 49.438 28.7879H49.4201ZM49.165 29.4234L49.2276 29.7903C49.5275 29.7903 49.344 29.8799 49.6438 29.6024L49.165 29.4234ZM46.5916 30.1842C46.5916 30.1842 46.6274 30.1842 46.6319 30.1439C46.6364 30.1036 46.4216 30.0365 46.5916 30.1842ZM46.8512 30.7257C46.8512 30.7257 46.887 30.7257 46.896 30.6899C46.9049 30.6541 46.6811 30.5825 46.8512 30.7257ZM49.344 31.6208C49.2121 31.0051 49.0156 30.4051 48.7577 29.8306C48.534 29.1862 48.4042 29.4816 47.9522 28.7744L47.6881 28.403C47.339 28.8505 47.8089 28.5372 48.4221 29.9112C48.6603 30.5213 48.9698 31.1011 49.344 31.6387V31.6208ZM38.0571 34.7535L37.9363 34.8609L38.0571 34.7535ZM32.8746 35.2279C33.099 35.4978 33.4067 35.6856 33.7493 35.7618C34.0919 35.8379 34.4501 35.7981 34.7677 35.6486C35.6092 35.0641 36.3692 34.3703 37.0278 33.5855C36.0342 33.7108 35.3674 35.568 33.895 35.4964C33.9711 35.2548 34.0203 35.2727 34.3426 35.0489C34.5216 34.9325 34.7453 34.8162 34.9244 34.6954C37.162 33.2185 36.6563 32.6635 37.4529 31.7685C37.9676 31.8132 37.1978 31.7371 37.6812 31.9027C38.0661 32.037 37.5738 31.7819 38.0034 31.9027C37.8423 32.4666 37.6409 32.5024 37.4127 32.9097C37.1397 33.4064 37.7483 33.299 37.1486 33.9524C36.7011 34.4268 35.8821 35.1205 35.6136 35.6083C37.4932 35.6083 37.4037 35.1295 38.263 34.0957C38.2854 34.4805 38.263 34.3821 38.0661 34.7401C39.2968 34.4492 40.7871 31.7237 40.8766 31.6342C41.2928 31.2225 40.9079 32.0817 42.0626 30.0991C42.4722 29.5059 42.8187 28.8714 43.0964 28.2061C42.7675 28.0693 42.4759 27.8561 42.2461 27.584L41.5255 28.2284C41.4136 27.4855 41.7582 27.2976 42.2953 26.9485C41.8925 26.6979 41.9238 26.8724 41.5524 27.2125C41.1496 27.123 41.3957 26.9574 40.8676 27.2528C38.9656 28.3179 39.7801 28.1747 38.9298 28.761C38.8493 28.045 39.2476 27.9554 39.6101 27.4587C39.0014 27.5079 39.2386 27.678 38.6479 27.7675L38.8627 27.2394C38.263 26.8411 40.6528 25.7938 41.9954 25.6999C41.9954 25.6238 41.6643 24.8898 41.624 24.8316C41.3924 24.9374 41.1439 25.001 40.89 25.0196C40.6254 24.9465 40.3666 24.8538 40.1158 24.7421L40.6126 24.4691C40.1919 23.9142 40.0218 24.2319 39.534 24.2364C38.9664 24.1939 38.3965 24.1939 37.8289 24.2364C37.5746 24.3008 37.3108 24.319 37.0502 24.2901C36.1551 24.214 36.3565 24.2901 34.9154 24.7108C33.6607 25.0187 32.4977 25.6216 31.5231 26.4696C31.1292 26.85 30.6951 26.7784 30.5609 27.2349L30.7712 27.132L30.8115 27.3468L31.089 27.2662C31.7289 28.855 29.0213 29.5039 29.3346 30.8868C29.6255 32.1712 29.8538 31.8445 30.2028 32.0101C30.2342 32.4308 30.3819 32.4129 30.3147 32.8604C30.2744 33.1379 30.1402 33.308 30.0999 33.6571L30.6011 33.9838C31.2853 33.9454 31.9508 33.746 32.5435 33.402C32.9418 33.1066 33.4385 32.4532 33.7473 32.2429C33.8279 32.95 33.8234 32.6904 33.5057 33.0618L32.8388 33.7287C34.4589 33.769 36.1909 30.7526 36.5444 30.4617C36.992 30.0812 36.5444 30.5333 37.1889 30.2782C36.7772 31.9296 34.808 33.0708 34.1591 33.6213C33.5101 34.1717 33.264 33.9838 32.5479 34.0688C32.4985 34.4659 32.6008 34.8671 32.8344 35.1921L32.8657 35.2324L32.8746 35.2279ZM50.2525 29.1996C51.0223 29.1414 50.5121 28.7118 51.5951 28.7968L51.1476 29.0385L51.2729 29.5129C50.8701 29.3697 51.1207 29.3607 50.7851 29.4905C51.2058 30.0902 52.3112 31.3523 51.7741 32.0101C51.4698 31.6521 51.3758 31.1151 51.1252 30.6675C50.8889 30.2396 50.6148 29.8337 50.3062 29.4547C49.89 29.9336 50.0959 30.0768 49.4111 30.0902C49.4111 30.1931 50.1898 31.8803 50.3062 32.0817C50.4942 32.4487 51.2416 33.4736 51.528 33.8719C52.611 35.3532 52.8079 36.0648 54.9114 36.4989L54.7681 36.2036C55.5066 36.1498 54.8666 36.3378 55.7348 36.4855H55.8109L56.1689 36.5526C56.7134 36.5979 57.2234 36.8378 57.6055 37.2284C57.9636 36.7809 57.8741 36.3915 57.8606 35.8366C56.8447 35.6397 57.1446 35.9887 56.245 34.9415C56.0391 34.6998 54.983 34.0464 54.6205 33.7376C54.1628 33.298 53.745 32.8188 53.3718 32.3055C52.9243 31.7282 52.3246 31.3567 52.2888 30.6093C53.2555 31.1643 54.5668 33.7063 56.8492 34.8475C57.2159 34.9765 57.5684 35.1429 57.9009 35.3443C58.1694 35.577 58.3484 35.8858 58.6393 36.123C59.4897 36.2125 60.0357 35.8679 59.9103 35.0937C59.3106 34.7133 59.1674 34.9862 58.5677 34.306C58.1873 33.8585 57.6727 33.8585 57.7532 33.1827C58.1605 33.1558 61.1813 36.8256 60.7472 32.677C60.6488 31.7416 60.246 32.1489 60.0715 30.6138C59.9282 29.3607 59.2346 27.8615 57.9904 27.1544C57.2475 26.7337 53.703 24.1782 52.4768 24.1603L51.3176 24.3528C50.8539 24.4029 50.3878 24.4283 49.9213 24.4289C50.1317 24.5989 50.1138 24.7108 50.2838 24.9659L50.7895 24.8272C51.2639 25.5074 50.6374 24.9077 51.7562 25.4179C52.8079 25.9013 55.0993 26.6889 55.2873 26.9127C54.8724 26.8851 54.4607 26.8222 54.0566 26.7247L54.428 27.0962C53.8641 27.0469 52.6065 26.2772 52.1501 25.955C51.6936 25.6327 51.8368 25.5074 51.4116 25.7088C51.5683 25.8296 51.3848 25.7088 51.6399 25.8565C52.9153 26.5905 54.9248 29.0295 54.6249 29.5308C54.334 29.3652 52.1366 26.7023 51.4922 26.3264C50.9596 26.0131 50.5971 25.7312 49.9392 25.7178C50.1496 26.3488 50.4449 25.8028 51.0715 26.3667C51.5772 26.8142 51.6533 26.6442 52.0874 27.2349C52.5215 27.8257 53.5822 28.4746 53.7075 29.1862C51.622 27.8838 51.0491 26.1071 50.0377 26.3354C50.0377 26.6979 50.0377 26.3354 50.1227 26.6352C50.2838 27.1857 50.2256 26.9351 50.8656 27.6645C50.7537 27.9286 50.5389 28.0494 50.5837 28.3627C50.8791 28.3627 50.9059 27.9644 51.2281 28.5059C50.3062 29.119 50.5926 28.3001 49.7781 27.7943C49.8587 28.2016 50.0019 28.0181 50.078 28.4343L50.2793 29.1951L50.2525 29.1996ZM55.0143 36.5929L54.889 36.481L55.0143 36.5929ZM55.3902 36.8077C55.9369 37.203 56.587 37.4301 57.2609 37.4611L55.3902 36.8077ZM35.1392 37.5685L34.8214 36.8032C34.7543 37.206 34.7588 37.3358 35.1392 37.5685ZM37.3769 38.5486C37.3769 38.5486 37.4127 38.5486 37.4171 38.5084C37.4216 38.4681 37.2068 38.401 37.3769 38.5486ZM36.5176 38.7635L36.7637 38.7142L36.5176 38.7635ZM36.5176 38.7635L35.8552 38.7993C35.6852 39.5556 36.992 40.5581 38.2406 40.661C38.7374 40.7058 38.903 40.5312 39.3863 40.3791C40.7709 39.9949 42.0145 39.2176 42.9666 38.1414C43.1769 37.8863 43.4678 37.6939 43.6692 37.4701L45.1998 34.7491C45.3124 34.3919 45.38 34.022 45.4012 33.6481C45.4012 33.4288 45.3743 33.2006 45.4012 33.0037C45.452 32.7861 45.4835 32.5644 45.4952 32.3413C45.5176 31.1867 45.4057 32.0817 45.6608 31.2046C45.721 30.7506 45.7315 30.2914 45.6921 29.8351C45.6921 29.8351 45.6339 29.8351 45.625 29.8351H45.3967C44.9816 29.7044 44.5956 29.4947 44.26 29.2175C43.6289 30.0141 43.3649 29.1951 43.4678 28.8953C43.6245 28.4164 43.611 28.94 43.7677 28.4477C43.1948 28.4791 43.3202 28.7163 42.801 29.5039C42.17 30.4303 42.1789 30.8465 41.2615 32.0057C40.993 32.3503 40.7602 32.8246 40.4514 33.2185C40.1064 33.5645 39.7402 33.8889 39.355 34.1896C38.7732 34.8162 39.6101 34.297 38.254 35.1563C36.6295 36.1857 35.2913 35.5457 34.9915 36.1767C34.9915 36.7182 35.4793 37.3224 35.6091 37.8773C35.1615 37.7476 35.6091 37.8773 35.1213 37.5641L34.9736 37.8908L35.533 38.5442C37.2336 37.855 36.8756 38.674 38.4733 36.8346C38.9611 36.9509 38.4733 36.9286 38.8582 36.9509C39.2118 36.5795 39.4221 36.0559 39.8786 35.9529C39.7622 36.5795 39.1849 36.8838 39.0954 37.4388C39.4758 37.3313 39.252 37.3716 39.5161 37.0404C40.3172 37.9624 37.8557 39.1842 36.173 39.0678C36.3072 38.7053 36.0521 39.0454 36.5131 38.759L36.5176 38.7635ZM54.2221 39.851C54.1863 40.0166 54.4191 39.9539 54.3698 39.851C54.1729 39.8286 54.2535 39.6899 54.2221 39.851ZM49.2992 31.5939C49.3395 32.3503 49.8408 32.6949 49.702 34.0822C49.2187 33.3706 49.5006 33.1872 49.0441 32.037C48.7935 31.4194 49.0441 31.9296 48.5966 31.6745C48.44 30.8331 48.0014 30.4572 47.6344 29.6516C47.4554 29.2578 47.4778 29.2041 47.1287 29.0877C46.8065 29.6248 47.7105 30.5377 47.8224 32.1175C47.3122 31.9833 47.8224 32.1757 47.4554 31.8087C47.169 31.5134 47.4554 31.6073 46.9631 31.6163C47.3525 32.0191 47.1376 31.6163 47.3525 32.0638C47.0839 32.3726 47.2137 32.2876 46.8378 32.3861L46.5111 31.9385C46.3321 32.3503 46.1217 32.3189 46.0367 32.5427C45.8577 32.9902 46.0635 32.7888 46.3634 33.0976C46.0098 33.3438 45.8532 33.223 46.1128 33.6929C46.3186 34.0733 46.4932 33.9077 46.3231 34.3642C45.7234 34.5074 46.4395 34.4089 45.804 34.2389C45.7682 35.4427 44.618 37.1523 43.7766 38.119C44.0944 39.0812 44.8731 40.8042 45.9159 41.2249C47.706 41.9455 46.5156 41.5874 47.8626 41.6725C50.436 41.8694 49.1516 41.9499 50.1496 42.1916C51.3445 42.478 51.3534 40.7282 51.4071 40.0748C51.7338 40.567 51.4071 40.576 52.0605 41.3458C52.8974 41.3458 53.4703 40.8982 54.2087 40.2493C53.6431 39.9063 53.1112 39.5107 52.62 39.0678C52.7453 37.9803 51.8144 38.1727 51.8278 37.1434C52.5842 37.6178 52.8348 38.75 54.5131 39.6183C54.7585 39.3258 54.94 38.9851 55.0456 38.6182C55.1512 38.2512 55.1786 37.8662 55.1262 37.488C54.5417 37.0377 53.8869 36.687 53.1883 36.4497C52.7408 36.2573 52.0561 35.3488 51.7517 34.9639C50.9328 33.9077 49.7513 32.0101 49.3171 31.5939H49.2992ZM34.347 36.2752C33.3759 35.9843 33.631 36.5526 32.5569 35.6531C31.7289 34.9639 32.351 34.6998 31.0934 34.7267C30.7544 34.7455 30.4177 34.6605 30.1282 34.483C29.8387 34.3055 29.6103 34.0439 29.4734 33.7331C29.1556 32.7262 30.0999 33.0395 29.1377 31.943C28.7841 31.5357 28.7349 30.5735 28.7394 30.0723C28.7394 29.1772 29.2943 29.0653 29.5271 28.2821C29.9343 26.9395 28.6544 25.9952 28.1844 24.7824C27.7861 23.7575 28.4127 23.592 28.5022 22.8714C28.547 22.5134 28.4127 22.3031 28.5291 21.9137C28.6454 21.5243 28.8021 21.3632 28.905 20.947C29.1064 20.1235 29.1825 19.9848 30.0373 19.6044C30.892 19.224 30.7399 18.8883 31.4067 18.3379C31.8542 17.9575 32.709 17.6576 32.8433 17.2325C33.17 16.2076 32.8075 16.4761 33.5728 15.4155C34.0203 14.771 33.81 14.413 34.3694 13.764C34.8169 13.2539 34.9199 12.5781 35.4569 12.2514C36.1121 11.9863 36.793 11.7899 37.4887 11.6651C38.4375 11.4727 38.63 11.3115 39.5922 11.6651C40.2366 11.8933 40.7289 12.3498 41.445 12.323C41.8093 12.2662 42.1819 12.2935 42.5341 12.4029C42.8862 12.5123 43.2087 12.7008 43.4768 12.954C44.1168 13.4597 44.1257 13.8133 44.5732 14.2698C45.2535 14.9679 45.258 14.4935 45.7682 14.2698C47.2227 13.6522 45.9114 13.2852 48.9009 12.4796C49.5477 12.3058 50.1701 12.0517 50.7537 11.7233C51.2595 11.4816 52.2977 11.6562 52.9914 11.6427C53.8865 11.6203 53.8865 12.1305 54.7816 12.4349C56.0033 12.8466 55.2291 13.3702 56.3166 13.6119C58.3574 14.0594 58.3261 15.232 58.2455 16.8386C58.2699 17.4935 58.2036 18.1487 58.0486 18.7854C57.968 19.0823 57.8539 19.3691 57.7085 19.6402C57.5026 19.9356 57.2609 19.9982 57.1177 20.3428C57.4131 20.6248 58.0128 20.495 58.4021 20.6248C58.8477 20.8055 59.2839 21.0086 59.709 21.2334C61.4633 22.1285 63.2892 23.395 63.1863 25.3329C63.1371 26.3488 63.5712 27.0559 62.5105 27.8212C61.4499 28.5865 61.2172 27.772 60.9755 29.6829C60.783 31.2001 61.3827 33.8137 61.2172 34.2344C61.0516 34.6551 60.5682 34.7804 60.4474 35.2234C60.3087 35.7381 60.5772 35.9619 59.9506 36.3557C59.3241 36.7495 59.0153 36.4631 58.3484 36.6242C57.8651 37.121 58.3484 37.5193 57.4534 37.8371C56.4822 38.1727 56.3345 37.7028 55.6006 37.7073C55.3857 38.0922 55.7885 38.4949 55.3455 39.3095C54.9024 40.124 54.4862 41.6859 53.0854 41.847C51.9934 41.9678 52.0382 41.3995 51.2953 42.2945C50.3599 43.4626 50.1093 42.3751 47.6434 42.1826C44.3763 41.932 43.6782 39.305 43.4097 39.0812C42.8413 38.6113 40.6976 41.2786 38.4868 41.1891C37.3769 41.1444 35.448 40.6163 35.2913 39.4616C35.1616 38.5352 34.7319 38.8037 34.441 38.0385C34.1501 37.2732 34.3918 36.6108 34.2754 36.311L34.347 36.2752Z" fill="#3E0B3D"/>
<path fill-rule="evenodd" clip-rule="evenodd" d="M46.9722 41.0463C47.8673 40.9791 49.6261 40.8807 50.5525 41.2566C50.6407 40.1463 50.4467 39.0317 49.9886 38.0164C49.8006 37.5689 49.5903 37.1214 49.3978 36.6738C49.2238 36.1281 49.1186 35.5629 49.0846 34.9911L50.6554 38.5401C50.9026 39.1434 51.0681 39.777 51.1477 40.4242V41.2611C51.1163 41.4248 51.0506 41.58 50.955 41.7165C50.8594 41.8531 50.7359 41.9678 50.5928 42.0532C49.8096 41.6415 50.2526 41.7041 48.8429 41.4938C48.3954 41.4267 48.3551 41.3416 47.9478 41.2879C47.4242 41.2119 47.4197 41.3282 46.9677 41.0552L46.9722 41.0463Z" fill="#3E0B3D"/>
<path fill-rule="evenodd" clip-rule="evenodd" d="M46.972 41.0463C46.6026 40.9822 46.2487 40.8485 45.9292 40.6525C45.8844 40.3392 46.0008 40.5943 45.9292 40.2944C45.8352 39.8469 45.9292 40.3347 45.6875 39.8469C46.2872 38.831 46.1127 37.7569 46.1127 36.8081C46.1127 36.3248 46.2246 36.2129 46.2111 35.7251H46.4573C46.4573 36.2398 46.2783 36.3114 46.3946 36.8932C46.6495 38.1015 46.6143 39.353 46.2917 40.5451L47.1868 40.8897L46.9675 41.0508L46.972 41.0463Z" fill="#3E0B3D"/>
<path fill-rule="evenodd" clip-rule="evenodd" d="M55.5469 14.086C56.2182 14.641 55.8199 15.2809 55.1352 16.2834C54.9114 16.6101 54.8443 16.7936 54.4997 16.9189C54.3341 16.637 54.4101 16.9189 54.4638 16.4714C53.976 16.7891 54.3117 16.637 54.1058 16.5698C54.6429 15.7553 54.8085 14.8244 55.5469 14.0726V14.086Z" fill="#3E0B3D"/>
<path fill-rule="evenodd" clip-rule="evenodd" d="M50.9373 18.2436C50.7806 19.0313 48.6145 20.1546 47.6926 20.1636C47.809 19.631 50.2436 18.2481 50.9373 18.2436Z" fill="#3E0B3D"/>
<path fill-rule="evenodd" clip-rule="evenodd" d="M41.23 16.1672C40.5901 16.4313 41.0107 16.1672 40.9839 14.753C40.9839 14.2518 40.9302 13.7371 40.9839 13.2448L41.6731 13.1016C41.606 13.6073 41.3195 14.2965 41.3732 14.8515C41.4314 15.478 41.6328 15.6347 41.5165 16.8027C41.1674 16.5253 41.3285 16.664 41.2524 16.1672H41.23Z" fill="#3E0B3D"/>
<path fill-rule="evenodd" clip-rule="evenodd" d="M50.3285 36.1764C50.7224 36.2436 50.5389 36.2839 50.973 36.3376C50.973 36.5792 50.7447 36.4047 51.0222 37.0626C51.2997 37.7204 51.792 39.4882 51.7338 40.0611C51.1699 39.4121 51.2863 38.9512 51.0222 38.1814C50.8477 37.6667 50.3464 36.6732 50.3285 36.1764Z" fill="#3E0B3D"/>
<path fill-rule="evenodd" clip-rule="evenodd" d="M47.9478 17.3534C48.534 16.9417 49.08 17.1386 49.8364 16.5165C50.1004 16.2972 50.6151 15.2455 51.3938 15.6214C51.1342 16.1629 51.0671 15.6886 50.5614 16.1988C49.6395 17.1386 50.8299 16.5434 49.0129 17.4205C48.8429 17.493 48.6587 17.5258 48.4741 17.5165C48.2896 17.5072 48.1096 17.456 47.9478 17.3668V17.3534Z" fill="#3E0B3D"/>
<path fill-rule="evenodd" clip-rule="evenodd" d="M47.7687 18.7402C48.0236 18.4908 48.3543 18.3334 48.7085 18.2926C49.8184 17.9928 50.6329 16.771 51.5325 16.5741C51.3311 17.2901 48.3594 19.2235 47.7687 18.7223V18.7402Z" fill="#3E0B3D"/>
<path fill-rule="evenodd" clip-rule="evenodd" d="M51.3489 18.1147C52.1098 17.8417 52.5528 17.1078 53.2241 16.3649C53.1427 16.8465 52.9919 17.3138 52.7766 17.7522C52.474 18.1422 52.1132 18.4833 51.707 18.7637L51.3445 18.1147H51.3489Z" fill="#3E0B3D"/>
<path fill-rule="evenodd" clip-rule="evenodd" d="M41.5121 25.3872C41.3063 25.8123 41.539 25.5035 40.8587 25.696C40.5902 25.7721 40.3217 25.875 40.0487 25.9556C39.4132 26.139 39.1536 26.4031 38.4555 26.3583C38.6031 25.6781 39.2386 25.8168 39.7981 25.6199C40.3575 25.423 40.8363 25.056 41.53 25.3872H41.5121Z" fill="#3E0B3D"/>
<path fill-rule="evenodd" clip-rule="evenodd" d="M57.413 24.6347C57.9366 24.3707 58.8988 24.675 59.4717 24.9167C60.0445 25.1583 59.8789 25.0106 59.9192 25.3642C59.4 25.2792 57.7576 24.9614 57.4264 24.6213L57.413 24.6347Z" fill="#3E0B3D"/>
<path fill-rule="evenodd" clip-rule="evenodd" d="M55.0725 28.4609C55.7975 28.5639 55.7931 28.9085 56.2406 29.262C56.6881 29.6156 57.1983 29.8438 57.3013 30.269C56.7284 30.175 55.2023 29.0562 55.0636 28.4788L55.0725 28.4609Z" fill="#3E0B3D"/>
<path fill-rule="evenodd" clip-rule="evenodd" d="M54.3118 24.0841C54.6966 23.8156 54.7056 23.829 55.2337 23.932C55.6056 23.9855 55.9714 24.0754 56.3257 24.2005C56.0386 24.4222 55.6807 24.5319 55.3187 24.5093C54.4237 24.5093 54.3744 24.2139 54.3118 24.0841Z" fill="#3E0B3D"/>
<path fill-rule="evenodd" clip-rule="evenodd" d="M51.4163 22.4999L50.8076 23.0101L50.6375 23.1533C50.3198 23.3637 50.5883 23.2563 50.2437 23.3145C50.2437 23.3145 50.5615 21.9718 51.4163 22.4999Z" fill="#3E0B3D"/>
<path fill-rule="evenodd" clip-rule="evenodd" d="M52.5574 14.3233C52.5574 14.6634 52.0785 15.6122 51.725 15.3078C51.4564 15.0751 51.8234 14.9722 52.0293 14.7932C52.1878 14.6179 52.3649 14.4604 52.5574 14.3233Z" fill="#3E0B3D"/>
<path fill-rule="evenodd" clip-rule="evenodd" d="M37.4352 26.2601C37.9275 26.2825 37.6858 26.184 38.0349 26.4033C37.932 27.0791 36.8355 27.1641 37.4352 26.2601Z" fill="#3E0B3D"/>
<path fill-rule="evenodd" clip-rule="evenodd" d="M43.2172 29.6162C43.611 29.8981 43.7184 30.1487 43.4991 30.5112C42.9934 30.3322 42.8905 29.9876 43.2172 29.6162Z" fill="#3E0B3D"/>
<path fill-rule="evenodd" clip-rule="evenodd" d="M43.6825 32.1617H43.9913C44.2464 32.4794 44.2464 32.4794 43.9913 32.7793C43.4722 32.7793 43.3468 32.5779 43.6646 32.1796L43.6825 32.1617Z" fill="#3E0B3D"/>
<path fill-rule="evenodd" clip-rule="evenodd" d="M39.7534 31.1777C39.8244 31.2414 39.8783 31.3218 39.9103 31.4116C39.9424 31.5015 39.9515 31.5979 39.9368 31.6921C39.9221 31.7864 39.8842 31.8754 39.8263 31.9513C39.7685 32.0271 39.6927 32.0874 39.6057 32.1265C39.5561 31.9676 39.5435 31.7994 39.5692 31.6349C39.5948 31.4704 39.6578 31.314 39.7534 31.1777Z" fill="#3E0B3D"/>
<path fill-rule="evenodd" clip-rule="evenodd" d="M50.1853 21.0317C50.2569 20.6737 50.3151 20.6379 50.7492 20.6334C50.7895 21.081 50.5165 21.3271 50.1853 21.0317Z" fill="#3E0B3D"/>
<path fill-rule="evenodd" clip-rule="evenodd" d="M37.4843 33.5765L38.2317 33.7287C37.9497 33.9883 38.0303 34.0106 37.6678 34.0733L37.4843 33.5765Z" fill="#3E0B3D"/>
<path fill-rule="evenodd" clip-rule="evenodd" d="M44.2421 30.6047C44.4346 30.9 44.4346 30.8732 44.2421 31.1685C44.0363 31.0925 43.9557 31.1909 43.902 30.9224C43.8483 30.6539 44.1571 30.6315 44.2287 30.6047H44.2421Z" fill="#3E0B3D"/>
<path fill-rule="evenodd" clip-rule="evenodd" d="M50.973 23.659C51.1411 23.5653 51.3315 23.5192 51.5239 23.5255C51.7163 23.5318 51.9033 23.5903 52.0649 23.6948C51.7104 23.8266 51.3181 23.8138 50.973 23.659Z" fill="#3E0B3D"/>
<path fill-rule="evenodd" clip-rule="evenodd" d="M50.1899 22.9162C50.154 23.0762 50.0692 23.2212 49.9474 23.331C49.8255 23.4408 49.6726 23.5101 49.5097 23.5293C49.5462 23.3695 49.6312 23.2249 49.7529 23.1152C49.8746 23.0055 50.0273 22.936 50.1899 22.9162Z" fill="#3E0B3D"/>
<path fill-rule="evenodd" clip-rule="evenodd" d="M50.1495 34.9414C50.2703 35.0801 50.3867 35.2054 50.512 35.3576L50.0644 35.5366C50.042 35.0891 49.9749 35.2278 50.1584 34.9414H50.1495Z" fill="#3E0B3D"/>
<path fill-rule="evenodd" clip-rule="evenodd" d="M55.6856 19.8462C56.0034 19.6895 55.8646 19.7298 56.3032 19.7746C55.7796 20.4369 55.7886 19.9401 55.6856 19.8462Z" fill="#3E0B3D"/>
<path fill-rule="evenodd" clip-rule="evenodd" d="M43.4363 33.3303C43.6198 33.6749 43.678 33.5227 43.3244 33.7778L43.0112 33.4511L43.4587 33.3258L43.4363 33.3303Z" fill="#3E0B3D"/>
<path fill-rule="evenodd" clip-rule="evenodd" d="M44.8596 39.3183L45.3474 39.4883L45.2087 39.8374C45.1186 39.7789 45.0397 39.7046 44.976 39.6181C44.8641 39.4525 44.8865 39.5107 44.8596 39.3183Z" fill="#3E0B3D"/>
<path fill-rule="evenodd" clip-rule="evenodd" d="M43.0697 33.8679C43.4545 34.0156 43.5172 33.8679 43.1726 34.3154C42.8862 34.0917 42.8772 34.1991 43.0697 33.8679Z" fill="#3E0B3D"/>
<path fill-rule="evenodd" clip-rule="evenodd" d="M40.8543 29.9421C41.0825 30.2778 41.0378 30.2912 40.7782 30.6045C40.72 30.1972 40.6618 30.2509 40.8543 29.9421Z" fill="#3E0B3D"/>
<path fill-rule="evenodd" clip-rule="evenodd" d="M39.3818 24.6347C39.6503 24.2901 39.5116 24.3482 39.8293 24.5675C39.6638 24.76 39.525 24.8003 39.3818 24.6347Z" fill="#3E0B3D"/>
<path fill-rule="evenodd" clip-rule="evenodd" d="M40.2814 30.8149C40.4963 31.1327 40.5052 31.0476 40.2546 31.3564C40.0935 31.0521 40.1114 31.0789 40.2814 30.8149Z" fill="#3E0B3D"/>
<path fill-rule="evenodd" clip-rule="evenodd" d="M39.3057 32.153C39.243 32.5334 39.3057 32.4707 38.9879 32.5513C39.0595 32.153 39.0148 32.2335 39.3057 32.153Z" fill="#3E0B3D"/>
<path fill-rule="evenodd" clip-rule="evenodd" d="M43.4364 33.3301L43.5393 32.9004L43.8213 33.1645L43.4364 33.3301Z" fill="#3E0B3D"/>
<path fill-rule="evenodd" clip-rule="evenodd" d="M50.0376 34.4362C50.4136 34.5033 50.2883 34.3959 50.3733 34.7271C50.145 34.6778 50.0466 34.7271 50.0376 34.4362Z" fill="#3E0B3D"/>
<path fill-rule="evenodd" clip-rule="evenodd" d="M45.1818 30.4085C45.2444 30.8158 45.2847 30.6726 45.1057 30.959C45.0207 30.78 45.043 30.6681 45.1818 30.4085Z" fill="#3E0B3D"/>
<path fill-rule="evenodd" clip-rule="evenodd" d="M50.3286 37.0269C50.0288 36.736 50.0646 36.7941 50.0959 36.3824L50.3286 37.0269Z" fill="#3E0B3D"/>
<path fill-rule="evenodd" clip-rule="evenodd" d="M46.0949 34.9818C46.4127 35.0668 46.2516 34.7894 46.3276 35.2861C45.9875 35.0713 46.0904 35.2861 46.0949 34.9818Z" fill="#3E0B3D"/>
<path fill-rule="evenodd" clip-rule="evenodd" d="M53.0897 28.9846C53.4164 29.186 53.4164 29.101 53.2553 29.4321L53.0897 28.9846Z" fill="#3E0B3D"/>
<path fill-rule="evenodd" clip-rule="evenodd" d="M39.3684 19.3136C39.3684 19.1838 39.6235 19.0719 39.5564 19.3136C39.4892 19.5553 39.3729 19.5105 39.3684 19.3136Z" fill="#3E0B3D"/>
<path fill-rule="evenodd" clip-rule="evenodd" d="M45.8844 18.114C45.8844 17.9887 46.1439 17.8768 46.0768 18.114C46.0097 18.3512 45.8933 18.3154 45.8844 18.114Z" fill="#3E0B3D"/>
<path fill-rule="evenodd" clip-rule="evenodd" d="M55.5245 19.2021C55.3455 19.05 55.4485 18.9918 55.6051 19.1618C55.7617 19.3319 55.708 19.3632 55.5245 19.2021Z" fill="#3E0B3D"/>
<path fill-rule="evenodd" clip-rule="evenodd" d="M51.595 29.3026C51.7114 29.1952 51.9888 29.4414 51.7382 29.3608C51.7382 29.3608 51.4294 29.4503 51.595 29.3026Z" fill="#3E0B3D"/>
<path fill-rule="evenodd" clip-rule="evenodd" d="M56.1643 18.875C56.2807 18.772 56.5582 19.0182 56.3076 18.9331C56.3076 18.9331 56.0032 19.0227 56.1643 18.875Z" fill="#3E0B3D"/>
<path fill-rule="evenodd" clip-rule="evenodd" d="M46.4888 17.5727C46.6097 17.4697 46.8871 17.7114 46.6365 17.6308C46.6365 17.6308 46.3277 17.7203 46.4888 17.5727Z" fill="#3E0B3D"/>
<path fill-rule="evenodd" clip-rule="evenodd" d="M43.7139 29.7504C43.8303 29.643 44.1077 29.8891 43.8571 29.8086C43.8571 29.8086 43.5483 29.8981 43.7139 29.7504Z" fill="#3E0B3D"/>
<path fill-rule="evenodd" clip-rule="evenodd" d="M34.0559 24.2001C34.1723 24.0972 34.4498 24.3433 34.1992 24.2583C34.1992 24.2583 33.8904 24.3478 34.0559 24.2001Z" fill="#3E0B3D"/>
<path fill-rule="evenodd" clip-rule="evenodd" d="M46.1397 32.6769C46.1397 32.4263 46.2918 32.6769 46.2158 32.6769C46.2158 32.6769 46.1442 32.9589 46.1397 32.6769Z" fill="#3E0B3D"/>
<path fill-rule="evenodd" clip-rule="evenodd" d="M44.354 20.9431C44.354 20.688 44.5062 20.9431 44.4301 20.9431C44.4301 20.9431 44.3585 21.2206 44.354 20.9431Z" fill="#3E0B3D"/>
<path fill-rule="evenodd" clip-rule="evenodd" d="M37.6633 20.2896L37.5461 20.2625L37.6182 20.1813L37.6633 20.2896Z" fill="#3E0B3D"/>
<path fill-rule="evenodd" clip-rule="evenodd" d="M53.0898 28.9848L52.9726 28.9577L53.0447 28.8765L53.0898 28.9848Z" fill="#3E0B3D"/>
<path fill-rule="evenodd" clip-rule="evenodd" d="M46.0679 34.7438C46.0679 34.7438 46.104 34.7889 46.104 34.7754C46.104 34.7618 46.104 34.7754 46.104 34.7754C46.104 34.7754 45.892 34.8791 46.0544 34.7303L46.0679 34.7438Z" fill="#3E0B3D"/>
<path fill-rule="evenodd" clip-rule="evenodd" d="M39.1356 24.7462C39.1356 24.7462 39.1716 24.7913 39.1716 24.7778C39.1716 24.7643 39.1716 24.7778 39.1716 24.7778C39.1716 24.7778 38.9552 24.877 39.1175 24.7327L39.1356 24.7462Z" fill="#3E0B3D"/>
<path fill-rule="evenodd" clip-rule="evenodd" d="M53.4789 29.8527C53.4789 29.8527 53.5195 29.8978 53.5195 29.8843C53.5195 29.8707 53.5195 29.8843 53.5195 29.8843C53.5195 29.8843 53.3031 29.988 53.4654 29.8392L53.4789 29.8527Z" fill="#3E0B3D"/>
<path fill-rule="evenodd" clip-rule="evenodd" d="M50.3286 37.0277L50.4629 37.2246L50.3286 37.0277Z" fill="#3E0B3D"/>
<path d="M7.4724 66.3765C19.3187 54.9911 23.2481 50.3054 26.269 43.9235C26.4032 43.6237 28.9318 39.2736 31.5946 34.0777L30.1222 36.2214C23.2884 43.024 6 47.5799 7.4724 66.3765ZM7.4724 66.3765C14.5166 52.6908 23.9015 43.109 30.9726 35.2906L7.4724 66.3765ZM34.8035 60.8986C35.1615 55.4879 36.3475 48.5466 33.4609 44.0712C30.9323 40.1329 31.3933 38.5889 32.4718 34.673L31.6528 34.1404C28.7617 39.1394 26.7881 45.0155 28.3679 50.3547C29.5181 54.2393 32.897 57.6271 34.8035 60.8986ZM34.8035 60.8986C33.9755 57.3452 26.4703 44.747 31.8676 34.3552L34.8035 60.8986ZM42.8636 49.8221C41.0287 45.9956 40.523 44.0041 36.4459 41.3189C35.0899 40.4328 33.5459 37.94 33.1476 35.9842L32.351 34.6058C30.1133 41.7082 33.4653 47.7545 42.8636 49.8221ZM42.8636 49.8221C38.3614 46.5237 29.4778 43.3776 32.53 34.6774L42.8636 49.8221ZM84.9053 10.9983C87.2322 11.2619 89.5412 11.6654 91.8197 12.2066C106.657 15.7425 119.482 25.0272 127.473 38.0185C135.465 51.0098 137.969 66.6435 134.434 81.4808C134.197 82.4565 133.942 83.4276 133.655 84.3898M55.6229 120.927C43.5309 115.693 33.6029 106.466 27.4995 94.7886C21.3962 83.1115 19.4877 69.6926 22.0934 56.7768M29.2719 37.027C20.4107 40.3209 18.182 44.5322 6 45.651C13.9214 36.5526 24.7563 38.8619 29.2719 37.027ZM6.35356 45.2348C7.66484 44.9663 12.4893 42.5496 14.6912 41.9141C18.1954 40.9206 22.2545 39.3318 25.9243 38.4367L6.35356 45.2348Z" stroke="#3E0B3D" stroke-width="0.75" stroke-miterlimit="22.93"/>
</g>
</svg>
