<svg width="176" height="159" viewBox="0 0 176 159" fill="none" xmlns="http://www.w3.org/2000/svg">
<g opacity="0.3">
<path d="M72.8453 167.21C69.9544 157.677 59.9968 143.608 74.1302 134.537M73.2565 151.522C75.8262 159.167 74.2844 160.041 72.8453 167.21C61.6157 154.156 63.3374 141.719 74.4257 134.087L73.2565 151.522Z" stroke="#3E0B3D" stroke-width="0.57" stroke-miterlimit="22.93"/>
<path d="M26.0866 121.932C28.2323 122.934 37.6503 124.63 41.4149 126.082C47.428 128.395 54.6746 130.258 60.8162 132.879M73.8446 132.905C64.4651 137.479 56.1522 140.999 55.6639 141.256C44.6013 147.077 33.2047 149.299 4 150.893C22.5533 124.142 52.4004 136.823 69.2962 134.421L73.8446 132.905ZM71.4933 134.01C53.1841 137.569 28.515 138.982 4 150.867L71.4933 134.01ZM74.32 134.164C68.3454 138.789 66.3025 140.665 65.6858 149.119C64.9919 158.537 55.9594 167.107 49.6765 174.341C50.4603 167.686 49.2782 159.296 51.7708 152.576C55.2399 143.261 65.0176 136.631 74.5127 132.622L74.32 134.164ZM74.744 133.2C55.8181 142.053 52.2976 168.392 49.6765 174.315L74.744 133.2ZM67.2019 134.652C51.1541 129.911 43.5221 133.496 25.0716 122.125C45.9504 117.666 58.8375 132.404 67.2019 134.652Z" stroke="#3E0B3D" stroke-width="0.75" stroke-miterlimit="22.93"/>
<path fill-rule="evenodd" clip-rule="evenodd" d="M136.811 149.477C137.457 148.279 138.187 147.129 138.996 146.034C139.972 144.993 141.09 143.644 140.525 142.256L135.115 141.164C134.383 143.066 135.694 142.128 134.794 143.631C131.993 142.886 134.473 140.702 131.556 140.856C131.71 141.486 133.689 143.901 134.319 144.955C135.073 146.503 135.905 148.012 136.811 149.477ZM130.863 142.359C130.469 140.964 129.59 139.757 128.383 138.954C128.795 140.34 129.67 141.542 130.863 142.359ZM141.013 139.134C139.509 138.912 137.996 138.766 136.477 138.697C137.351 139.263 139.844 139.918 141.013 139.134ZM126.121 137.374L126.777 137.695L126.121 137.374ZM131.441 137.053C132.019 138.068 132.52 137.541 133.779 137.837C135.359 138.209 134.319 138.428 136.349 138.222C134.846 137.342 133.114 136.935 131.376 137.053H131.441ZM131.441 137.053C130.747 136.192 131.351 136.616 130.387 136.513L131.441 137.053ZM105.744 131.13L105.384 131.695L105.744 131.13ZM105.744 131.13L106.091 130.564L105.744 131.13ZM125.595 130.5L125.954 130.821L125.595 130.5ZM125.235 130.192L125.595 130.5L125.235 130.192ZM70.937 141.434C70.937 141.961 70.8728 142.552 70.8342 143.22C70.8681 145.074 71.1489 146.914 71.6694 148.694C72.4274 151.045 74.2391 150.608 76.2306 151.662C76.9244 150.814 76.1406 151.443 77.1557 151.096C77.6054 151.919 78.0808 153.358 78.5433 154.308C82.5778 155.735 81.9096 156.094 83.3744 156.685C85.3145 157.469 85.0061 156.621 86.3809 156.852C87.7557 157.084 87.5244 157.765 89.4903 157.148L100.129 152.857C102.57 151.43 104.998 146.946 105.731 144.556C106.296 142.719 108.031 135.215 106.939 133.327C106.823 134.843 107.414 134.856 104.896 136.732C104.896 135.447 105.577 134.612 105.705 133.314C103.251 135.203 104.343 137.413 100.373 139.558C100.514 138.376 102.018 137.156 102.262 135.845C100.668 136.115 100.18 136.976 98.4842 137.014C98.4842 134.843 102.339 134.445 103.701 133.031C103.251 130.718 103.084 133.532 102.544 130.603C102.56 130.548 102.56 130.49 102.544 130.436L98.6898 133.391L97.1094 132.466L98.9339 131.425C98.7272 130.37 98.2131 129.4 97.4563 128.637C96.2871 129.112 96.3771 128.701 95.3749 129.292C93.6532 130.294 95.7475 129.138 94.6682 130.873L93.6146 129.793C92.3751 130.37 91.0847 130.83 89.7601 131.168C84.0939 133.198 82.8476 135.19 81.2544 135.395C80.6762 135.46 79.9695 135.652 79.2371 135.768C79.5455 134.393 82.1538 134.2 83.3615 132.761C82.5144 132.72 81.6683 132.864 80.8827 133.183C80.097 133.503 79.3907 133.99 78.8131 134.612C77.6054 133.327 76.5518 133.327 74.4832 133.327C71.9135 136.41 71.2711 137.387 71.0012 140.008L70.8856 141.473L70.937 141.434ZM114.956 130.821C116.087 130.551 115.804 130.539 116.639 129.768C116.202 129.498 115.534 128.74 114.905 129.267C113.389 130.551 115.509 129.382 114.905 130.821H114.956ZM101.067 128.945L101.414 128.637L101.067 128.945ZM126.263 156.403C129.488 156.403 134.833 156.634 135.257 151.649C135.385 150.274 134.165 147.948 133.548 146.599C132.713 144.8 132.983 143.606 130.811 142.359C131.274 143.914 132.507 145.392 131.633 146.779C131.338 146.574 126.661 139.738 125.954 138.749C124.438 136.655 125.954 136.976 123.179 135.19C121.958 134.393 120.198 132.62 118.875 132.453L120.648 134.111C119.787 134.689 119.479 134.432 118.605 134.303C118.104 137.04 118.528 135.177 122.177 140.239C123.68 142.334 125.479 145.083 124.502 147.614C123.744 146.869 122.113 142.719 120.352 139.905C119.44 138.453 119.196 139.006 117.783 138.055L116.806 134.303L118.464 133.738L116.382 132.594L114.995 133.622C113.813 132.864 114.609 133.288 113.851 132.337C113.016 133.622 113.491 133.147 114.249 133.931C114.735 134.378 115.094 134.945 115.29 135.575C115.934 136.922 116.318 138.378 116.421 139.867C113.633 136.398 115.444 137.413 114.018 135.228L113.941 138.595L111.77 134.573C111.243 133.211 110.253 131.708 110.896 130.294L109.071 129.678C109.65 129.344 109.405 129.01 112.142 129.781L113.427 132.029C115.02 130.012 112.656 129.819 112.142 128.907C112.065 128.766 112.219 128.907 111.911 128.393C111.834 128.277 111.474 127.84 111.371 127.725C109.277 129.819 107.375 127.725 107.093 131.502C108.262 131.656 106.168 131.695 107.452 131.502C108.108 131.374 107.144 131.412 107.902 131.412C109.611 132.941 113.234 139.057 111.757 140.843C110.819 139.558 111.448 139.7 110.857 138.71C110.613 141.126 111.256 143.606 109.881 145.597C108.969 144.312 110.96 139.854 109.791 137.785C109.367 138.338 109.136 144.132 109.149 145.224C109.149 148.244 109.405 149.439 111.718 151.546C115.341 154.848 114.211 153.82 117.873 154.308C119.684 154.54 120.892 156.621 124.734 156.801C125.633 155.298 125.183 153.036 125.363 151.186C127.149 152.471 126.083 154.784 126.121 156.467L126.263 156.403ZM101.375 128.637L101.722 128.316L101.375 128.637ZM120.417 123.639L121.123 123.947L120.417 123.639ZM120.417 123.639L119.761 123.318L120.417 123.639ZM134.923 122.354C133.19 122.809 131.424 123.127 129.642 123.305C127.162 123.395 125.53 122.842 123.218 123.061C125.006 124.048 127.071 124.414 129.089 124.102C131.158 123.793 133.663 124.037 134.871 122.354H134.923ZM135.989 122.046C135.989 122.046 135.886 122.046 135.861 122.149C135.835 122.251 136.464 122.457 135.989 122.046ZM94.4369 120.761C94.0643 120.44 93.3577 121.159 94.0386 120.915C94.0386 120.915 94.9252 121.172 94.4369 120.761ZM104.716 118.962L103.868 120.966C105.32 121.108 105.731 121.313 106.707 120.671C106.588 120.218 106.333 119.812 105.977 119.507C105.622 119.202 105.182 119.012 104.716 118.962ZM101.966 117.061C101.673 117.196 101.424 117.409 101.244 117.677C101.064 117.944 100.961 118.256 100.946 118.579C100.932 118.901 101.006 119.221 101.161 119.504C101.316 119.787 101.546 120.021 101.825 120.183C102.188 119.75 102.399 119.21 102.425 118.646C102.45 118.081 102.289 117.524 101.966 117.061ZM90.4025 118.255C90.0299 117.947 89.3232 118.667 90.0171 118.422C90.0171 118.422 90.8907 118.679 90.4025 118.255ZM121.059 123.87C122.665 125.155 126.353 125.541 126.751 127.596C125.325 127.005 123.603 126.247 122.126 125.785C120.211 125.181 118.477 123.96 116.793 124.782C117.539 126.311 117.564 125.027 120.288 126.8C121.123 127.352 122.691 128.611 123.565 129.292C124.194 129.292 124.014 128.637 125.826 129.472C131.608 132.132 128.961 130.95 135.745 131.412C135.192 134.817 128.46 131.297 125.852 130.744L128.306 132.363L128.396 133.237C126.141 132.546 124.079 131.341 122.37 129.716C121.435 128.913 120.288 128.396 119.068 128.226C116.806 127.686 118.155 126.723 115.457 126.684C116.601 128.598 124.785 134.265 127.021 134.791C126.327 133.905 126.109 134.239 126.16 133.507C127.37 133.685 128.527 134.124 129.552 134.791C131.813 135.871 139.265 138.145 142.4 137.747C145.317 137.387 146.718 135.537 149.313 134.2C149.882 134.003 150.404 133.69 150.846 133.281C151.289 132.872 151.641 132.375 151.883 131.823C152.833 129.074 151.227 130.988 153.476 128.303C152.602 125.669 152.705 126.902 153.746 124.269C154.555 122.213 154.632 121.84 153.746 119.746H153.347C153.154 119.73 152.963 119.687 152.782 119.617C151.806 119.309 153.335 119.45 151.497 119.232C147.514 118.757 145.69 121.802 143.416 122.354C143.698 118.679 149.185 117.073 152.409 118.577V117.125L149.159 115.493C148.704 115.871 148.218 116.21 147.707 116.508C144.649 117.793 144.636 119.823 142.992 119.258C143.21 120.607 143.634 119.72 142.85 120.71C140.923 120.44 142.606 119.617 141.347 120.08C139.792 120.658 141.938 120.581 140.062 121.647C138.225 121.133 141.257 119.939 136.837 121.647C136.94 122.804 137.158 121.082 137.287 122.932C131.03 125.168 136.464 123.767 129.796 124.731C128.198 124.93 126.584 124.973 124.978 124.86C123.23 124.757 122.665 124.05 121.046 123.922L121.059 123.87ZM108.416 119.759C109.418 118.474 108.133 116.084 106.309 116.983C106.861 118.127 106.566 117.24 107.414 118.268C107.799 118.757 108.069 119.335 108.416 119.746V119.759ZM104.176 116.02C103.893 116.482 103.559 115.943 104.086 116.958C104.716 116.187 104.793 116.778 104.176 116.02ZM60.4911 117.51C58.1913 117.844 58.5125 116.392 55.8914 117.613C56.431 125.399 65.4378 130.719 70.7443 131.451C73.224 131.798 77.387 132.736 79.7382 132.53L80.0338 131.425C83.1645 131.219 86.2225 130.389 89.0277 128.984C89.8022 128.921 90.5636 128.748 91.2891 128.47C92.8566 127.789 91.9443 127.918 92.3169 127.391C92.9722 126.44 95.1179 126.299 96.1715 125.669C95.619 124.667 96.2871 125.425 94.8096 124.937C95.6704 123.652 95.3492 124.436 95.0408 123.652C94.807 123.062 94.6515 122.444 94.5783 121.814L93.1135 122.508C91.9634 123.721 90.6114 124.726 89.1176 125.476L88.411 124.641C89.6958 123.857 90.4796 124.41 91.4047 122.74C87.6144 122.328 86.1368 123.613 83.4001 122.624C77.6953 120.568 75.1128 118.358 70.4359 115.133C67.121 112.846 67.6992 113.116 65.2194 110.251C60.7481 109.878 55.7886 114.105 55.9813 115.634C57.5103 116.701 59.8359 115.39 60.4526 117.549L60.4911 117.51ZM120.07 113.887C120.07 113.887 119.967 113.887 119.954 114.003C119.941 114.118 120.558 114.311 120.07 113.887ZM122.203 113.887C121.069 114.282 119.969 114.768 118.913 115.339C117.607 115.606 116.32 115.958 115.059 116.392C116.652 117.472 116.883 116.547 118.913 115.956C119.577 115.869 120.214 115.639 120.779 115.282C121.345 114.925 121.826 114.449 122.19 113.887H122.203ZM124.323 113.887L124.67 113.579L124.323 113.887ZM124.67 113.579L125.016 113.27L124.67 113.579ZM112.939 112.641C112.939 112.641 112.836 112.641 112.823 112.756C112.81 112.872 113.427 113.065 112.939 112.641ZM148.799 113.27C149.698 112.692 149.711 112.936 149.21 112.05L148.799 113.27ZM110.074 111.343C109.778 111.805 109.444 111.266 109.971 112.281C110.6 111.51 110.69 112.101 110.074 111.343ZM97.3022 112.628L95.876 110.456C94.3856 111.561 96.3385 112.512 97.3022 112.628ZM107.581 110.212C107.581 110.212 107.478 110.212 107.452 110.315C107.427 110.418 108.069 110.623 107.581 110.212ZM95.4391 107.09L95.9531 109.249C96.6212 108.516 95.9531 107.732 95.4391 107.09ZM94.7068 108.915C94.5911 108.388 94.7068 108.298 94.2314 107.874C93.756 107.45 94.4755 107.321 92.9465 107.797C93.6018 108.606 93.7046 108.748 94.6554 108.915H94.7068ZM95.4391 107.09L95.2592 106.036C94.3984 106.036 94.9252 105.78 94.0643 106.576L95.4391 107.09ZM102.827 104.906C102.827 104.906 102.724 104.906 102.711 105.021C102.699 105.137 103.315 105.33 102.827 104.906ZM102.082 103.351C102.082 103.351 101.979 103.351 101.953 103.454C101.928 103.557 102.57 103.762 102.082 103.351ZM94.9252 100.781C95.3039 102.549 95.8681 104.272 96.6083 105.921C97.2508 107.771 97.6234 106.923 98.9211 108.953L99.6791 110.02C100.681 108.735 99.3322 109.634 97.572 105.69C96.888 103.938 95.9996 102.273 94.9252 100.73V100.781ZM127.329 91.7875L127.676 91.4791L127.329 91.7875ZM142.208 90.4255C141.564 89.6506 140.68 89.1115 139.697 88.8929C138.713 88.6743 137.685 88.7886 136.773 89.2178C134.357 90.8958 132.175 92.8876 130.284 95.1409C133.137 94.7812 135.051 89.4491 139.278 89.6546C139.06 90.3484 138.919 90.2971 137.993 90.9395C137.479 91.2735 136.837 91.6076 136.323 91.9545C129.899 96.1945 131.351 97.7877 129.064 100.357C127.586 100.229 129.796 100.447 128.408 99.972C127.303 99.5865 128.717 100.319 127.483 99.972C127.946 98.3531 128.524 98.2503 129.179 97.0811C129.963 95.6549 128.216 95.9632 129.937 94.0874C131.222 92.7254 133.574 90.7339 134.344 89.3334C128.948 89.3334 129.205 90.7082 126.738 93.6762C126.674 92.5712 126.738 92.8539 127.303 91.826C123.77 92.6612 119.492 100.486 119.235 100.743C118.04 101.925 119.145 99.458 115.83 105.15C114.654 106.853 113.659 108.675 112.862 110.585C113.806 110.977 114.643 111.59 115.303 112.371L117.372 110.521C117.693 112.653 116.703 113.193 115.162 114.195C116.318 114.915 116.228 114.414 117.294 113.437C118.451 113.694 117.744 114.17 119.26 113.322C124.721 110.264 122.382 110.675 124.824 108.992C125.055 111.047 123.911 111.304 122.871 112.731C124.618 112.589 123.937 112.101 125.633 111.844L125.016 113.36C126.738 114.504 119.877 117.51 116.022 117.78C116.022 117.998 116.973 120.106 117.089 120.273C117.754 119.969 118.467 119.786 119.196 119.733C119.956 119.943 120.699 120.209 121.419 120.53L119.993 121.313C121.2 122.907 121.689 121.994 123.089 121.982C124.719 122.103 126.355 122.103 127.984 121.982C128.714 121.797 129.472 121.744 130.22 121.827C132.79 122.046 132.212 121.827 136.349 120.62C139.951 119.736 143.29 118.005 146.088 115.57C147.219 114.478 148.465 114.684 148.85 113.373L148.247 113.669L148.131 113.052L147.334 113.283C145.497 108.722 153.27 106.859 152.371 102.889C151.536 99.2011 150.881 100.139 149.878 99.6636C149.788 98.4559 149.364 98.5073 149.557 97.2224C149.673 96.4258 150.058 95.9376 150.174 94.9354L148.735 93.9974C146.771 94.1077 144.86 94.6799 143.159 95.6677C142.015 96.5157 140.589 98.3916 139.702 98.9955C139.471 96.9654 139.484 97.7107 140.396 96.6442L142.311 94.7298C137.659 94.6142 132.687 103.274 131.672 104.109C130.387 105.201 131.672 103.904 129.822 104.636C131.004 99.8949 136.657 96.6185 138.52 95.0382C140.383 93.4578 141.09 93.9974 143.146 93.7533C143.288 92.6131 142.994 91.4614 142.323 90.5283L142.233 90.4127L142.208 90.4255ZM92.3169 107.732C90.107 107.9 91.5717 109.133 88.4624 108.889L89.7472 108.195L89.3875 106.833C90.5438 107.244 89.8243 107.27 90.788 106.897C89.5802 105.176 86.4066 101.552 87.9484 99.6636C88.8221 100.691 89.092 102.233 89.8115 103.518C90.4899 104.747 91.2768 105.912 92.1628 107C93.3577 105.625 92.7666 105.214 94.7325 105.176C94.7325 104.88 92.4968 100.036 92.1628 99.458C91.6231 98.4045 89.4774 95.4621 88.6551 94.3186C85.5458 90.0658 84.9804 88.0229 78.9416 86.7766L79.3528 87.6246C77.2328 87.7787 79.0701 87.2391 76.5775 86.8151H76.3591L75.3312 86.6224C73.7679 86.4923 72.3038 85.8035 71.2068 84.6822C70.1789 85.9671 70.4359 87.0849 70.4744 88.6781C73.3911 89.2435 72.5302 88.2413 75.1128 91.2478C75.7038 91.9417 78.7361 93.8175 79.7768 94.7041C81.0906 95.9662 82.2901 97.3421 83.3615 98.8156C84.6464 100.473 86.3681 101.54 86.4709 103.685C83.6956 102.092 79.931 94.794 73.3782 91.5177C72.3253 91.1474 71.3135 90.6695 70.3588 90.0915C69.5879 89.4233 69.074 88.5368 68.2388 87.8558C65.7976 87.5989 64.2301 88.5882 64.5898 90.811C66.3115 91.9031 66.7227 91.1194 68.4444 93.0723C69.5365 94.3572 71.0141 94.3572 70.7828 96.2973C69.6136 96.3744 60.9408 85.8386 62.1872 97.7492C62.4698 100.435 63.6262 99.2653 64.1273 103.672C64.5384 107.27 66.53 111.574 70.1018 113.604C72.2347 114.812 82.4107 122.149 85.9312 122.2L89.259 121.647C90.5904 121.504 91.9286 121.431 93.2677 121.429C92.6639 120.941 92.7152 120.62 92.227 119.887L90.7751 120.285C89.4132 118.333 91.212 120.054 87.9998 118.589C84.9804 117.202 78.402 114.941 77.8623 114.298C79.0533 114.377 80.2354 114.558 81.3957 114.838L80.3293 113.771C81.9482 113.913 85.5586 116.123 86.8692 117.048C88.1797 117.973 87.7686 118.333 88.9892 117.754C88.5395 117.407 89.0662 117.754 88.3339 117.33C84.6721 115.223 78.9031 108.221 79.7639 106.782C80.5991 107.257 86.9077 114.902 88.7579 115.981C90.2869 116.881 91.3276 117.69 93.2163 117.729C92.6124 115.917 91.7644 117.485 89.9657 115.866C88.5138 114.581 88.2953 115.069 87.049 113.373C85.8027 111.677 82.7576 109.814 82.3979 107.771C88.3853 111.51 90.0299 116.611 92.9337 115.956C92.9337 114.915 92.9337 115.956 92.6895 115.095C92.227 113.514 92.394 114.234 90.5567 112.14C90.8779 111.381 91.4946 111.035 91.3661 110.135C90.5181 110.135 90.4411 111.279 89.516 109.724C92.1628 107.964 91.3404 110.315 93.6789 111.767C93.4476 110.598 93.0365 111.125 92.818 109.93L92.2398 107.745L92.3169 107.732ZM78.6461 86.5067L79.0059 86.828L78.6461 86.5067ZM77.5668 85.89C75.9975 84.7551 74.1308 84.1031 72.1961 84.0141L77.5668 85.89ZM135.706 83.7058L136.619 85.9029C136.811 84.7465 136.799 84.3739 135.706 83.7058ZM129.282 80.8919C129.282 80.8919 129.179 80.8919 129.166 81.0076C129.154 81.1232 129.77 81.3159 129.282 80.8919ZM131.749 80.2752L131.042 80.4165L131.749 80.2752ZM131.749 80.2752L133.651 80.1724C134.139 78.001 130.387 75.1229 126.802 74.8274C125.376 74.6989 124.901 75.2 123.513 75.6369C119.538 76.7398 115.968 78.9713 113.234 82.0611C112.63 82.7935 111.795 83.346 111.217 83.9884L106.823 91.8003C106.5 92.8258 106.306 93.8876 106.245 94.9611C106.245 95.5906 106.322 96.2459 106.245 96.8112C106.099 97.4359 106.009 98.0723 105.975 98.7128C105.911 102.028 106.232 99.458 105.5 101.976C105.327 103.28 105.297 104.598 105.41 105.908C105.41 105.908 105.577 105.908 105.602 105.908H106.258C107.449 106.283 108.558 106.885 109.521 107.681C111.333 105.394 112.091 107.745 111.795 108.606C111.346 109.981 111.384 108.478 110.934 109.891C112.579 109.801 112.219 109.12 113.71 106.859C115.521 104.199 115.496 103.004 118.13 99.6765C118.901 98.6871 119.569 97.3252 120.455 96.1945C121.446 95.201 122.497 94.2699 123.603 93.4064C125.273 91.6076 122.871 93.098 126.764 90.6311C131.428 87.6759 135.27 89.5133 136.13 87.7016C136.13 86.147 134.73 84.4124 134.357 82.8192C135.642 83.1918 134.357 82.8192 135.758 83.7186L136.182 82.7807L134.576 80.9048C129.693 82.8835 130.721 80.5322 126.134 85.8129C124.734 85.4789 126.134 85.5431 125.029 85.4789C124.014 86.5453 123.41 88.0486 122.1 88.3441C122.434 86.5453 124.091 85.6716 124.348 84.0784C123.256 84.3867 123.899 84.2711 123.141 85.2219C120.841 82.5751 127.907 79.0674 132.738 79.4015C132.353 80.4422 133.085 79.4657 131.762 80.288L131.749 80.2752ZM80.9203 77.153C81.0231 76.6776 80.355 76.8575 80.4963 77.153C81.0616 77.2172 80.8304 77.6156 80.9203 77.153ZM95.0537 100.859C94.938 98.6871 93.499 97.6978 93.8973 93.7148C95.2849 95.7577 94.4755 96.2845 95.786 99.5865C96.5056 101.36 95.786 99.8949 97.0709 100.627C97.5206 103.043 98.7798 104.122 99.8333 106.435C100.347 107.565 100.283 107.72 101.285 108.054C102.21 106.512 99.6149 103.891 99.2937 99.3553C100.758 99.7407 99.2937 99.1882 100.347 100.242C101.17 101.09 100.347 100.82 101.761 100.794C100.643 99.6379 101.26 100.794 100.643 99.5094C101.414 98.6229 101.041 98.867 102.12 98.5843L103.058 99.8692C103.572 98.6871 104.176 98.7771 104.42 98.1346C104.934 96.8498 104.343 97.428 103.482 96.5414C104.497 95.8348 104.947 96.1817 104.202 94.8326C103.611 93.7405 103.11 94.2159 103.598 92.9053C105.32 92.4941 103.264 92.7768 105.088 93.2651C105.191 89.8088 108.493 84.9007 110.909 82.1254C109.997 79.363 107.761 74.4163 104.767 73.2085C99.6277 71.1399 103.045 72.1678 99.178 71.9237C91.7901 71.3583 95.4777 71.1271 92.6124 70.4332C89.1819 69.6109 89.1562 74.6347 89.002 76.5106C88.0641 75.0972 89.002 75.0715 87.1261 72.8616C84.7235 72.8616 83.0789 74.1464 80.9588 76.0095C82.5826 76.9941 84.1098 78.1298 85.5201 79.4015C85.1603 82.5237 87.8328 81.9712 87.7943 84.9264C85.6228 83.5644 84.9033 80.3137 80.0851 77.8211C79.3803 78.6608 78.8595 79.6389 78.5563 80.6924C78.2531 81.7459 78.1743 82.8512 78.3249 83.937C80.003 85.2296 81.8826 86.2367 83.8883 86.9179C85.1732 87.4704 87.139 90.0786 88.0127 91.1836C90.364 94.2159 93.756 99.6636 95.0023 100.859H95.0537ZM137.981 87.419C140.769 88.2541 140.036 86.6224 143.12 89.2049C145.497 91.1836 143.711 91.9417 147.321 91.8646C148.295 91.8105 149.262 92.0546 150.093 92.5642C150.924 93.0739 151.579 93.8249 151.973 94.7169C152.885 97.6079 150.174 96.7085 152.936 99.8564C153.951 101.026 154.093 103.788 154.08 105.227C154.08 107.797 152.487 108.118 151.818 110.366C150.649 114.221 154.324 116.932 155.673 120.414C156.817 123.356 155.018 123.832 154.761 125.9C154.632 126.928 155.018 127.532 154.684 128.65C154.35 129.768 153.9 130.23 153.604 131.425C153.026 133.789 152.808 134.188 150.354 135.28C147.9 136.372 148.336 137.335 146.422 138.916C145.137 140.008 142.683 140.869 142.298 142.089C141.36 145.032 142.4 144.261 140.203 147.306C138.919 149.156 139.522 150.184 137.916 152.047C136.632 153.512 136.336 155.452 134.794 156.39C132.913 157.151 130.958 157.715 128.961 158.073C126.237 158.625 125.685 159.088 122.922 158.073C121.072 157.418 119.659 156.107 117.603 156.184C116.557 156.347 115.487 156.269 114.476 155.955C113.465 155.641 112.539 155.1 111.77 154.373C109.932 152.921 109.907 151.906 108.622 150.595C106.669 148.591 106.656 149.953 105.191 150.595C101.015 152.368 104.78 153.422 96.1972 155.735C94.3405 156.234 92.5535 156.963 90.8779 157.906C89.426 158.6 86.4452 158.099 84.4536 158.137C81.8839 158.201 81.8839 156.737 79.3142 155.863C75.8066 154.681 78.0294 153.178 74.9072 152.484C69.0483 151.199 69.1382 147.833 69.3695 143.22C69.2995 141.34 69.4897 139.459 69.9348 137.631C70.1662 136.779 70.4937 135.955 70.9113 135.177C71.5023 134.329 72.1962 134.149 72.6073 133.16C71.7593 132.35 70.0376 132.723 68.9198 132.35C67.6405 131.832 66.3883 131.248 65.168 130.603C60.1314 128.033 54.8892 124.397 55.1847 118.834C55.326 115.917 54.0797 113.887 57.1248 111.69C60.1699 109.493 60.838 111.831 61.5319 106.345C62.0844 101.989 60.3627 94.4857 60.8381 93.2779C61.3135 92.0701 62.7011 91.7104 63.048 90.4384C63.4463 88.9608 62.6754 88.3184 64.4742 87.1877C66.273 86.057 67.1595 86.8793 69.074 86.4168C70.4616 84.9906 69.074 83.8471 71.6437 82.9348C74.4318 81.9712 74.8558 83.3203 76.963 83.3075C77.5797 82.2025 76.4233 81.0461 77.6953 78.7077C78.9673 76.3693 80.1622 71.8851 84.1838 71.4226C87.3189 71.0757 87.1904 72.7074 89.3232 70.1377C92.0086 66.7843 92.7281 69.9064 99.8076 70.4589C109.187 71.1785 111.191 78.7205 111.962 79.363C113.594 80.712 119.749 73.0543 126.096 73.3113C129.282 73.4398 134.82 74.9559 135.27 78.2708C135.642 80.9305 136.876 80.1596 137.711 82.3567C138.546 84.5538 137.852 86.4553 138.186 87.3162L137.981 87.419Z" fill="#3E0B3D"/>
<path fill-rule="evenodd" clip-rule="evenodd" d="M101.736 73.722C99.166 73.9147 94.1165 74.1974 91.4569 73.1181C91.2036 76.3058 91.7605 79.5057 93.0758 82.4204C93.6154 83.7053 94.2193 84.9901 94.7718 86.275C95.2715 87.8416 95.5736 89.4645 95.6712 91.106L91.1614 80.9172C90.4518 79.185 89.9765 77.3658 89.748 75.5079V73.1052C89.8382 72.6352 90.0267 72.1896 90.3013 71.7977C90.5759 71.4057 90.9303 71.0763 91.3413 70.8311C93.5898 72.0131 92.3177 71.8332 96.365 72.4371C97.6499 72.6298 97.7655 72.874 98.9347 73.0282C100.438 73.2466 100.451 72.9125 101.749 73.6963L101.736 73.722Z" fill="#3E0B3D"/>
<path fill-rule="evenodd" clip-rule="evenodd" d="M101.742 73.7223C102.802 73.9064 103.818 74.2901 104.735 74.853C104.864 75.7524 104.53 75.02 104.735 75.8809C105.005 77.1657 104.735 75.7652 105.429 77.1657C103.708 80.0823 104.209 83.166 104.209 85.8899C104.209 87.2775 103.887 87.5987 103.926 88.9992H103.219C103.219 87.5216 103.733 87.316 103.399 85.6457C102.667 82.1767 102.769 78.5836 103.695 75.1614L101.125 74.172L101.755 73.7095L101.742 73.7223Z" fill="#3E0B3D"/>
<path fill-rule="evenodd" clip-rule="evenodd" d="M77.1175 151.121C75.1902 149.528 76.3337 147.691 78.2995 144.813C78.9419 143.875 79.1347 143.348 80.124 142.988C80.5994 143.798 80.381 142.988 80.2268 144.273C81.6273 143.361 80.6637 143.798 81.2547 143.99C79.7129 146.329 79.2375 149.001 77.1175 151.16V151.121Z" fill="#3E0B3D"/>
<path fill-rule="evenodd" clip-rule="evenodd" d="M90.3516 139.186C90.8013 136.925 97.0199 133.7 99.6667 133.674C99.3327 135.203 92.3431 139.173 90.3516 139.186Z" fill="#3E0B3D"/>
<path fill-rule="evenodd" clip-rule="evenodd" d="M118.219 145.147C120.057 144.389 118.849 145.147 118.926 149.207C118.926 150.646 119.08 152.124 118.926 153.537L116.947 153.948C117.14 152.497 117.962 150.518 117.808 148.925C117.641 147.126 117.063 146.676 117.397 143.323C118.399 144.119 117.937 143.721 118.155 145.147H118.219Z" fill="#3E0B3D"/>
<path fill-rule="evenodd" clip-rule="evenodd" d="M92.1027 87.7042C90.972 87.5115 91.4988 87.3959 90.2525 87.2417C90.2525 86.5479 90.9078 87.049 90.1112 85.1602C89.3146 83.2715 87.9012 78.1963 88.0683 76.5517C89.6872 78.4148 89.3531 79.7382 90.1112 81.9481C90.6123 83.4257 92.0513 86.278 92.1027 87.7042Z" fill="#3E0B3D"/>
<path fill-rule="evenodd" clip-rule="evenodd" d="M98.9344 141.744C97.2512 142.926 95.6837 142.361 93.5123 144.146C92.7542 144.776 91.2767 147.795 89.041 146.716C89.7862 145.162 89.979 146.523 91.4308 145.059C94.0776 142.361 90.6599 144.069 95.8764 141.551C96.3644 141.343 96.8934 141.249 97.4232 141.275C97.953 141.302 98.4698 141.449 98.9344 141.705V141.744Z" fill="#3E0B3D"/>
<path fill-rule="evenodd" clip-rule="evenodd" d="M99.4443 137.762C98.7124 138.478 97.7631 138.93 96.7461 139.047C93.5597 139.908 91.2212 143.415 88.6387 143.981C89.2169 141.925 97.7483 136.374 99.4443 137.813V137.762Z" fill="#3E0B3D"/>
<path fill-rule="evenodd" clip-rule="evenodd" d="M89.1667 139.558C86.9825 140.342 85.7105 142.449 83.7832 144.582C84.0171 143.199 84.4498 141.858 85.0681 140.599C85.9368 139.479 86.9725 138.5 88.1389 137.695L89.1796 139.558H89.1667Z" fill="#3E0B3D"/>
<path fill-rule="evenodd" clip-rule="evenodd" d="M117.405 118.678C117.996 117.457 117.328 118.343 119.281 117.791C120.052 117.573 120.823 117.277 121.606 117.046C123.431 116.519 124.176 115.761 126.18 115.889C125.756 117.842 123.932 117.444 122.326 118.009C120.72 118.575 119.345 119.628 117.354 118.678H117.405Z" fill="#3E0B3D"/>
<path fill-rule="evenodd" clip-rule="evenodd" d="M71.7655 120.837C70.2622 121.595 67.4998 120.721 65.8552 120.028C64.2106 119.334 64.6859 119.758 64.5703 118.743C66.0607 118.987 70.7762 119.899 71.7269 120.876L71.7655 120.837Z" fill="#3E0B3D"/>
<path fill-rule="evenodd" clip-rule="evenodd" d="M78.4806 109.853C76.3991 109.557 76.412 108.568 75.1271 107.553C73.8423 106.538 72.3775 105.883 72.082 104.662C73.7266 104.932 78.108 108.144 78.5063 109.802L78.4806 109.853Z" fill="#3E0B3D"/>
<path fill-rule="evenodd" clip-rule="evenodd" d="M80.6646 122.419C79.5597 123.19 79.534 123.152 78.0179 122.856C76.9501 122.703 75.9 122.444 74.8828 122.085C75.707 121.449 76.7344 121.134 77.7737 121.199C80.3434 121.199 80.4848 122.047 80.6646 122.419Z" fill="#3E0B3D"/>
<path fill-rule="evenodd" clip-rule="evenodd" d="M88.9785 126.968L90.7259 125.504L91.2142 125.092C92.1264 124.489 91.3555 124.797 92.3448 124.63C92.3448 124.63 91.4326 128.484 88.9785 126.968Z" fill="#3E0B3D"/>
<path fill-rule="evenodd" clip-rule="evenodd" d="M85.707 150.441C85.707 149.464 87.0818 146.74 88.0969 147.614C88.8678 148.282 87.8142 148.578 87.2231 149.092C86.768 149.595 86.2597 150.047 85.707 150.441Z" fill="#3E0B3D"/>
<path fill-rule="evenodd" clip-rule="evenodd" d="M129.124 116.172C127.711 116.107 128.405 116.39 127.402 115.76C127.698 113.82 130.846 113.576 129.124 116.172Z" fill="#3E0B3D"/>
<path fill-rule="evenodd" clip-rule="evenodd" d="M112.518 106.537C111.387 105.727 111.079 105.008 111.708 103.967C113.16 104.481 113.456 105.47 112.518 106.537Z" fill="#3E0B3D"/>
<path fill-rule="evenodd" clip-rule="evenodd" d="M111.182 99.2272H110.295C109.563 98.315 109.563 98.315 110.295 97.4541C111.786 97.4541 112.146 98.0323 111.233 99.1758L111.182 99.2272Z" fill="#3E0B3D"/>
<path fill-rule="evenodd" clip-rule="evenodd" d="M122.468 102.053C122.264 101.871 122.109 101.64 122.017 101.382C121.925 101.124 121.899 100.847 121.941 100.577C121.984 100.306 122.093 100.05 122.259 99.8325C122.425 99.6147 122.642 99.4419 122.892 99.3296C123.035 99.7858 123.07 100.269 122.997 100.741C122.923 101.213 122.742 101.662 122.468 102.053Z" fill="#3E0B3D"/>
<path fill-rule="evenodd" clip-rule="evenodd" d="M92.5209 131.18C92.3153 132.208 92.1483 132.311 90.902 132.324C90.7863 131.039 91.5701 130.332 92.5209 131.18Z" fill="#3E0B3D"/>
<path fill-rule="evenodd" clip-rule="evenodd" d="M128.978 95.1664L126.832 94.7296C127.641 93.9844 127.41 93.9201 128.451 93.7402L128.978 95.1664Z" fill="#3E0B3D"/>
<path fill-rule="evenodd" clip-rule="evenodd" d="M109.575 103.698C109.022 102.85 109.022 102.927 109.575 102.079C110.166 102.297 110.397 102.014 110.551 102.785C110.705 103.556 109.819 103.62 109.613 103.698H109.575Z" fill="#3E0B3D"/>
<path fill-rule="evenodd" clip-rule="evenodd" d="M90.2503 123.64C89.7676 123.909 89.2208 124.042 88.6685 124.023C88.1162 124.005 87.5793 123.837 87.1152 123.537C88.1332 123.159 89.2593 123.196 90.2503 123.64Z" fill="#3E0B3D"/>
<path fill-rule="evenodd" clip-rule="evenodd" d="M92.5 125.771C92.6032 125.312 92.8465 124.896 93.1963 124.581C93.5462 124.265 93.9853 124.066 94.453 124.011C94.3481 124.47 94.1042 124.885 93.7547 125.2C93.4052 125.515 92.9671 125.715 92.5 125.771Z" fill="#3E0B3D"/>
<path fill-rule="evenodd" clip-rule="evenodd" d="M92.611 91.2479C92.2641 90.8496 91.9301 90.4898 91.5703 90.053L92.8552 89.5391C92.9194 90.8239 93.1121 90.4256 92.5854 91.2479H92.611Z" fill="#3E0B3D"/>
<path fill-rule="evenodd" clip-rule="evenodd" d="M76.7282 134.585C75.8159 135.035 76.2142 134.919 74.9551 134.791C76.4584 132.889 76.4327 134.315 76.7282 134.585Z" fill="#3E0B3D"/>
<path fill-rule="evenodd" clip-rule="evenodd" d="M111.886 95.8747C111.359 94.8854 111.192 95.3222 112.207 94.5898L113.106 95.5278L111.822 95.8875L111.886 95.8747Z" fill="#3E0B3D"/>
<path fill-rule="evenodd" clip-rule="evenodd" d="M107.801 78.6818L106.4 78.1936L106.799 77.1914C107.057 77.3595 107.284 77.5727 107.467 77.821C107.788 78.2964 107.724 78.1293 107.801 78.6818Z" fill="#3E0B3D"/>
<path fill-rule="evenodd" clip-rule="evenodd" d="M112.943 94.3312C111.838 93.9072 111.658 94.3312 112.648 93.0464C113.47 93.6888 113.496 93.3804 112.943 94.3312Z" fill="#3E0B3D"/>
<path fill-rule="evenodd" clip-rule="evenodd" d="M119.299 105.602C118.644 104.638 118.772 104.6 119.517 103.7C119.684 104.869 119.851 104.715 119.299 105.602Z" fill="#3E0B3D"/>
<path fill-rule="evenodd" clip-rule="evenodd" d="M123.525 120.839C122.754 121.828 123.152 121.661 122.24 121.031C122.716 120.479 123.114 120.363 123.525 120.839Z" fill="#3E0B3D"/>
<path fill-rule="evenodd" clip-rule="evenodd" d="M120.947 103.096C120.33 102.184 120.305 102.428 121.024 101.542C121.487 102.415 121.435 102.338 120.947 103.096Z" fill="#3E0B3D"/>
<path fill-rule="evenodd" clip-rule="evenodd" d="M123.744 99.2539C123.924 98.1617 123.744 98.3416 124.656 98.1104C124.451 99.2539 124.579 99.0226 123.744 99.2539Z" fill="#3E0B3D"/>
<path fill-rule="evenodd" clip-rule="evenodd" d="M111.886 95.874L111.591 97.1075L110.781 96.3494L111.886 95.874Z" fill="#3E0B3D"/>
<path fill-rule="evenodd" clip-rule="evenodd" d="M92.9422 92.6984C91.8629 92.5057 92.2226 92.8141 91.9785 91.8633C92.6338 92.0046 92.9165 91.8633 92.9422 92.6984Z" fill="#3E0B3D"/>
<path fill-rule="evenodd" clip-rule="evenodd" d="M106.879 104.261C106.699 103.092 106.583 103.503 107.097 102.681C107.342 103.195 107.277 103.516 106.879 104.261Z" fill="#3E0B3D"/>
<path fill-rule="evenodd" clip-rule="evenodd" d="M92.0977 85.2617C92.9585 86.0969 92.8557 85.9298 92.7658 87.1119L92.0977 85.2617Z" fill="#3E0B3D"/>
<path fill-rule="evenodd" clip-rule="evenodd" d="M104.256 91.1305C103.344 90.8863 103.806 91.683 103.588 90.2568C104.564 90.8735 104.269 90.2568 104.256 91.1305Z" fill="#3E0B3D"/>
<path fill-rule="evenodd" clip-rule="evenodd" d="M84.1768 108.349C83.2388 107.771 83.2388 108.015 83.7014 107.064L84.1768 108.349Z" fill="#3E0B3D"/>
<path fill-rule="evenodd" clip-rule="evenodd" d="M123.574 136.113C123.574 136.485 122.842 136.806 123.034 136.113C123.227 135.419 123.561 135.547 123.574 136.113Z" fill="#3E0B3D"/>
<path fill-rule="evenodd" clip-rule="evenodd" d="M104.862 139.56C104.862 139.92 104.116 140.241 104.309 139.56C104.502 138.879 104.836 138.982 104.862 139.56Z" fill="#3E0B3D"/>
<path fill-rule="evenodd" clip-rule="evenodd" d="M77.1873 136.436C77.7012 136.873 77.4057 137.04 76.956 136.551C76.5063 136.063 76.6605 135.973 77.1873 136.436Z" fill="#3E0B3D"/>
<path fill-rule="evenodd" clip-rule="evenodd" d="M88.4627 107.438C88.1286 107.746 87.332 107.04 88.0515 107.271C88.0515 107.271 88.9381 107.014 88.4627 107.438Z" fill="#3E0B3D"/>
<path fill-rule="evenodd" clip-rule="evenodd" d="M75.3455 137.374C75.0114 137.67 74.2148 136.963 74.9343 137.207C74.9343 137.207 75.808 136.95 75.3455 137.374Z" fill="#3E0B3D"/>
<path fill-rule="evenodd" clip-rule="evenodd" d="M103.12 141.112C102.773 141.408 101.976 140.714 102.696 140.945C102.696 140.945 103.582 140.688 103.12 141.112Z" fill="#3E0B3D"/>
<path fill-rule="evenodd" clip-rule="evenodd" d="M111.094 106.151C110.759 106.46 109.963 105.753 110.682 105.984C110.682 105.984 111.569 105.727 111.094 106.151Z" fill="#3E0B3D"/>
<path fill-rule="evenodd" clip-rule="evenodd" d="M138.824 122.085C138.49 122.38 137.693 121.673 138.413 121.917C138.413 121.917 139.299 121.661 138.824 122.085Z" fill="#3E0B3D"/>
<path fill-rule="evenodd" clip-rule="evenodd" d="M104.121 97.7494C104.121 98.4689 103.685 97.7494 103.903 97.7494C103.903 97.7494 104.109 96.94 104.121 97.7494Z" fill="#3E0B3D"/>
<path fill-rule="evenodd" clip-rule="evenodd" d="M109.252 131.437C109.252 132.169 108.815 131.437 109.034 131.437C109.034 131.437 109.239 130.64 109.252 131.437Z" fill="#3E0B3D"/>
<path fill-rule="evenodd" clip-rule="evenodd" d="M128.471 133.311L128.805 133.388L128.599 133.619L128.471 133.311Z" fill="#3E0B3D"/>
<path fill-rule="evenodd" clip-rule="evenodd" d="M84.1797 108.35L84.5137 108.427L84.3082 108.658L84.1797 108.35Z" fill="#3E0B3D"/>
<path fill-rule="evenodd" clip-rule="evenodd" d="M104.335 91.8142C104.335 91.8142 104.232 91.6857 104.232 91.7242C104.232 91.7628 104.232 91.7242 104.232 91.7242C104.232 91.7242 104.836 91.4287 104.374 91.8527L104.335 91.8142Z" fill="#3E0B3D"/>
<path fill-rule="evenodd" clip-rule="evenodd" d="M124.228 120.514C124.228 120.514 124.125 120.386 124.125 120.424C124.125 120.463 124.125 120.424 124.125 120.424C124.125 120.424 124.742 120.142 124.279 120.553L124.228 120.514Z" fill="#3E0B3D"/>
<path fill-rule="evenodd" clip-rule="evenodd" d="M83.0512 105.858C83.0512 105.858 82.9355 105.729 82.9355 105.768C82.9355 105.806 82.9355 105.768 82.9355 105.768C82.9355 105.768 83.5523 105.472 83.0897 105.896L83.0512 105.858Z" fill="#3E0B3D"/>
<path fill-rule="evenodd" clip-rule="evenodd" d="M92.1101 85.2592L91.7246 84.6938L92.1101 85.2592Z" fill="#3E0B3D"/>
<path d="M215.137 1C181.127 33.6866 169.846 47.1391 161.174 65.461C160.788 66.3219 153.529 78.8107 145.884 93.7278L150.111 87.5733C169.731 68.0436 219.365 54.9638 215.137 1ZM215.137 1C194.914 40.2908 167.97 67.7995 147.67 90.2458L215.137 1ZM136.671 16.7266C135.644 32.2605 132.239 52.1885 140.526 65.037C147.785 76.3437 146.462 80.7765 143.366 92.0189L145.717 93.5479C154.017 79.1961 159.683 62.326 155.148 46.9977C151.846 35.8452 142.145 26.1189 136.671 16.7266ZM136.671 16.7266C139.048 26.9283 160.595 63.0969 145.1 92.9312L136.671 16.7266ZM113.531 48.5267C118.799 59.5122 120.251 65.2298 131.956 72.9389C135.849 75.4829 140.282 82.6395 141.425 88.2543L143.712 92.2117C150.137 71.821 140.513 54.4627 113.531 48.5267ZM113.531 48.5267C126.457 57.996 151.961 67.0286 143.198 92.0061L113.531 48.5267ZM152.552 85.2606C177.992 75.8041 184.391 63.7136 219.365 60.5015C196.623 86.6226 165.516 79.9927 152.552 85.2606ZM218.349 61.6964C214.585 62.4673 200.734 69.4055 194.413 71.23C184.352 74.0824 172.699 78.6436 162.163 81.2133L218.349 61.6964Z" stroke="#3E0B3D" stroke-width="0.75" stroke-miterlimit="22.93"/>
</g>
</svg>
