<svg width="12" height="11" viewBox="0 0 12 11" fill="none" xmlns="http://www.w3.org/2000/svg">
<path d="M1.15176 3.04076C1.30356 3.14788 1.76114 3.46602 2.52451 3.99501C3.28792 4.52401 3.87273 4.93132 4.27899 5.21697C4.32362 5.24829 4.41845 5.31635 4.56352 5.42126C4.70861 5.52625 4.82917 5.61108 4.9251 5.67579C5.02109 5.74048 5.13715 5.81305 5.27337 5.89338C5.40955 5.97364 5.53792 6.03402 5.65845 6.07398C5.77901 6.11428 5.8906 6.13424 5.99327 6.13424H6H6.00675C6.10941 6.13424 6.22106 6.11425 6.34161 6.07398C6.4621 6.03402 6.59058 5.97357 6.72664 5.89338C6.86278 5.81296 6.97883 5.74046 7.07483 5.67579C7.17083 5.61108 7.29129 5.52625 7.43643 5.42126C7.58147 5.31626 7.67642 5.24829 7.72105 5.21697C8.13169 4.93132 9.17643 4.20585 10.8549 3.04062C11.1808 2.81304 11.4531 2.53843 11.6718 2.21699C11.8907 1.89568 12 1.55862 12 1.20598C12 0.911292 11.8939 0.659037 11.6818 0.449236C11.4698 0.239387 11.2186 0.134521 10.9285 0.134521H1.07138C0.727656 0.134521 0.463135 0.250575 0.277867 0.482682C0.0926223 0.714836 0 1.00502 0 1.3532C0 1.63444 0.122808 1.93921 0.368308 2.26732C0.613784 2.59545 0.875022 2.85329 1.15176 3.04076Z" fill="#A96D8E"/>
<path d="M11.3303 4.21709C9.86612 5.20807 8.75438 5.97822 7.99555 6.52739C7.74109 6.71482 7.53467 6.86113 7.37614 6.96597C7.21761 7.07088 7.00678 7.17802 6.74333 7.28734C6.47999 7.39683 6.23456 7.45141 6.00684 7.45141H6.00001H5.99328C5.76561 7.45141 5.52004 7.39683 5.25669 7.28734C4.99334 7.17802 4.78237 7.07088 4.62388 6.96597C4.46545 6.86113 4.25895 6.71482 4.00452 6.52739C3.40181 6.08546 2.29245 5.31526 0.676407 4.21709C0.421878 4.04756 0.196432 3.85324 0 3.63452V8.95133C0 9.24616 0.104865 9.49827 0.314714 9.7081C0.524515 9.91799 0.776792 10.0229 1.07145 10.0229H10.9286C11.2232 10.0229 11.4755 9.91799 11.6853 9.7081C11.8952 9.4982 12 9.24618 12 8.95133V3.63452C11.808 3.84871 11.5849 4.04303 11.3303 4.21709Z" fill="#A96D8E"/>
</svg>
