<svg width="52" height="70" viewBox="0 0 52 70" fill="none" xmlns="http://www.w3.org/2000/svg">
<path d="M47.6517 49.7528C47.9251 48.708 47.8683 47.6039 47.4892 46.5925L43.4866 35.9968C42.8637 34.3781 41.8117 32.96 40.444 31.8933C39.0763 30.8267 37.4441 30.1522 35.7228 29.9423C38.2055 27.6866 39.8539 24.6591 40.4008 21.3498L41.1122 17.0849H41.1127C41.3883 15.4302 41.3039 13.736 40.8654 12.1173L42.5408 10.4418H42.5403C44.0657 8.89293 44.6542 6.65071 44.0866 4.55182C43.5184 2.45347 41.8793 0.813907 39.781 0.245653C37.6826 -0.322561 35.4404 0.265964 33.891 1.79095L31.9389 3.74397C31.1717 3.5846 30.39 3.50283 29.6056 3.50023H21.7277C20.9438 3.50284 20.1621 3.58461 19.3944 3.74397L17.4403 1.78988C15.895 0.245119 13.643 -0.357934 11.5322 0.207654C9.4218 0.773787 7.77344 2.42267 7.20825 4.53302C6.64264 6.64391 7.24679 8.89599 8.79208 10.4408L10.4675 12.1173H10.467C10.0285 13.736 9.94408 15.4302 10.2196 17.0849L10.931 21.3498H10.9316C11.4805 24.6727 13.1398 27.7112 15.6388 29.969C13.9716 30.2231 12.4014 30.9153 11.0884 31.9747C9.77587 33.0335 8.7676 34.422 8.16655 35.9981L4.16611 46.589C3.80257 47.5557 3.73538 48.6092 3.9734 49.614C2.79062 50.1515 1.78705 51.0176 1.08227 52.1093C0.378123 53.2015 0.00207995 54.4723 0 55.7717V63.2325C0.00364578 65.0273 0.718209 66.747 1.98742 68.0152C3.25718 69.2839 4.97802 69.9969 6.77225 69.999H7.22745C8.50398 69.9985 9.75446 69.6365 10.8342 68.9553C11.9138 68.2741 12.7784 67.3012 13.3289 66.1491L21.1293 60.3451C21.5402 60.0159 21.9027 59.6316 22.2068 59.2019C23.0381 59.4014 23.8896 59.5008 24.7443 59.4993H26.9843C27.7177 59.4904 28.4488 59.4092 29.166 59.2566C29.4655 59.667 29.8186 60.0352 30.216 60.3519L38.0033 66.1491C38.5538 67.3011 39.4183 68.2741 40.498 68.9553C41.5777 69.6365 42.8283 69.9985 44.1048 69.999H44.56C46.3542 69.9969 48.0749 69.2839 49.3448 68.0152C50.614 66.747 51.3286 65.0272 51.3322 63.2325V55.7774C51.3317 54.5322 50.988 53.3108 50.3385 52.2478C49.689 51.1853 48.7593 50.3218 47.6516 49.753L47.6517 49.7528ZM41.2991 36.8228L45.3017 47.4195C45.4986 47.9435 45.5387 48.5132 45.4184 49.0596C45.1361 49.0216 44.8512 49.0013 44.5658 48.9992H44.1106C42.7377 48.9982 41.3971 49.4179 40.2691 50.2007C40.0993 49.9789 39.9628 49.733 39.8644 49.4716L38.0644 44.7212L36.6093 37.8822C36.1754 35.7416 35.0973 33.785 33.5203 32.2741C35.1405 32.0382 36.7926 32.36 38.2062 33.1866C39.6197 34.0131 40.7102 35.2953 41.2993 36.8229L41.2991 36.8228ZM37.9836 50.9745C38.144 51.2589 38.3305 51.5271 38.5414 51.7761L37.831 51.4703C37.8904 51.3057 37.9414 51.1417 37.9883 50.9745L37.9836 50.9745ZM35.5405 3.44225C36.4962 2.48654 37.8888 2.1131 39.1945 2.46258C40.4997 2.81257 41.5195 3.83188 41.8694 5.13745C42.2194 6.44263 41.8465 7.83526 40.8908 8.79097L39.9366 9.74668C38.7304 7.4514 36.7946 5.62277 34.4337 4.5504L35.5405 3.44225ZM10.441 8.78999C9.50356 7.83064 9.14418 6.44631 9.49627 5.15208C9.84886 3.85784 10.8602 2.84693 12.1546 2.4948C13.4494 2.14325 14.8332 2.50314 15.7925 3.44114L16.8998 4.54945H16.8993C14.5384 5.62183 12.602 7.45098 11.3963 9.74667L10.441 8.78999ZM13.2327 20.9673L12.5223 16.7008V16.7013C12.0713 13.9951 12.8338 11.2274 14.6072 9.13424C16.3806 7.04109 18.9847 5.83378 21.7284 5.83378H24.5002V8.16706H26.8335V5.83378H29.6053C32.3489 5.83378 34.953 7.04105 36.7264 9.13424C38.4999 11.2274 39.2624 13.9951 38.8113 16.7013L38.1009 20.9678V20.9673C37.4759 24.6828 35.2239 27.9256 31.9604 29.8083C28.6974 31.6916 24.7632 32.0187 21.2336 30.701C21.1935 30.6828 21.1518 30.6666 21.1101 30.6531C16.9518 29.0505 13.954 25.3647 13.2327 20.9673L13.2327 20.9673ZM6.34272 47.4174L10.3442 36.8218C10.939 35.2749 12.0494 33.9802 13.4879 33.1568C14.9264 32.3334 16.6045 32.0313 18.2399 32.3011C16.5364 33.939 15.4135 36.0874 15.0411 38.4212L14.3656 42.6738L11.7907 49.4657C11.6662 49.7866 11.4865 50.0829 11.26 50.3418C10.098 49.4715 8.68548 49.0006 7.23405 48.9991H6.77885C6.59344 48.9991 6.41011 49.0122 6.22834 49.0273C6.1122 48.4903 6.15178 47.932 6.34292 47.4174L6.34272 47.4174ZM13.8347 50.5861C13.88 50.8101 13.9305 51.034 13.9899 51.2549L13.254 51.572L13.2535 51.5715C13.4821 51.2647 13.6769 50.934 13.8347 50.5856L13.8347 50.5861ZM11.667 63.2322C11.6644 64.4072 11.1962 65.5333 10.3655 66.3639C9.53476 67.1946 8.40872 67.6628 7.23381 67.6654H6.77861C5.60207 67.666 4.47293 67.1993 3.63961 66.3681C2.8063 65.5368 2.33652 64.4093 2.33391 63.2321V55.7771C2.33339 54.5995 2.80108 53.4693 3.63336 52.636C4.46563 51.8027 5.59478 51.3334 6.77289 51.3324H7.22809C8.40514 51.3334 9.53324 51.8016 10.3655 52.6339C11.1978 53.4662 11.666 54.5942 11.667 55.7713L11.667 63.2322ZM20.6501 57.335C20.4298 57.7845 20.1106 58.1782 19.7168 58.4876L14.0003 62.7386V55.7715C13.9992 55.1398 13.9091 54.5117 13.7331 53.9049L16.5481 52.6867V52.6872C17.572 52.3299 18.7054 52.4909 19.5896 53.1185C20.4735 53.7461 20.9995 54.7632 21 55.8476C20.9969 56.3617 20.8771 56.8679 20.65 57.3293L20.6501 57.335ZM29.1562 52.4201C28.138 53.7461 27.7661 55.4575 28.1411 57.0866C27.7578 57.1382 27.3719 57.1648 26.9849 57.1658H24.7448C24.2282 57.1616 23.7125 57.1111 23.2053 57.0143C23.6167 55.084 22.9917 53.0794 21.5564 51.7253C20.121 50.3712 18.0835 49.8633 16.181 50.3863C16.0211 49.7259 15.9388 49.0488 15.9367 48.3691C15.9404 47.9061 15.9795 47.4441 16.0534 46.9869L16.6602 43.137C16.6602 43.1125 16.6669 43.0844 16.6695 43.0552L17.3487 38.784V38.7845C17.6607 36.8257 18.6424 35.0367 20.1262 33.721C20.3846 33.4814 20.6596 33.2611 20.9502 33.0616C22.1002 33.4444 23.2917 33.6856 24.5001 33.7804V36.1663H26.8334V33.7804C28.1469 33.6788 29.4416 33.4043 30.6833 32.9637C30.8968 33.1049 31.1104 33.2543 31.3182 33.4189C31.3614 33.4564 31.4067 33.4934 31.451 33.5356C31.4984 33.5825 31.5499 33.6246 31.6051 33.6627C33.0035 34.8829 33.9603 36.5309 34.327 38.35L35.7691 45.1525C35.7691 45.19 35.7795 45.226 35.7878 45.2635L35.9045 45.7942L35.9039 45.7947C36.2305 47.3665 36.1503 48.9962 35.6706 50.529L35.5644 50.4837V50.4832C34.4305 50.0775 33.1962 50.0457 32.0436 50.3936C30.8906 50.741 29.8792 51.4493 29.1582 52.4138L29.1562 52.4201ZM30.7182 57.4132C30.3031 56.6226 30.2203 55.6992 30.4885 54.8476C30.7572 53.9961 31.3546 53.2873 32.1483 52.8779C32.9415 52.4686 33.866 52.3936 34.7149 52.6686L35.7535 53.1118C35.7977 53.1368 35.8436 53.1602 35.8899 53.1805L37.5977 53.9144C37.4217 54.5211 37.3316 55.1492 37.3311 55.781V62.748L31.6317 58.496C31.2536 58.2023 30.9432 57.8309 30.7208 57.4075L30.7182 57.4132ZM48.9991 63.2324C48.9965 64.4073 48.5283 65.5334 47.6976 66.364C46.8669 67.1947 45.7408 67.663 44.5659 67.6656H44.1107C42.9342 67.6661 41.805 67.1994 40.9717 66.3682C40.1384 65.537 39.6686 64.4094 39.666 63.2323V55.7772C39.6655 54.5997 40.1332 53.4694 40.9655 52.6361C41.7977 51.8028 42.9269 51.3335 44.105 51.3325H44.5602C45.7372 51.3335 46.8653 51.8018 47.6976 52.634C48.5299 53.4663 48.9981 54.5944 48.9991 55.7714L48.9991 63.2324Z" fill="#A96D8E"/>
<path d="M24.5002 38.4995H26.8335V41.9994H24.5002V38.4995Z" fill="#A96D8E"/>
<path d="M24.5002 44.3329H26.8335V47.8328H24.5002V44.3329Z" fill="#A96D8E"/>
<path d="M24.5002 50.166H26.8335V53.6659H24.5002V50.166Z" fill="#A96D8E"/>
<path d="M25.6668 24.9829L28.3417 27.6578L29.9911 26.0083L27.7666 23.7824C28.5551 23.1913 29.0577 22.2944 29.151 21.3131C29.2442 20.3319 28.9192 19.3569 28.2557 18.6277C27.5927 17.8985 26.6527 17.4824 25.6667 17.4824C24.6807 17.4824 23.7407 17.8986 23.0777 18.6277C22.4142 19.3569 22.0892 20.3318 22.1824 21.3131C22.2756 22.2943 22.7782 23.1912 23.5668 23.7824L21.3408 26.0083L22.9903 27.6578L25.6668 24.9829ZM25.6668 19.8335C26.1387 19.8335 26.5642 20.1179 26.7444 20.5538C26.9251 20.9898 26.8256 21.4913 26.4918 21.8252C26.1579 22.159 25.6564 22.2585 25.2205 22.0778C24.7845 21.8975 24.5002 21.472 24.5002 21.0002C24.5002 20.3559 25.0225 19.8335 25.6668 19.8335Z" fill="#A96D8E"/>
<path d="M19.8336 16.3338C19.8336 17.6223 18.7888 18.6671 17.5003 18.6671C16.2118 18.6671 15.167 17.6223 15.167 16.3338C15.167 15.0453 16.2118 14.0005 17.5003 14.0005C18.7888 14.0005 19.8336 15.0453 19.8336 16.3338Z" fill="#A96D8E"/>
<path d="M36.1666 16.3338C36.1666 17.6223 35.1218 18.6671 33.8333 18.6671C32.5448 18.6671 31.5 17.6223 31.5 16.3338C31.5 15.0453 32.5448 14.0005 33.8333 14.0005C35.1218 14.0005 36.1666 15.0453 36.1666 16.3338Z" fill="#A96D8E"/>
<path d="M24.5002 10.5005H26.8335V14.0004H24.5002V10.5005Z" fill="#A96D8E"/>
</svg>
