<svg width="66" height="66" viewBox="0 0 66 66" fill="none" xmlns="http://www.w3.org/2000/svg">
<path d="M65.0655 9.96493C66.311 8.72042 66.311 6.69355 65.0655 5.44855L60.5501 0.933139C59.3046 -0.312348 57.2787 -0.312348 56.0337 0.933139L34.0631 22.9037V17.033C34.0631 7.64245 26.4222 0.00151733 17.0316 0.00151733C7.6411 0.00151733 0.000170778 7.64245 0.000170778 17.033V22.3553C0.000170778 25.2902 2.38762 27.6777 5.32251 27.6777C8.2574 27.6777 10.6448 25.2902 10.6448 22.3553V17.033C10.6448 13.5108 13.5094 10.6462 17.0316 10.6462C20.5539 10.6462 23.4185 13.5108 23.4185 17.033V33.5487L0.935686 56.0314C0.332175 56.6349 0 57.4362 0 58.2892C0 59.1417 0.332175 59.9443 0.935686 60.547L5.4511 65.0633C6.05461 65.6668 6.85631 65.999 7.70971 65.999C8.56311 65.999 9.36481 65.6668 9.96748 65.0633L23.4187 51.6121V60.6763C23.4187 63.6112 25.8061 65.9986 28.741 65.9986C31.6759 65.9986 34.0634 63.6112 34.0634 60.6763V40.9672L65.0655 9.96493ZM57.5387 2.43811C57.9526 2.02421 58.6288 2.02278 59.0451 2.43811L63.5606 6.95352C63.9759 7.36886 63.9759 8.04365 63.5606 8.45996L54.5881 17.4324C54.2208 16.9225 53.9057 16.3575 53.6619 15.7283L51.6779 16.4981C52.0314 17.4114 52.4986 18.2321 53.065 18.9559L43.2838 28.737C40.5675 24.973 41.9693 18.9183 42.2973 17.6813L50.9494 9.02919C50.7973 10.3811 50.7374 11.9917 50.9598 13.633L53.0683 13.3465C52.6544 10.2914 53.3687 7.2396 53.5953 6.38182L57.5387 2.43811ZM39.6435 20.3333C39.3189 23.2093 39.4296 27.2619 41.7691 30.2509L34.0626 37.9579V25.9142L39.6435 20.3333ZM25.5463 22.7963L31.9032 16.4394C31.9108 16.6386 31.9331 16.8334 31.9331 17.0335V30.4311L25.5463 36.8179L25.5463 22.7963ZM8.51481 22.3558C8.51481 24.1165 7.0821 25.5492 5.32141 25.5492C3.56072 25.5492 2.12801 24.1165 2.12801 22.3558V17.0335H8.51481V22.3558ZM8.79471 14.9045H2.29818C2.93496 10.4871 5.5063 6.69767 9.13315 4.41862L12.3233 9.94339C10.6011 11.0905 9.32707 12.8493 8.79484 14.9045H8.79471ZM14.2354 8.99863L11.0101 3.41206C12.8534 2.59374 14.8878 2.13093 17.0305 2.13093C19.1732 2.13093 21.2076 2.59378 23.0509 3.41254L19.8256 8.99911C18.9484 8.69213 18.0108 8.51773 17.0304 8.51773C16.05 8.51773 15.1124 8.69213 14.2352 8.99864L14.2354 8.99863ZM21.739 9.94429L24.9291 4.41952C28.2417 6.50137 30.6805 9.84064 31.563 13.7706L25.5464 19.7863V17.0334C25.5464 14.0776 24.0314 11.4715 21.739 9.94429ZM8.46053 63.5582C8.05945 63.9607 7.35757 63.9607 6.95556 63.5582L2.43918 59.0418C2.23864 58.8403 2.12791 58.5732 2.12791 58.289C2.12791 58.0049 2.23864 57.7378 2.43965 57.5363L11.3949 48.5801C11.0704 51.4561 11.1811 55.5086 13.5206 58.4976L8.46053 63.5582ZM15.0346 56.9851C12.3183 53.22 13.7211 47.1654 14.048 45.9284L23.4173 36.5586V48.6018L15.0346 56.9851ZM28.74 63.87C26.9793 63.87 25.5466 62.4372 25.5466 60.6766V56.8592L28.4284 53.9775L26.9234 52.4725L25.5468 53.8491V39.8273L31.9336 33.4405V47.4611L28.6465 50.7482L30.1515 52.2532L31.9334 50.4715V60.6757C31.9334 62.4364 30.5007 63.8691 28.74 63.8691V63.87Z" fill="#A96D8E"/>
<path d="M65.9971 32.4673C65.9971 31.0003 64.8029 29.8061 63.3359 29.8061H49.4978C48.0308 29.8061 46.8367 31.0003 46.8367 32.4673C46.8367 33.039 47.0249 33.6054 47.3689 34.064L49.7436 37.2308C47.9972 38.3717 46.8367 40.3409 46.8367 42.5797V53.2244C46.8367 55.4631 47.9957 57.4324 49.7436 58.5734L47.3676 61.7411C47.0249 62.1987 46.8368 62.7652 46.8368 63.3368C46.8368 64.8039 48.031 65.998 49.4979 65.998H63.336C64.803 65.998 65.9972 64.8038 65.9972 63.3368C65.9972 62.7652 65.809 62.1987 65.4649 61.7401L63.0903 58.5734C64.8366 57.4324 65.9972 55.4632 65.9972 53.2244V42.5797C65.9972 40.3411 64.8381 38.3717 63.0903 37.2308L65.4663 34.063C65.8089 33.6054 65.9971 33.0389 65.9971 32.4673ZM63.7607 63.0169C63.8311 63.1105 63.8681 63.2212 63.8681 63.3372C63.8681 63.6309 63.6296 63.8694 63.3359 63.8694H49.4978C49.2041 63.8694 48.9656 63.6309 48.9656 63.3372C48.9656 63.2212 49.0026 63.1105 49.072 63.0178L51.7589 59.4348C52.2303 59.5465 52.7188 59.6116 53.2235 59.6116H59.6103C60.1149 59.6116 60.6034 59.5465 61.0748 59.4357L63.7607 63.0169ZM63.8681 53.2248C63.8681 55.5728 61.9583 57.4826 59.6103 57.4826H53.2235C50.8754 57.4826 48.9656 55.5728 48.9656 53.2248V42.5801C48.9656 40.2321 50.8754 38.3222 53.2235 38.3222H59.6103C61.9583 38.3222 63.8681 40.2321 63.8681 42.5801V53.2248ZM63.7617 32.787L61.0748 36.3701C60.6034 36.2584 60.1149 36.1933 59.6103 36.1933H53.2235C52.7188 36.1933 52.2303 36.2584 51.7589 36.3691L49.073 32.787C49.0027 32.6944 48.9656 32.5836 48.9656 32.4677C48.9656 32.174 49.2042 31.9354 49.4978 31.9354H63.3359C63.6296 31.9354 63.8681 32.174 63.8681 32.4677C63.8681 32.5836 63.8311 32.6944 63.7617 32.787L63.7617 32.787Z" fill="#A96D8E"/>
<path d="M51.0947 43.6455V50.0324H53.2237V43.6455C53.2237 43.0591 53.7017 42.5811 54.2881 42.5811H55.3526V40.4521H54.2881C52.5274 40.4521 51.0947 41.8849 51.0947 43.6455Z" fill="#A96D8E"/>
<path d="M51.0947 52.1597H53.2237V54.2886H51.0947V52.1597Z" fill="#A96D8E"/>
</svg>
