<svg width="72" height="80" viewBox="0 0 72 80" fill="none" xmlns="http://www.w3.org/2000/svg">
<path d="M33.2577 2.34751C28.895 1.25933 23.2528 2.62558 20.4813 8.13168L20.4559 8.1811L20.4131 8.1441C15.7274 4.13735 9.99599 5.05854 6.39395 7.74748C2.13756 10.9258 0.767715 16.0761 2.90457 20.8682C3.85675 23.0037 5.3925 24.7765 7.51498 26.1655L25.1847 36.2813L32.3359 71.8489C32.4342 72.3379 32.9102 72.6545 33.3992 72.5562C33.8881 72.4579 34.2047 71.9819 34.1064 71.4929L26.9555 35.9269L39.3741 19.7244C40.7627 17.6675 41.4939 15.4387 41.5466 13.1011C41.666 7.85533 38.412 3.63471 33.2579 2.3485L33.2577 2.34751ZM39.7417 13.059C39.6965 15.045 39.0694 16.9477 37.9094 18.6691L25.7536 34.5266L8.45907 24.6282C6.67701 23.4605 5.36386 21.9479 4.55478 20.1344C2.39206 15.2844 4.77678 11.2108 7.47574 9.1954C8.59482 8.35959 9.95783 7.72715 11.4301 7.43113C13.9395 6.92658 16.7658 7.40075 19.2409 9.51717L20.1586 10.3025C20.3695 10.4823 20.651 10.5567 20.9232 10.502C21.1949 10.4474 21.4272 10.2709 21.5513 10.0225L22.0943 8.9441C24.4188 4.32879 29.156 3.18691 32.8207 4.09943C36.0887 4.91446 39.8618 7.74998 39.7418 13.0589L39.7417 13.059Z" fill="#A96D8E"/>
<path d="M16.8877 24.1743C16.4544 23.9261 15.904 24.0766 15.6557 24.5093C15.4081 24.9419 15.5582 25.4937 15.9908 25.7413L16.9583 26.295C17.1557 26.4082 17.3775 26.4381 17.5843 26.3965C17.8313 26.3469 18.0558 26.1951 18.1903 25.96C18.4379 25.5274 18.2878 24.9756 17.8552 24.728L16.8877 24.1743Z" fill="#A96D8E"/>
<path d="M12.3406 11.9035C12.8296 11.8052 13.1462 11.3292 13.0479 10.8403C12.9496 10.3513 12.4736 10.0347 11.9847 10.133C9.93145 10.5458 8.07485 11.9275 7.1387 13.7401C6.28458 15.3955 6.26687 17.1666 7.08651 19.0038C7.6591 20.2863 8.59353 21.372 9.92287 22.2686L12.231 23.59C12.4284 23.7025 12.6503 23.733 12.8571 23.6915C13.104 23.6418 13.3285 23.4901 13.463 23.2549C13.7107 22.8223 13.5606 22.2706 13.128 22.0229L10.8772 20.7375C9.88919 20.0691 9.16777 19.2378 8.73515 18.2682C8.14202 16.9379 8.14399 15.7274 8.74261 14.5678C9.43354 13.2317 10.8122 12.2107 12.3407 11.9034L12.3406 11.9035Z" fill="#A96D8E"/>
<path d="M66.2008 36.3533C63.7216 33.4851 59.1842 31.6769 54.5982 34.0534C53.2588 29.063 48.863 26.9353 45.072 27.0397C40.5505 27.1653 37.0722 30.0795 36.2107 34.4645C35.8269 36.4155 36.0263 38.3986 36.8238 40.4092L44.0218 55.8083L37.0068 71.7225C36.8056 72.1789 37.0125 72.7118 37.4688 72.913C37.9251 73.1141 38.4581 72.9073 38.6593 72.4509L45.6743 56.5367L61.9483 51.4441C63.9201 50.6941 65.5179 49.5033 66.6994 47.9047C69.3542 44.3095 69.1588 39.7759 66.2008 36.3533L66.2008 36.3533ZM65.2471 46.8316C64.2748 48.1475 62.9489 49.1321 61.3575 49.7386L45.497 54.7004L38.4814 39.6948C37.8346 38.0617 37.6671 36.4187 37.9827 34.8128C38.8243 30.5305 42.355 28.9214 45.123 28.8444C46.272 28.8121 47.4885 29.0324 48.6195 29.531C50.5462 30.3803 52.2222 32.0377 52.884 34.6327L53.1335 35.6138C53.2023 35.8823 53.3896 36.1052 53.6437 36.2172L53.6443 36.2175C53.8978 36.3292 54.1888 36.3185 54.4337 36.1876L55.3265 35.7107L55.3268 35.7101C59.0753 33.707 62.8049 35.1825 64.8353 37.5342C66.646 39.6288 67.8403 43.3214 65.2472 46.8316L65.2471 46.8316Z" fill="#A96D8E"/>
<path d="M45.901 44.7508C45.6882 44.2998 45.1518 44.1054 44.7008 44.3153C44.2492 44.5264 44.0543 45.0639 44.2653 45.5155L44.6277 46.2904C44.7243 46.4961 44.8881 46.6488 45.0812 46.7339C45.3116 46.8355 45.5825 46.8407 45.8279 46.7259C46.2795 46.5148 46.4744 45.9773 46.2634 45.5257L45.901 44.7508Z" fill="#A96D8E"/>
<path d="M42.703 37.9145C42.415 37.1442 42.3385 36.3982 42.4765 35.6979C42.6567 34.7802 43.092 34.1532 43.8075 33.7805C44.6927 33.3194 45.8353 33.2939 46.7907 33.715C47.247 33.9162 47.78 33.7093 47.9811 33.253C48.1823 32.7966 47.9754 32.2637 47.5191 32.0625C46.0746 31.4258 44.3327 31.47 42.9729 32.1787C41.7745 32.8038 40.9904 33.9004 40.7057 35.3488C40.5026 36.3823 40.6058 37.458 41.0404 38.6123L42.8869 42.5614C42.9834 42.7671 43.1473 42.9198 43.3403 43.0049C43.5708 43.1065 43.8417 43.1117 44.087 42.9969C44.5386 42.7858 44.7336 42.2483 44.5225 41.7967L42.703 37.9145Z" fill="#A96D8E"/>
</svg>
