<svg width="70" height="70" viewBox="0 0 70 70" fill="none" xmlns="http://www.w3.org/2000/svg">
<path d="M29.5141 48.7131C29.5751 48.0539 29.3027 47.4084 28.788 46.9924L26.1211 44.863H26.1216C26.0093 44.7771 25.8906 44.7009 25.7656 44.6355C25.8965 44.3376 25.9917 44.0256 26.0483 43.7053C26.2783 42.4036 26.6709 39.9725 26.9628 37.1112C26.3491 36.1912 25.6909 35.1747 25.0205 34.0922V34.0917C24.8115 37.1874 24.4355 40.2699 23.8936 43.325C23.7954 43.8967 23.4297 44.3875 22.9092 44.6448C22.3863 44.9085 21.7686 44.9066 21.2476 44.6399C15.1358 41.5477 7.0415 36.4897 4.34153 32.4096C2.3288 29.4247 1.68868 25.7217 2.5818 22.2345C3.33472 19.2516 5.32639 16.732 8.05536 15.3112C9.49435 14.5875 11.0827 14.2116 12.6934 14.213C14.04 14.2179 15.3745 14.4674 16.6319 14.9498C17.1172 15.1349 17.5899 15.3512 18.0474 15.5973C18.0576 14.8107 18.1162 14.0255 18.2227 13.2462C17.9541 13.1241 17.6831 13.0084 17.4072 12.9039V12.9044C14.0543 11.585 10.299 11.7496 7.07386 13.3565C3.78577 15.0581 1.38205 18.0835 0.467936 21.6714C-0.586252 25.7626 0.159339 30.1098 2.51679 33.6162C6.30337 39.3377 17.9616 45.4285 20.2603 46.591C20.7618 46.8439 21.3106 46.9895 21.8712 47.0183C21.8697 47.0671 21.8644 47.1149 21.8653 47.1643L21.9313 50.5836H21.9317C21.9396 51.2223 22.2564 51.8175 22.7818 52.1802C23.0548 52.3638 23.3717 52.4707 23.6998 52.4898C24.0274 52.5093 24.3551 52.4405 24.6475 52.2906L25.335 51.9317C26.4522 53.7764 27.064 56.0864 27.21 59.0395V59.04C27.3238 60.9487 27.7793 62.8217 28.5547 64.5696C28.275 62.1634 28.5206 59.7255 29.2749 57.4237C29.0909 55.1351 28.4136 52.9135 27.2901 50.9116L28.4888 50.2861C29.0786 49.9726 29.4663 49.3784 29.5147 48.7123L29.5141 48.7131ZM24.1099 50.1037L24.0523 47.1238C24.0352 46.8889 24.1465 46.6638 24.3428 46.5339C24.397 46.5012 24.459 46.4831 24.5225 46.4822C24.6084 46.4846 24.691 46.5168 24.7564 46.5725L27.1757 48.5041L24.1099 50.1037Z" fill="#A96D8E"/>
<path d="M33.9328 57.478C35.6843 53.5537 36.3557 50.1695 35.9884 47.0289H37.4513C38.0987 47.0318 38.7038 46.7076 39.0601 46.1676C39.4224 45.6144 39.4639 44.9107 39.1695 44.319L37.4488 40.8733C37.4415 40.8581 37.4297 40.8464 37.4219 40.8318C37.8492 40.5544 38.2246 40.2048 38.5313 39.7981C40.9849 36.511 49.0389 25.2145 49.6825 17.8458H49.683C50.1747 13.0661 48.6449 8.29856 45.4643 4.69722C42.8037 1.71925 39.0039 0.0117733 35.0108 -0.000976562C30.901 0.0517578 27.0084 1.855 24.3112 4.95647C21.2067 8.5008 19.7629 13.2015 20.342 17.8776C21.2302 25.4947 29.7881 37.4549 31.4947 39.7748V39.7743C31.7935 40.1772 32.1598 40.5258 32.5767 40.8046C32.5636 40.829 32.5445 40.8485 32.5318 40.8739L30.8111 44.3202V44.3197C30.5167 44.9115 30.5582 45.6145 30.92 46.1678C31.2759 46.7088 31.8814 47.0335 32.5293 47.0301H33.7778C34.1641 49.845 33.5664 52.9334 31.9351 56.5876C30.0524 60.694 30.2023 65.4453 32.3394 69.4249C32.627 69.9567 33.2906 70.1544 33.8218 69.8673C34.353 69.5797 34.5513 68.9161 34.2637 68.385C32.4273 65.009 32.3042 60.9607 33.9326 57.4793L33.9328 57.478ZM22.5149 17.6235C22.0081 13.5679 23.2557 9.48831 25.945 6.41022C28.2273 3.775 31.5251 2.23839 35.0108 2.18564C38.3901 2.20126 41.6035 3.651 43.8516 6.17385C46.6182 9.32318 47.9424 13.4858 47.5039 17.6552C47.0322 23.0537 41.6544 31.9576 36.7784 38.49C36.3673 39.0476 35.7149 39.3757 35.0221 39.3733H35.0142C34.3189 39.3733 33.6661 39.0403 33.2569 38.4783C28.7008 32.2835 23.154 23.1059 22.5148 17.6235L22.5149 17.6235ZM34.4894 41.8494C34.5998 41.6795 34.7883 41.5775 34.9904 41.5775C35.193 41.578 35.3815 41.68 35.4914 41.8499L36.9855 44.8416H32.9953L34.4894 41.8494Z" fill="#A96D8E"/>
<path d="M69.5136 21.6723C68.5995 18.0845 66.1957 15.0587 62.9076 13.3574C59.683 11.7501 55.9277 11.5855 52.5748 12.9053C52.2881 13.0142 52.0064 13.1353 51.7276 13.2627C51.8389 14.0376 51.9058 14.8183 51.9283 15.6011C52.3878 15.354 52.8628 15.1367 53.3501 14.9507C56.1314 13.852 59.2476 13.9839 61.9262 15.312C64.6551 16.7329 66.6469 19.2523 67.3997 22.2353C68.2928 25.7225 67.6527 29.4256 65.6405 32.4104C62.9403 36.4905 54.8452 41.5485 48.7344 44.6403V44.6398C48.2154 44.9049 47.6016 44.9088 47.0802 44.6496C46.5582 44.3903 46.1901 43.8991 46.088 43.3258C45.5563 40.3264 45.1837 37.3015 44.9718 34.2629C44.3024 35.3308 43.6452 36.3323 43.0319 37.2385C43.3229 40.0446 43.7071 42.4235 43.9337 43.7062L43.9332 43.7057C43.9908 44.0231 44.086 44.3322 44.2179 44.6261C44.0919 44.6955 43.9723 44.775 43.8595 44.8644L41.1935 46.9932C40.6789 47.4088 40.4064 48.0548 40.4669 48.714C40.5163 49.3805 40.904 49.9752 41.4948 50.2882L42.5519 50.84C42.0607 53.4513 40.5284 55.8125 37.7702 58.2188C36.736 59.1372 35.8302 60.1914 35.0778 61.352C34.8864 62.771 35.0114 64.2147 35.4426 65.5799C36.1828 63.3822 37.4807 61.4135 39.2087 59.8666C42.1418 57.308 43.8674 54.7397 44.5601 51.8872L45.336 52.292L45.3365 52.2925C45.6285 52.4429 45.9561 52.5122 46.2842 52.4922C46.6123 52.4726 46.9292 52.3652 47.2012 52.1807C47.7261 51.8179 48.0425 51.2231 48.0508 50.5849L48.1167 47.1665C48.1177 47.1167 48.1128 47.0683 48.1113 47.019H48.1108C48.6719 46.9902 49.2202 46.8447 49.7217 46.5918C52.0201 45.4292 63.679 39.3385 67.4653 33.6169C69.8226 30.1106 70.5682 25.7635 69.5141 21.6722L69.5136 21.6723ZM45.8713 50.1045L42.8055 48.5049L45.224 46.5738C45.3392 46.4713 45.5076 46.4556 45.6395 46.5352C45.8353 46.6646 45.9456 46.8897 45.9285 47.1236L45.8713 50.1045Z" fill="#A96D8E"/>
<path d="M14.9994 18.9623C13.5053 18.3935 11.8393 18.4902 10.4208 19.2275C10.163 19.3612 9.96866 19.5922 9.88126 19.8691C9.79386 20.1464 9.82023 20.4467 9.9545 20.704C10.0888 20.9618 10.3197 21.1557 10.5971 21.2426C10.8744 21.329 11.1747 21.3021 11.432 21.1674C12.2943 20.7123 13.3119 20.6537 14.2206 21.0067C15.2738 21.4281 16.0927 22.2851 16.4667 23.3558C16.6811 23.9208 17.3129 24.2049 17.8778 23.9906C18.4428 23.7762 18.7269 23.1444 18.5126 22.5795C17.9198 20.9222 16.6386 19.603 14.9995 18.9623L14.9994 18.9623Z" fill="#A96D8E"/>
<path d="M52.1038 23.9895C52.6682 24.1985 53.2967 23.9157 53.5149 23.3547C53.8884 22.2839 54.7078 21.427 55.7605 21.0056C56.6697 20.6526 57.6867 20.7112 58.5491 21.1663C59.0847 21.4456 59.7454 21.238 60.0252 20.7024C60.3045 20.1668 60.0965 19.5061 59.5609 19.2268C58.1429 18.4885 56.4769 18.3918 54.9828 18.9612C53.3432 19.6018 52.0619 20.9212 51.4692 22.5784C51.2553 23.1433 51.539 23.7747 52.104 23.9895L52.1038 23.9895Z" fill="#A96D8E"/>
<path d="M34.9904 8.2017C36.8146 8.20561 38.5528 8.97659 39.7808 10.3257C41.1069 11.8062 41.7393 13.7813 41.5191 15.7562C41.4634 16.3578 41.9053 16.8905 42.5068 16.9467C42.541 16.9501 42.5757 16.9515 42.6094 16.9515C43.1738 16.951 43.645 16.5214 43.6972 15.9594C43.978 13.371 43.1416 10.7855 41.3979 8.85206C39.7548 7.04883 37.4297 6.0191 34.9902 6.01422C34.3862 6.01422 33.8965 6.50397 33.8965 7.10796C33.8965 7.71195 34.3862 8.2017 34.9902 8.2017L34.9904 8.2017Z" fill="#A96D8E"/>
</svg>
