<svg width="48" height="70" viewBox="0 0 48 70" fill="none" xmlns="http://www.w3.org/2000/svg">
<path d="M0 64.8525C0 67.69 2.30903 69.999 5.1475 69.999H42.2378C45.0758 69.999 47.3853 67.69 47.3853 64.8525L47.3847 11.9914C47.3847 9.15392 45.0757 6.84489 42.2372 6.84489H39.3243V4.19406C39.3243 2.92995 38.7628 1.74726 37.784 0.94698C36.8058 0.146744 35.533 -0.168464 34.2939 0.0843554L0.935569 6.86824C0.856901 6.88397 0.781486 6.90785 0.709874 6.93823C0.69197 6.94582 0.677322 6.95667 0.659419 6.96535C0.608963 6.99031 0.557423 7.01527 0.511849 7.04619C0.47984 7.06789 0.452714 7.09448 0.423416 7.11943C0.395205 7.14276 0.364822 7.16392 0.339323 7.18996C0.313825 7.21655 0.292664 7.24693 0.269334 7.2746C0.245462 7.30389 0.218881 7.33211 0.197179 7.36412C0.177648 7.39341 0.163542 7.42651 0.146724 7.45743C0.128278 7.4927 0.106033 7.52525 0.0908427 7.56268C0.0723969 7.60771 0.0604608 7.656 0.04744 7.70428C0.0403871 7.72978 0.0295355 7.75311 0.0246535 7.77915C0.0089202 7.85456 0.00132455 7.93323 0.00132455 8.0119L0.00186708 64.8521L0 64.8525ZM35.1958 9.17753C35.7405 14.3647 39.8671 18.5124 45.0504 19.0793V31.8707H37.576C37.1772 30.6408 36.512 29.4835 35.5632 28.507C33.9719 26.869 31.8462 25.9657 29.5773 25.9657C27.3562 25.9657 25.2718 26.8305 23.6925 28.4049C22.1126 26.8315 20.0282 25.9657 17.8076 25.9657C15.5387 25.9657 13.413 26.8679 11.8218 28.507C10.8729 29.4841 10.2078 30.6413 9.80902 31.8707H2.33458L2.33513 19.0853C7.54234 18.5401 11.6916 14.3881 12.2369 9.17809L35.1958 9.17753ZM2.33333 44.9706H15.9319L22.8547 52.0994C23.075 52.3257 23.3766 52.4532 23.6918 52.4532C24.007 52.4532 24.3087 52.3257 24.529 52.0994L31.4517 44.9706H45.0503V57.7706C39.8642 58.3343 35.7356 62.4717 35.193 67.6642H12.2347C11.6894 62.4569 7.54008 58.3082 2.33286 57.7629L2.33333 44.9706ZM37.9986 34.2035H45.0494V42.6372H33.7169L35.5626 40.7372C37.3025 38.9453 38.1082 36.556 37.9986 34.2035ZM35.5305 33.2058C35.5398 33.2709 35.5555 33.3333 35.575 33.3946C35.9553 35.4003 35.3938 37.5601 33.8882 39.1112L30.1431 42.9676C30.1328 42.9768 30.1246 42.9872 30.1143 42.9969L23.6913 49.6121L17.2677 42.9969C17.2584 42.9866 17.2492 42.9774 17.2389 42.9676L13.4938 39.1112C11.9882 37.5601 11.4256 35.4003 11.807 33.3946C11.827 33.3333 11.8422 33.2709 11.8515 33.2058C12.1005 32.0789 12.643 31.008 13.4942 30.1317C14.6422 28.9496 16.1738 28.2991 17.8063 28.2991C19.4388 28.2991 20.9692 28.9501 22.1184 30.1317L22.8552 30.8902C23.2941 31.3427 24.0894 31.3427 24.5284 30.8902L25.2651 30.1317C26.4131 28.9496 27.9447 28.2991 29.5761 28.2991C31.2086 28.2991 32.7401 28.9501 33.8882 30.1317C34.7389 31.0079 35.2819 32.079 35.5304 33.2058H35.5305ZM11.8208 40.7373L13.6665 42.6373H2.33403V34.2035H9.38486C9.27526 36.556 10.0809 38.9453 11.8208 40.7373ZM2.33347 16.7262V9.17634H9.87791C9.35437 13.0972 6.25055 16.2038 2.33347 16.7262ZM2.33347 64.8512V60.1213C6.25055 60.6438 9.35555 63.747 9.87791 67.6642H5.1475C3.59583 67.6642 2.33333 66.4017 2.33333 64.8512H2.33347ZM42.2362 67.6642H37.5504C38.0707 63.7623 41.1539 60.6671 45.0504 60.1273V64.8506C45.0504 66.4017 43.7879 67.6642 42.2362 67.6642ZM45.0504 11.9906V16.7211C41.1583 16.1796 38.075 13.078 37.5536 9.17772H42.2368C43.7879 9.17718 45.0504 10.4397 45.0504 11.9908V11.9906ZM34.759 2.3694C35.3091 2.25818 35.8728 2.39652 36.3073 2.75188C36.7414 3.10724 36.9904 3.63241 36.9904 4.19285V6.84368L12.7571 6.84423L34.759 2.3694Z" fill="#A96D8E"/>
</svg>
