<svg width="39" height="70" viewBox="0 0 39 70" fill="none" xmlns="http://www.w3.org/2000/svg">
<path d="M3.50645 23.6976C0.787143 26.9767 -0.434175 31.2444 0.138218 35.4657L5.97149 67.1293C6.11888 67.9351 6.5444 68.6637 7.17355 69.1877C7.80324 69.7122 8.59647 69.9997 9.41566 69.9992H14.5489V67.6658H9.41566C8.85264 67.6653 8.37036 67.2638 8.26879 66.7101L7.36828 61.8252C7.40318 61.8252 7.43807 61.832 7.47349 61.832L7.47297 61.8325C9.82081 61.831 12.0109 60.6523 13.3062 58.694C14.6 60.6533 16.7917 61.8325 19.1395 61.8325C21.4873 61.8325 23.6791 60.6534 24.9728 58.694C26.2681 60.6524 28.4582 61.8309 30.806 61.8325C30.8409 61.8325 30.8758 61.8258 30.9112 61.8258L30.0107 66.7117H30.0102C29.9081 67.2643 29.4258 67.6659 28.8633 67.6659H16.8468V69.9992H28.8633C29.6816 69.9992 30.4737 69.7122 31.1024 69.1888C31.7315 68.6653 32.1571 67.9383 32.305 67.1341L38.1497 35.4131H38.1502C38.7059 31.2075 37.4794 26.9606 34.7669 23.6987L28.5509 16.2415C27.8379 15.3816 27.5759 14.2342 27.8441 13.1498L29.3826 7.00041H29.6394C30.2581 7.00041 30.8519 6.75457 31.2894 6.31708C31.7269 5.87959 31.9727 5.28584 31.9727 4.6671V2.33379C31.9727 1.71506 31.7269 1.1213 31.2894 0.683814C30.8519 0.246325 30.2581 0.000488281 29.6394 0.000488281H24.9728V2.33379H29.6394V4.6671H8.63963V2.33379H17.9541V0.000488281H8.63963C8.02089 0.000488281 7.42714 0.246325 6.98965 0.683814C6.55216 1.1213 6.30632 1.71506 6.30632 2.33379V4.6671C6.30632 5.28584 6.55216 5.87959 6.98965 6.31708C7.42714 6.75457 8.02089 7.00041 8.63963 7.00041H8.8964L10.4338 13.1498C10.7026 14.2342 10.4396 15.3815 9.72552 16.2404L3.50645 23.6976ZM35.8461 35.0458L34.9956 39.6655H29.3383L35.3044 29.4375C35.9028 31.2427 36.0882 33.1593 35.846 35.0457L35.8461 35.0458ZM24.9727 50.971C23.679 49.0117 21.4873 47.8325 19.1395 47.8325C16.7916 47.8325 14.5999 49.0116 13.3062 50.971C12.4255 49.6231 11.1032 48.6241 9.56611 48.1455C8.02866 47.6669 6.37295 47.7388 4.88283 48.3481L3.71618 41.9993H34.5652L33.3985 48.3481C31.9084 47.7377 30.2521 47.6659 28.7142 48.1445C27.1767 48.6231 25.8538 49.6226 24.973 50.971L24.9727 50.971ZM2.44232 35.1045C2.19389 33.1999 2.3767 31.2644 2.97669 29.44L8.94062 39.6659H3.28229L2.44232 35.1045ZM13.0042 39.6659L19.1396 29.1472L25.275 39.6659H13.0042ZM27.3067 38.518L21.1713 27.9993H33.442L27.3067 38.518ZM10.9736 38.518L4.83816 27.9993H17.1088L10.9736 38.518ZM7.4736 59.4991C7.29287 59.4975 7.11267 59.4856 6.9335 59.4632L6.46684 56.9277C6.77986 57.0824 7.12412 57.1637 7.4736 57.1657C8.25952 57.1684 8.99438 56.7751 9.42824 56.1199C9.86157 55.4642 9.93605 54.6339 9.62616 53.9117C9.31575 53.1893 8.66263 52.6721 7.88872 52.5352C7.11476 52.3982 6.32367 52.6602 5.78407 53.232L5.31741 50.6957C6.58876 50.0321 8.09391 49.9899 9.40016 50.5806C10.7064 51.1717 11.6689 52.33 12.0095 53.7227C12.3506 55.1148 12.0329 56.5872 11.1475 57.7147C10.2621 58.8423 8.9074 59.5002 7.47355 59.4991L7.4736 59.4991ZM19.1401 59.4991C17.9027 59.4991 16.7156 59.0074 15.8402 58.1324C14.9652 57.2569 14.4735 56.0699 14.4735 54.8325C14.4735 53.595 14.9652 52.408 15.8402 51.5325C16.7157 50.6575 17.9027 50.1659 19.1401 50.1659C20.3776 50.1659 21.5646 50.6575 22.4401 51.5325C23.3151 52.408 23.8067 53.595 23.8067 54.8325C23.8067 56.0699 23.3151 57.257 22.4401 58.1324C21.5646 59.0074 20.3776 59.4991 19.1401 59.4991ZM30.8067 59.4991C29.3728 59.5001 28.0182 58.8423 27.1327 57.7147C26.2473 56.5871 25.9296 55.1147 26.2707 53.7226C26.6114 52.33 27.5739 51.1716 28.88 50.5805C30.1863 49.9899 31.6915 50.0321 32.9628 50.6956L32.4961 53.232C32.0998 52.8101 31.5618 52.5508 30.9852 52.5034C30.4092 52.4565 29.8358 52.6247 29.3764 52.9763C28.9176 53.3278 28.6051 53.8372 28.5004 54.406C28.3957 54.9748 28.5056 55.5622 28.8093 56.0544C29.1129 56.5466 29.5884 56.908 30.1436 57.0695C30.6989 57.2309 31.2947 57.1804 31.8144 56.9278L31.3478 59.4633C31.1686 59.4856 30.9879 59.4976 30.8066 59.4992L30.8067 59.4991ZM12.6975 12.585L11.3006 7.0001H26.9791L25.5791 12.585C25.1328 14.3912 25.5708 16.3021 26.7593 17.7333L32.9754 25.1916C33.1025 25.3432 33.2087 25.5078 33.3254 25.6651L4.94971 25.6656C5.06637 25.5083 5.18304 25.3437 5.29971 25.1921L11.519 17.7334C12.707 16.3017 13.1444 14.3908 12.6976 12.5851L12.6975 12.585Z" fill="#A96D8E"/>
<path d="M20.2876 -0.000976562H22.6397V2.33233H20.2876V-0.000976562Z" fill="#A96D8E"/>
<path d="M21.473 54.8318C21.473 56.1204 20.4282 57.1651 19.1397 57.1651C17.8512 57.1651 16.8064 56.1204 16.8064 54.8318C16.8064 53.5433 17.8512 52.4985 19.1397 52.4985C20.4282 52.4985 21.473 53.5433 21.473 54.8318Z" fill="#A96D8E"/>
</svg>
