<svg width="20" height="18" viewBox="0 0 20 18" fill="none" xmlns="http://www.w3.org/2000/svg">
<path fill-rule="evenodd" clip-rule="evenodd" d="M20 1C20 0.447715 19.5523 0 19 0H1C0.447716 0 0 0.447715 0 1C0 1.55228 0.447716 2 1 2H19C19.5523 2 20 1.55228 20 1ZM20 9C20 8.44771 19.5523 8 19 8H6C5.44771 8 5 8.44771 5 9C5 9.55228 5.44772 10 6 10H19C19.5523 10 20 9.55228 20 9ZM19 16C19.5523 16 20 16.4477 20 17C20 17.5523 19.5523 18 19 18H1C0.447716 18 0 17.5523 0 17C0 16.4477 0.447716 16 1 16H19Z" fill="#441E43"/>
</svg>
