<svg width="29" height="50" viewBox="0 0 29 50" fill="none" xmlns="http://www.w3.org/2000/svg">
<path d="M14.3761 7.87848C17.3009 7.87848 19.6799 10.2575 19.6799 13.1823C19.6799 16.0968 17.3009 18.4758 14.3761 18.4758C11.4513 18.4758 9.0723 16.0968 9.0723 13.1823C9.0723 10.2575 11.4513 7.87848 14.3761 7.87848ZM14.3761 26.3543C21.647 26.3543 27.5481 20.4531 27.5481 13.1823C27.5481 5.91143 21.647 0 14.3761 0C7.10525 0 1.19382 5.91143 1.19382 13.1823C1.19382 20.4428 7.10525 26.3543 14.3761 26.3543ZM19.5563 36.4264C22.1619 35.8393 24.6748 34.8095 26.992 33.3471C28.7427 32.2451 29.268 29.9279 28.166 28.1771C27.0641 26.4264 24.7469 25.8908 22.9961 27.0031C17.7438 30.2987 10.9981 30.2987 5.75613 27.0031C3.99506 25.8908 1.67786 26.4264 0.575901 28.1771C-0.526056 29.9279 -0.000822969 32.2451 1.76025 33.3471C4.06715 34.8095 6.59032 35.8393 9.19588 36.4264L2.02801 43.5942C0.565603 45.0566 0.565603 47.4356 2.03831 48.898C2.76952 49.6292 3.72729 50 4.68507 50C5.64284 50 6.61092 49.6292 7.34212 48.898L14.3761 41.8641L21.4204 48.898C22.8828 50.3605 25.2515 50.3605 26.7242 48.898C28.1866 47.4356 28.1866 45.0566 26.7242 43.5942L19.5563 36.4264Z" fill="#EE8208"/>
</svg>
