<svg width="97" height="100" viewBox="0 0 97 100" fill="none" xmlns="http://www.w3.org/2000/svg">
<path d="M96.5855 86.2928C92.1969 74.7537 84.7742 72.0545 78.7943 70.9912C73.8043 70.0983 67.5851 68.2451 65.3835 67.0361C65.3114 66.0361 65.2743 64.0071 65.4736 60.6921C65.5949 60.555 65.7183 60.4382 65.8393 60.294L65.776 60.237C68.7256 56.2901 70.1337 52.583 70.7692 50.0779C72.6735 48.7381 74.6741 46.1271 75.8505 41.0763C76.5321 38.1482 77.0424 34.4513 74.9364 31.803C74.8832 31.7398 74.8363 31.679 74.7841 31.6161C76.6691 13.0688 64.7534 3.69714 57.7561 1.25882L57.656 1.22496L57.5601 1.19599C55.0114 0.428098 52.561 0.0459164 50.2609 0.0208332C50.2407 0.0139973 50.2185 0.00716163 50.1996 0C50.1996 0 50.1686 0.00716146 50.1503 0.0110674C50.1095 0.0110674 50.0603 0 50.0191 0C49.4629 0 48.9419 0.0240882 48.4365 0.0631505C47.9237 0.0211582 47.3945 0 46.8673 0C44.4991 0 41.9602 0.402989 39.3225 1.19499L39.2253 1.22592L39.129 1.25814C32.1274 3.6963 20.2152 13.0681 22.1003 31.6155C22.0441 31.6786 21.9962 31.7395 21.9489 31.8023C19.839 34.4504 20.3532 38.1483 21.0338 41.0756C22.2115 46.1267 24.2068 48.7376 26.1161 50.0772C26.7444 52.5622 28.1496 56.2211 31.0431 60.1355V60.1374C31.047 60.1413 31.074 60.1765 31.077 60.1824C31.2424 60.4073 31.3595 60.6205 31.536 60.8445C31.7223 64.0205 31.6884 66.0004 31.6022 67.0453C29.3883 68.2442 23.1877 70.1003 18.2057 70.9902C12.2262 72.0553 4.80171 74.7542 0.414438 86.2902C-0.328099 88.2531 -0.0654723 90.38 1.14295 92.126C5.64481 98.6332 29.3825 100 48.5001 100C67.6177 100 91.3556 98.6332 95.8573 92.125C97.066 90.379 97.3276 88.252 96.5858 86.2931L96.5855 86.2928ZM30.3622 46.6363C30.3622 46.6363 30.3172 46.6435 30.234 46.6435C29.6467 46.6435 27.1611 46.2574 25.7041 39.9886C24.5684 35.1165 25.7563 34.3447 26.6303 34.3447C27.0332 34.3447 27.3679 34.5098 27.3679 34.5098C27.3539 34.4417 27.3539 34.3857 27.3409 34.3177L27.5484 34.5098L29.5238 40.6357C29.5238 40.6357 28.1979 23.4375 37.4796 22.115C37.4796 22.115 47.3333 32.2633 59.5755 34.4616C59.5755 34.4616 56.9248 29.6107 54.7148 25.2016C54.7148 25.2016 61.7855 33.1384 67.9735 34.4616C67.9735 34.4616 68.9137 33.2594 69.962 31.2845C69.8527 32.3284 69.7313 33.3835 69.5141 34.5094C69.5141 34.5094 69.8527 34.3444 70.2556 34.3444C71.1286 34.3444 72.3172 35.1155 71.1776 39.9883C69.7212 46.2581 67.2306 46.6431 66.6444 46.6431C66.5641 46.6431 66.5191 46.636 66.5191 46.636C66.5191 46.636 66.2053 52.5139 60.7854 58.8517C60.7854 58.9009 60.7772 58.9556 60.7772 59.0038C56.5588 63.2867 52.2565 65.3628 47.9394 65.2006C42.5737 64.9777 38.3339 61.3257 36.2275 59.1128C36.2246 59.0799 36.2216 59.0307 36.2216 58.9979C30.6902 52.6037 30.3623 46.6363 30.3623 46.6363L30.3622 46.6363ZM48.4993 80.502C41.0096 80.502 34.2976 77.5941 29.5922 72.9981C32.8305 71.9021 35.5586 70.627 36.0206 69.3871C36.3253 68.588 36.4356 67.1 36.4564 65.4262C39.3088 67.5613 43.1243 69.5802 47.7123 69.78C47.9639 69.794 48.2154 69.8012 48.4679 69.8012C52.6122 69.8012 56.6492 68.2683 60.5381 65.3051C60.5561 67.0281 60.6673 68.5691 60.9773 69.3871C61.4412 70.627 64.1683 71.9069 67.4134 72.9981C62.707 77.6 55.9905 80.5019 48.4996 80.5019L48.4993 80.502Z" fill="#D5CFD6"/>
</svg>
