<svg width="19" height="20" viewBox="0 0 19 20" fill="none" xmlns="http://www.w3.org/2000/svg">
<path d="M17.5734 14.1004V16.6004C17.5744 16.8325 17.5268 17.0622 17.4339 17.2749C17.3409 17.4875 17.2045 17.6784 17.0335 17.8353C16.8625 17.9922 16.6606 18.1116 16.4407 18.186C16.2209 18.2603 15.9879 18.288 15.7568 18.2671C13.1925 17.9884 10.7293 17.1122 8.5651 15.7087C6.55162 14.4293 4.84454 12.7222 3.5651 10.7087C2.15675 8.53474 1.2803 6.05957 1.00676 3.48374C0.985939 3.2533 1.01333 3.02104 1.08718 2.80176C1.16104 2.58248 1.27974 2.38098 1.43574 2.21009C1.59173 2.0392 1.7816 1.90266 1.99326 1.80917C2.20491 1.71569 2.43371 1.66729 2.6651 1.66707H5.1651C5.56952 1.66309 5.96159 1.80631 6.26823 2.07002C6.57487 2.33373 6.77516 2.69995 6.83176 3.10041C6.93728 3.90046 7.13297 4.68601 7.4151 5.44207C7.52722 5.74034 7.55148 6.0645 7.48502 6.37614C7.41856 6.68778 7.26415 6.97383 7.0401 7.20041L5.98176 8.25874C7.16806 10.345 8.89548 12.0724 10.9818 13.2587L12.0401 12.2004C12.2667 11.9764 12.5527 11.8219 12.8644 11.7555C13.176 11.689 13.5002 11.7133 13.7984 11.8254C14.5545 12.1075 15.34 12.3032 16.1401 12.4087C16.5449 12.4658 16.9146 12.6697 17.1789 12.9817C17.4432 13.2936 17.5836 13.6917 17.5734 14.1004Z" stroke="#3E0B3D" stroke-width="2" stroke-linecap="round" stroke-linejoin="round"/>
</svg>
