<svg width="100" height="78" viewBox="0 0 100 78" fill="none" xmlns="http://www.w3.org/2000/svg">
<path d="M49.6017 64.4206C44.5012 64.4206 39.6097 62.3943 36.0034 58.7882C32.3974 55.1822 30.3711 50.2905 30.3711 45.19C30.3711 40.0896 32.3974 35.1981 36.0034 31.5918C39.6095 27.9858 44.5012 25.9595 49.6017 25.9595C54.7021 25.9595 59.5936 27.9858 63.1999 31.5918C66.8059 35.1979 68.8322 40.0896 68.8322 45.19C68.8322 50.2905 66.8059 55.182 63.1999 58.7882C59.5938 62.3943 54.7021 64.4206 49.6017 64.4206ZM49.6017 33.6513C46.542 33.6513 43.6064 34.8675 41.4425 37.0315C39.2793 39.1947 38.0632 42.1302 38.0632 45.1898C38.0632 48.2504 39.2793 51.1851 41.4425 53.349C43.6065 55.5121 46.542 56.7283 49.6017 56.7283C52.6622 56.7283 55.597 55.5121 57.7609 53.349C59.924 51.185 61.1401 48.2504 61.1401 45.1898C61.1401 42.1302 59.924 39.1945 57.7609 37.0315C55.5968 34.8675 52.6622 33.6513 49.6017 33.6513Z" fill="white"/>
<path d="M88.4617 77.3696H11.5385C8.47791 77.3696 5.54317 76.1543 3.37927 73.9903C1.21524 71.8263 0 68.8916 0 65.832V35.0627C0 33.6882 0.732751 32.4188 1.9228 31.7321C3.11285 31.0443 4.57917 31.0443 5.76919 31.7321C6.95925 32.4189 7.692 33.6882 7.692 35.0627V65.832C7.692 66.8519 8.09708 67.8304 8.81812 68.5515C9.54007 69.2726 10.5177 69.6776 11.5385 69.6776H88.4617C89.4816 69.6776 90.4593 69.2726 91.1812 68.5515C91.9023 67.8305 92.3074 66.852 92.3074 65.832V26.0891C92.3074 25.0692 91.9023 24.0916 91.1812 23.3696C90.4593 22.6486 89.4817 22.2435 88.4617 22.2435H69.2312C68.3526 22.2471 67.5001 21.95 66.8152 21.4018C66.1292 20.8536 65.6521 20.0876 65.4613 19.2306L63.705 10.7688C63.5295 9.90912 63.065 9.13498 62.389 8.57507C61.7129 8.01515 60.865 7.7037 59.9872 7.69199H41.5775C40.7107 7.69199 39.8699 7.98455 39.1903 8.52197C38.5107 9.05938 38.0327 9.81105 37.8338 10.6536L35.7957 19.2944H35.7948C35.4771 20.6321 34.4689 21.698 33.1518 22.0914C31.834 22.4839 30.4072 22.1445 29.408 21.2002C28.4088 20.2559 27.9893 18.8499 28.308 17.513L30.3721 8.87128C30.9716 6.34904 32.4029 4.10218 34.4356 2.49251C36.4682 0.88208 38.9841 0.00437849 41.5776 0H59.9873C62.6492 0 65.229 0.91999 67.2897 2.6052C69.3502 4.28945 70.7653 6.63526 71.2946 9.24322L72.3713 14.5506L88.462 14.5515C91.5216 14.5515 94.4564 15.7668 96.6203 17.9308C98.7842 20.0949 99.9996 23.0295 99.9996 26.0891V65.832C99.9996 68.8916 98.7843 71.8264 96.6203 73.9903C94.4562 76.1542 91.5216 77.3695 88.462 77.3695L88.4617 77.3696Z" fill="white"/>
<path d="M84.2182 33.6515H72.6807C71.3061 33.6515 70.0368 32.9187 69.3491 31.7287C68.6623 30.5386 68.6623 29.0723 69.3491 27.8823C70.0369 26.6922 71.3061 25.9595 72.6807 25.9595H84.2192H84.2183C85.5928 25.9595 86.8622 26.6922 87.5498 27.8823C88.2367 29.0723 88.2367 30.5386 87.5498 31.7287C86.8621 32.9187 85.5928 33.6515 84.2183 33.6515H84.2182Z" fill="white"/>
<path d="M16.6662 22.2418H3.84578C2.47211 22.2418 1.20187 21.509 0.515135 20.319C-0.171712 19.1289 -0.171712 17.6626 0.515135 16.4726C1.20198 15.2826 2.47213 14.5498 3.84578 14.5498H16.6662C18.0408 14.5498 19.3102 15.2826 19.9969 16.4726C20.6846 17.6627 20.6846 19.129 19.9969 20.319C19.31 21.509 18.0408 22.2418 16.6662 22.2418Z" fill="white"/>
<path d="M10.2577 28.6534C9.23783 28.6534 8.25933 28.2483 7.53824 27.5264C6.81719 26.8053 6.41211 25.8268 6.41211 24.8069V11.9864C6.41211 10.6127 7.14486 9.34249 8.33492 8.65576C9.52497 7.96891 10.9913 7.96891 12.1813 8.65576C13.3714 9.34261 14.1041 10.6128 14.1041 11.9864V24.8069C14.1041 25.8268 13.699 26.8053 12.9771 27.5264C12.256 28.2483 11.2775 28.6534 10.2576 28.6534H10.2577Z" fill="white"/>
</svg>
