<svg width="38" height="31" viewBox="0 0 38 31" fill="none" xmlns="http://www.w3.org/2000/svg">
<path opacity="0.4" fill-rule="evenodd" clip-rule="evenodd" d="M29.0236 17.5909C28.163 17.5909 27.2783 17.4617 26.3935 17.2069C24.2367 16.5863 22.4525 15.1842 21.3691 13.2606C20.2741 11.3151 20.0025 9.0606 20.6035 6.91088C21.6095 3.31495 24.9168 0.803111 28.6465 0.803111C28.6586 0.803111 28.6704 0.803468 28.6825 0.803836L28.6834 0.803864C31.7062 0.921807 34.0552 2.10236 35.6653 4.31313C38.5426 8.26402 38.2001 14.541 37.032 18.7161C35.0421 25.8326 30.3263 30.8027 25.5645 30.8027C25.2687 30.8027 24.9703 30.7824 24.6775 30.7424C24.4081 30.7055 24.1677 30.5537 24.0181 30.3261C23.8685 30.0985 23.8252 29.8177 23.8983 29.5555L24.7653 26.4543C24.8656 26.0967 25.1666 25.8311 25.534 25.7764C29.5011 25.1867 31.4925 19.9501 32.3215 16.9153C31.4616 17.2872 30.3527 17.5909 29.0236 17.5909ZM6.1028 17.2069C3.94595 16.5863 2.16176 15.1842 1.07843 13.2602C-0.0162027 11.3151 -0.288256 9.06023 0.312002 6.91051C1.31808 3.31458 4.62571 0.802737 8.355 0.802737C8.36745 0.802737 8.3792 0.803094 8.39127 0.803458L8.3923 0.803492C11.4147 0.921057 13.7641 2.10199 15.3738 4.31238C18.2515 8.26402 17.909 14.541 16.7413 18.7161C14.751 25.8326 10.0352 30.8027 5.27345 30.8027C4.97728 30.8027 4.67885 30.7824 4.38644 30.7424C4.11665 30.7055 3.87624 30.5537 3.72703 30.3261C3.57743 30.0985 3.5341 29.8177 3.6072 29.5555L4.47424 26.4543C4.57485 26.0967 4.87554 25.8311 5.24293 25.7764C9.21036 25.1867 11.2018 19.9501 12.0308 16.9153C11.1709 17.2872 10.0616 17.5909 8.73256 17.5909C7.87231 17.5909 6.98756 17.4617 6.1028 17.2069Z" fill="#A96D8E"/>
</svg>
