<svg width="18" height="18" viewBox="0 0 18 18" fill="none" xmlns="http://www.w3.org/2000/svg">
<circle cx="9" cy="9" r="8.25" stroke="#A96D8E" stroke-width="1.5"/>
<path d="M13.8301 4.25479C13.6958 4.09047 13.4945 4 13.2634 4C13.1378 4 13.0047 4.02644 12.8679 4.07872L3.5566 7.63312C3.06246 7.82169 2.99591 8.10468 3.00019 8.25658C3.00447 8.40848 3.08696 8.68727 3.591 8.84765C3.59403 8.84858 3.59705 8.8495 3.60007 8.85034L5.53147 9.40306L6.57598 12.3899C6.7184 12.7971 7.03806 13.05 7.41035 13.05C7.64508 13.05 7.87595 12.9517 8.07804 12.7657L9.27268 11.6657L11.0054 13.0609C11.0056 13.0611 11.0059 13.0612 11.006 13.0613L11.0225 13.0746C11.024 13.0758 11.0256 13.077 11.0271 13.0782C11.2197 13.2276 11.4299 13.3065 11.6353 13.3066H11.6354C12.0366 13.3066 12.3561 13.0096 12.4492 12.55L13.9748 5.01673C14.0361 4.71435 13.9847 4.44379 13.8301 4.25479ZM6.1776 9.29807L9.90387 7.39444L7.58365 9.85985C7.54563 9.90022 7.51869 9.94965 7.50543 10.0034L7.05804 11.8157L6.1776 9.29807ZM7.64139 12.2915C7.62595 12.3057 7.61042 12.3184 7.59489 12.33L8.00998 10.6489L8.76503 11.2569L7.64139 12.2915ZM13.3431 4.88875L11.8175 12.4221C11.8028 12.4942 11.7559 12.662 11.6353 12.662C11.5757 12.662 11.5008 12.6295 11.4242 12.5705L9.46076 10.9895C9.4605 10.9893 9.46017 10.989 9.45983 10.9889L8.29154 10.0481L11.6469 6.48278C11.7543 6.36865 11.764 6.19383 11.6699 6.06845C11.5758 5.94307 11.4052 5.90363 11.2656 5.97496L5.74699 8.79428L3.78931 8.23417L13.0977 4.68087C13.1764 4.65082 13.2313 4.64453 13.2634 4.64453C13.2831 4.64453 13.3182 4.64688 13.3312 4.66291C13.3483 4.68381 13.3701 4.75506 13.3431 4.88875Z" fill="#A96D8E"/>
</svg>
