<svg width="20" height="13" viewBox="0 0 20 13" fill="none" xmlns="http://www.w3.org/2000/svg">
<path d="M17.2128 7.82586C17.8763 8.53021 18.5765 9.19291 19.1715 9.96829C19.4344 10.3129 19.6832 10.6684 19.8736 11.0683C20.1433 11.6367 19.899 12.2623 19.4303 12.2962L16.5166 12.2948C15.7652 12.3626 15.1657 12.0336 14.6616 11.4749C14.2582 11.0281 13.8846 10.5525 13.4967 10.0906C13.3377 9.90183 13.1713 9.72419 12.9724 9.58378C12.5747 9.30302 12.2294 9.38898 12.0021 9.84009C11.7706 10.2989 11.7181 10.807 11.6954 11.3183C11.6642 12.0644 11.4568 12.2606 10.7676 12.2947C9.29473 12.3703 7.89691 12.1279 6.59838 11.32C5.45355 10.6077 4.56579 9.60214 3.79308 8.46376C2.28861 6.24708 1.13649 3.81132 0.101007 1.30731C-0.132073 0.743156 0.0383836 0.44032 0.610798 0.429601C1.56132 0.409522 2.5117 0.410951 3.46334 0.428172C3.84966 0.434317 4.10541 0.675271 4.25458 1.07214C4.76883 2.4472 5.39809 3.75544 6.18794 4.96807C6.39829 5.29091 6.61277 5.61375 6.9182 5.84099C7.25609 6.09259 7.51335 6.0092 7.67231 5.59989C7.77317 5.34036 7.81733 5.06082 7.84007 4.78285C7.91537 3.82654 7.92529 2.87187 7.79321 1.91891C7.71213 1.32417 7.40407 0.939163 6.85833 0.826618C6.57985 0.769237 6.62131 0.656549 6.75615 0.483694C6.99035 0.185575 7.21061 0 7.6497 0H10.9426C11.461 0.111259 11.5761 0.364504 11.6471 0.931731L11.6499 4.90926C11.6442 5.12885 11.7508 5.78046 12.1145 5.92581C12.4056 6.02928 12.5975 5.77603 12.7721 5.57531C13.5605 4.66537 14.1232 3.59001 14.6259 2.47649C14.849 1.98687 15.0408 1.47838 15.2267 0.970318C15.3644 0.59331 15.5806 0.407807 15.9711 0.416024L19.1403 0.419097C19.2343 0.419097 19.3294 0.420597 19.4204 0.437533C19.9544 0.536501 20.1007 0.786316 19.9358 1.3534C19.6759 2.24311 19.1703 2.98456 18.6759 3.72943C18.1473 4.52467 17.5821 5.2927 17.058 6.09266C16.5764 6.82317 16.6147 7.19139 17.2128 7.82586Z" fill="white"/>
</svg>
