<svg width="50" height="31" viewBox="0 0 50 31" fill="none" xmlns="http://www.w3.org/2000/svg">
<path d="M43.0321 19.5646C44.6907 21.3255 46.4412 22.9823 47.9288 24.9207C48.5859 25.7821 49.208 26.6711 49.6839 27.6708C50.3583 29.0919 49.7475 30.6557 48.5757 30.7406L41.2916 30.737C39.4129 30.9065 37.9142 30.084 36.654 28.6872C35.6455 27.5702 34.7115 26.3813 33.7418 25.2266C33.3443 24.7546 32.9281 24.3105 32.431 23.9594C31.4366 23.2576 30.5735 23.4725 30.0053 24.6002C29.4265 25.7473 29.2953 27.0175 29.2384 28.2958C29.1604 30.161 28.6419 30.6514 26.919 30.7368C23.2368 30.9256 19.7423 30.3199 16.4959 28.2999C13.6339 26.5192 11.4145 24.0054 9.48271 21.1594C5.72153 15.6177 2.84123 9.52829 0.252517 3.26828C-0.330181 1.85789 0.0959589 1.1008 1.52699 1.074C3.90329 1.0238 6.27926 1.02738 8.65835 1.07043C9.62415 1.08579 10.2635 1.68818 10.6364 2.68036C11.9221 6.11799 13.4952 9.38859 15.4699 12.4202C15.9957 13.2273 16.5319 14.0344 17.2955 14.6025C18.1402 15.2315 18.7834 15.023 19.1808 13.9997C19.4329 13.3509 19.5433 12.652 19.6002 11.9571C19.7884 9.56634 19.8132 7.17967 19.483 4.79728C19.2803 3.31044 18.5102 2.34791 17.1458 2.06654C16.4496 1.92309 16.5533 1.64137 16.8904 1.20924C17.4759 0.463936 18.0265 0 19.1242 0H27.3564C28.6524 0.278147 28.9403 0.911259 29.1177 2.32933L29.1247 12.2731C29.1106 12.8221 29.3769 14.4512 30.2862 14.8145C31.014 15.0732 31.4936 14.4401 31.9303 13.9383C33.9013 11.6634 35.308 8.97503 36.5648 6.19124C37.1225 4.96717 37.602 3.69595 38.0668 2.4258C38.4111 1.48327 38.9514 1.01952 39.9277 1.04006L47.8508 1.04774C48.0857 1.04774 48.3234 1.05149 48.5509 1.09383C49.886 1.34125 50.2519 1.96579 49.8395 3.3835C49.1898 5.60779 47.9257 7.46139 46.6896 9.32357C45.3683 11.3117 43.9552 13.2317 42.6449 15.2317C41.4411 17.0579 41.5367 17.9785 43.0321 19.5646Z" fill="#0077FF"/>
</svg>
